<svg width="24" height="24" viewBox="0 0 24 24" fill="none" xmlns="http://www.w3.org/2000/svg">
<g clip-path="url(#clip0_3097_10461)">
<path d="M11.9998 2.16237C15.2039 2.16237 15.5837 2.17448 16.8487 2.23188C18.0187 2.28704 18.6551 2.48076 19.077 2.64579C19.5983 2.83773 20.0698 3.14422 20.4569 3.54267C20.855 3.9298 21.1614 4.40112 21.3538 4.92206C21.5179 5.34494 21.7125 5.98038 21.7668 7.15036C21.8246 8.41585 21.8367 8.79523 21.8367 11.9993C21.8367 15.2034 21.8246 15.5832 21.7668 16.8483C21.7134 18.0183 21.5179 18.6537 21.3538 19.0766C21.1541 19.5941 20.8482 20.0642 20.456 20.4564C20.0637 20.8487 19.5937 21.1545 19.0761 21.3542C18.6533 21.5183 18.0178 21.713 16.8478 21.7672C15.5837 21.8255 15.2043 21.839 11.9998 21.839C8.79523 21.839 8.41585 21.8269 7.1508 21.769C5.98083 21.7156 5.34539 21.5201 4.92251 21.356C4.40156 21.1637 3.93025 20.8572 3.54311 20.4591C3.14467 20.0721 2.83818 19.6005 2.64624 19.0793C2.48166 18.6564 2.28749 18.021 2.23278 16.851C2.17538 15.5859 2.16327 15.2061 2.16327 12.002C2.16327 8.79792 2.17538 8.41854 2.23278 7.15305C2.28704 5.98083 2.48076 5.34539 2.64579 4.92251C2.83768 4.40122 3.14417 3.92967 3.54267 3.54267C3.92954 3.14423 4.40093 2.83774 4.92206 2.64579C5.34494 2.48121 5.98038 2.28704 7.15036 2.23233C8.41585 2.17493 8.79523 2.16282 11.9993 2.16282M11.9993 0.000448439C8.74052 0.000448439 8.33199 0.01435 7.0517 0.0726471C5.77141 0.130944 4.90278 0.33319 4.13954 0.630056C3.33886 0.931413 2.61349 1.40367 2.01394 2.01394C1.40367 2.61349 0.931413 3.33886 0.630056 4.13954C0.33319 4.90188 0.130496 5.77499 0.0721986 7.05215C0.0139016 8.3293 0 8.74097 0 11.9998C0 15.2586 0.0139016 15.6676 0.0721986 16.9474C0.130496 18.2272 0.33319 19.0968 0.630056 19.8622C0.931432 20.6628 1.40369 21.388 2.01394 21.9874C2.61336 22.5979 3.33876 23.0704 4.13954 23.3717C4.90188 23.6681 5.77499 23.8713 7.05215 23.9296C8.3293 23.9879 8.74097 24.0018 11.9998 24.0018C15.2586 24.0018 15.6676 23.9879 16.9474 23.9296C18.2272 23.8713 19.0968 23.6681 19.8622 23.3717C20.6593 23.0632 21.3831 22.5917 21.9874 21.9874C22.5917 21.3831 23.0632 20.6593 23.3717 19.8622C23.6681 19.0999 23.8713 18.2263 23.9296 16.9474C23.9879 15.6685 24.0018 15.259 24.0018 11.9998C24.0018 8.74052 23.9879 8.33244 23.9296 7.05215C23.8713 5.77185 23.6681 4.90278 23.3717 4.13954C23.0704 3.33876 22.5979 2.61336 21.9874 2.01394C21.388 1.40369 20.6628 0.931432 19.8622 0.630056C19.0999 0.33319 18.2263 0.130496 16.9474 0.0721986C15.6685 0.0139016 15.259 0 11.9998 0L11.9993 0.000448439Z" fill="#0020F6"/>
<path d="M12 5.83984C10.7813 5.83984 9.58993 6.20124 8.57659 6.87833C7.56326 7.55542 6.77346 8.51779 6.30707 9.64375C5.84068 10.7697 5.71865 12.0087 5.95642 13.204C6.19418 14.3993 6.78105 15.4973 7.64282 16.359C8.50459 17.2208 9.60256 17.8077 10.7979 18.0454C11.9932 18.2832 13.2322 18.1612 14.3581 17.6948C15.4841 17.2284 16.4464 16.4386 17.1235 15.4253C17.8006 14.4119 18.162 13.2206 18.162 12.0018C18.162 10.3676 17.5128 8.80025 16.3572 7.64465C15.2016 6.48905 13.6343 5.83984 12 5.83984ZM12 16.0019C11.2089 16.0019 10.4355 15.7673 9.77769 15.3278C9.11988 14.8882 8.60718 14.2635 8.30443 13.5326C8.00167 12.8017 7.92246 11.9974 8.0768 11.2215C8.23114 10.4455 8.61211 9.73278 9.17153 9.17336C9.73095 8.61394 10.4437 8.23297 11.2196 8.07863C11.9956 7.92428 12.7999 8.0035 13.5308 8.30626C14.2617 8.60901 14.8864 9.12171 15.326 9.77952C15.7655 10.4373 16.0001 11.2107 16.0001 12.0018C16.0001 13.0627 15.5787 14.0802 14.8285 14.8303C14.0783 15.5805 13.0609 16.0019 12 16.0019Z" fill="#0020F6"/>
<path d="M19.4225 6.61194C19.9848 6.04961 19.9848 5.13789 19.4225 4.57556C18.8602 4.01323 17.9484 4.01323 17.3861 4.57556C16.8238 5.13789 16.8238 6.04961 17.3861 6.61194C17.9484 7.17427 18.8602 7.17427 19.4225 6.61194Z" fill="#0020F6"/>
</g>
<defs>
<clipPath id="clip0_3097_10461">
<rect width="24" height="24" fill="white"/>
</clipPath>
</defs>
</svg>
