<svg width="24" height="24" viewBox="0 0 24 24" fill="none" xmlns="http://www.w3.org/2000/svg">
<path fill-rule="evenodd" clip-rule="evenodd" d="M1.50423 22.8588H6.00706V8.347H1.50423V22.8588ZM1.14282 3.75713C1.14282 5.2 2.31 6.36974 3.75565 6.36974C5.19537 6.36974 6.36255 5.19407 6.36255 3.75713C6.36255 2.31426 5.19537 1.14453 3.75565 1.14453C2.31 1.14453 1.14282 2.31426 1.14282 3.75713ZM18.3602 22.8588H22.8571V14.8963C22.8571 10.9893 22.0158 7.9848 17.4596 7.9848C15.2734 7.9848 13.8041 9.19016 13.2057 10.3302H13.1464V8.347H8.83318V22.8588H13.3242V15.686C13.3242 13.7919 13.6796 11.9571 16.0199 11.9571C18.3306 11.9571 18.3602 14.1244 18.3602 15.8048V22.8588Z" fill="#0020F6"/>
</svg>
