<svg width="277" height="95" viewBox="0 0 277 95" fill="none" xmlns="http://www.w3.org/2000/svg">
<mask id="mask0_3097_10397" style="mask-type:luminance" maskUnits="userSpaceOnUse" x="0" y="0" width="277" height="95">
<path d="M277 0H0V94.0729H277V0Z" fill="white"/>
</mask>
<g mask="url(#mask0_3097_10397)">
<path d="M219.897 58.691H232.912V50.5053H219.897C218.223 50.4567 216.557 50.7445 214.996 51.3516C213.435 51.9588 212.012 52.8728 210.81 54.0398C209.609 55.2068 208.654 56.6029 208.002 58.1455C207.35 59.6881 207.014 61.3458 207.014 63.0206C207.014 64.6954 207.35 66.3531 208.002 67.8957C208.654 69.4383 209.609 70.8344 210.81 72.0014C212.012 73.1684 213.435 74.0825 214.996 74.6896C216.557 75.2967 218.223 75.5845 219.897 75.536H232.912V67.3397H219.897C218.792 67.285 217.749 66.8072 216.986 66.0052C216.222 65.2032 215.797 64.1384 215.797 63.0311C215.797 61.9239 216.222 60.8591 216.986 60.057C217.749 59.255 218.792 58.7772 219.897 58.7226" fill="#0020F6"/>
<path d="M266.473 33.674H221.841C217.464 33.674 215.528 31.7485 215.528 29.3707C215.528 26.9928 217.453 25.0568 221.841 25.0568H264.485C266.961 25.0568 269.382 24.3223 271.442 22.946C273.501 21.5698 275.106 19.6137 276.053 17.3252C277 15.0368 277.248 12.5188 276.764 10.0897C276.28 7.66067 275.086 5.42973 273.334 3.67911C271.582 1.92849 269.35 0.736851 266.921 0.254929C264.491 -0.226992 261.974 0.022459 259.686 0.971728C257.398 1.921 255.443 3.52743 254.069 5.58782C252.694 7.6482 251.962 10.07 251.964 12.5468V16.8395H221.841C212.94 16.8395 207.321 22.458 207.321 29.3601C207.321 36.2623 212.94 41.8807 221.841 41.8807H264.979C265.993 42.0884 266.911 42.6209 267.594 43.3975C268.278 44.1741 268.689 45.1524 268.767 46.1841C268.767 47.3263 268.314 48.422 267.507 49.2307C266.7 50.0394 265.606 50.4951 264.464 50.4979H251.322C248.276 50.5144 245.36 51.731 243.205 53.8838C241.05 56.0366 239.831 58.952 239.812 61.9979V75.518H248.018V61.9874C248.021 61.113 248.37 60.2754 248.99 59.6581C249.609 59.0408 250.448 58.6941 251.322 58.6941H264.485C267.803 58.6886 270.983 57.3673 273.328 55.0201C275.673 52.673 276.992 49.4915 276.995 46.1735C276.995 39.2714 271.387 33.6529 266.473 33.6529M260.16 12.5257C260.158 11.6721 260.409 10.837 260.882 10.1262C261.355 9.41544 262.028 8.86089 262.816 8.53277C263.604 8.20465 264.472 8.11772 265.309 8.28298C266.147 8.44824 266.916 8.85826 267.521 9.46114C268.125 10.064 268.537 10.8326 268.704 11.6697C268.872 12.5068 268.787 13.3747 268.461 14.1636C268.134 14.9524 267.581 15.6268 266.872 16.1013C266.162 16.5757 265.328 16.829 264.474 16.829H260.16V12.5257Z" fill="#0020F6"/>
<path d="M214.206 88.9724L210.913 81.5547H207.314V93.8754H210.408V87.3941L212.733 92.5391H215.658L217.983 87.3941V93.8754H221.056V81.5547H217.468L214.206 88.9724Z" fill="#0020F6"/>
<path d="M229.01 81.5547L224.559 93.8754H227.915L228.81 91.2345H232.692L233.586 93.8754H236.943L232.524 81.5547H229.01ZM231.798 88.5725H229.694L230.746 85.4161L231.798 88.5725Z" fill="#0020F6"/>
<path d="M261.712 85.3649C261.72 84.8351 261.616 84.3096 261.408 83.8225C261.199 83.3355 260.89 82.898 260.501 82.5385C260.112 82.1791 259.651 81.9058 259.149 81.7365C258.647 81.5672 258.115 81.5057 257.587 81.5561H252.327V93.8768H255.42V89.4894H256.725L258.945 93.8768H262.29L259.692 88.816C260.325 88.4943 260.853 87.9988 261.214 87.3876C261.576 86.7763 261.756 86.0747 261.733 85.3649M258.576 85.5122C258.586 85.6805 258.559 85.8489 258.498 86.006C258.437 86.1631 258.343 86.3053 258.223 86.423C258.102 86.5406 257.957 86.6311 257.799 86.6881C257.64 86.7452 257.471 86.7676 257.303 86.7538H255.472V84.2917H257.303C257.47 84.2728 257.64 84.2909 257.799 84.3447C257.959 84.3986 258.104 84.4869 258.226 84.6034C258.347 84.7199 258.442 84.8617 258.502 85.0188C258.563 85.1758 258.588 85.3443 258.576 85.5122Z" fill="#0020F6"/>
<path d="M269.064 81.5547L264.613 93.8754H267.97L268.864 91.2345H272.747L273.63 93.8754H276.997L272.557 81.5547H269.064ZM271.852 88.5725H269.748L270.8 85.4161L271.852 88.5725Z" fill="#0020F6"/>
<path d="M247.061 81.5799H239.812V84.547H244.852V89.8814C244.852 91.0072 244.284 91.1335 243.852 91.1335C243.61 91.1335 242.895 91.1335 242.8 89.9656V88.7872H239.538V89.9866C239.538 92.5434 241.18 94.0795 243.842 94.0795C244.398 94.1314 244.958 94.0601 245.484 93.8707C246.009 93.6812 246.486 93.3783 246.881 92.9835C247.276 92.5886 247.578 92.1116 247.768 91.5863C247.957 91.0611 248.029 90.5005 247.977 89.9446V81.5273L247.061 81.5799Z" fill="#0020F6"/>
<path d="M0.614685 81.5664H4.5813L8.46374 88.5422V81.5664H11.5465V93.7924H8.13757L3.70801 86.0275V93.7924H0.614685V81.5664Z" fill="#0020F6"/>
<path d="M17.7044 81.5664H22.2392L26.1216 93.7924H22.4075L21.7552 91.5408H17.7044L17.0521 93.8135H13.7904L17.7044 81.5664ZM18.3883 89.1103H21.0397L19.7035 84.4072L18.3883 89.1103Z" fill="#0020F6"/>
<path d="M29.5715 84.2704H26.4045V81.5664H36.2527V84.2704H33.0962V93.7924H29.5715V84.2704Z" fill="#0020F6"/>
<path d="M42.2534 81.5664H38.7182V93.7924H42.2534V81.5664Z" fill="#0020F6"/>
<path d="M44.8594 87.7595V87.6227C44.8436 86.781 45.0017 85.9452 45.324 85.1675C45.6462 84.3898 46.1256 83.6871 46.7321 83.1033C47.3386 82.5195 48.0591 82.0673 48.8485 81.775C49.6379 81.4826 50.4792 81.3565 51.3196 81.4045C55.0548 81.4045 57.8009 83.7402 57.8009 87.5385V87.6753C57.8009 91.4209 55.2231 93.9882 51.267 93.9882C47.3109 93.9882 44.8594 91.3999 44.8594 87.7384M54.1499 87.7384V87.6016C54.1499 85.4342 53.0978 84.1506 51.3196 84.1506C49.5415 84.1506 48.5209 85.3921 48.5209 87.6227V87.7595C48.5209 89.9795 49.6467 91.2631 51.3407 91.2631C53.0346 91.2631 54.1499 89.9269 54.1499 87.7384Z" fill="#0020F6"/>
<path d="M60.3586 81.5664H64.3253L68.2077 88.5422V81.5664H71.28V93.7924H67.8815L63.452 86.0275V93.7924H60.3586V81.5664Z" fill="#0020F6"/>
<path d="M77.435 81.5664H81.9698L85.8522 93.7924H82.1381L81.4963 91.5408H77.435L76.8037 93.7924H73.521L77.435 81.5664ZM78.1189 89.1103H80.8124L79.4762 84.4072L78.1189 89.1103Z" fill="#0020F6"/>
<path d="M88.0933 81.5664H91.618V91.0884H96.237V93.7924H88.0933V81.5664Z" fill="#0020F6"/>
<path d="M102.056 87.7527V87.6159C102.02 86.787 102.157 85.9598 102.458 85.1866C102.759 84.4134 103.217 83.7112 103.804 83.1246C104.39 82.5379 105.093 82.0796 105.866 81.7787C106.639 81.4778 107.466 81.3409 108.295 81.3767C111.452 81.3767 113.682 82.8497 113.977 86.0798H110.368C110.368 85.8215 110.316 85.5659 110.214 85.3285C110.113 85.091 109.964 84.8767 109.777 84.6986C109.59 84.5204 109.369 84.3822 109.127 84.2922C108.885 84.2023 108.627 84.1625 108.369 84.1754C106.791 84.1754 105.802 85.4064 105.802 87.637V87.7737C105.802 89.9727 106.749 91.2248 108.421 91.2248C108.703 91.2477 108.986 91.2137 109.254 91.1248C109.522 91.0359 109.77 90.894 109.982 90.7075C110.194 90.5209 110.366 90.2936 110.489 90.039C110.611 89.7844 110.681 89.5079 110.694 89.2257H114.187C113.945 92.3822 111.652 94.0341 108.485 94.0341C104.16 94.0025 102.056 91.5405 102.056 87.7527Z" fill="#0020F6"/>
<path d="M115.734 89.9064H119.069C119.153 90.7797 119.564 91.4952 120.994 91.4952C122.047 91.4952 122.573 91.0007 122.573 90.2852C122.573 89.5697 122.131 89.2962 120.658 89.0647C117.249 88.6544 116.018 87.6654 116.018 85.2033C116.018 82.9938 117.849 81.3945 120.774 81.3945C123.698 81.3945 125.371 82.6256 125.603 85.2033H122.352C122.343 85.0094 122.294 84.8193 122.209 84.6451C122.123 84.4708 122.002 84.3161 121.854 84.1907C121.706 84.0653 121.534 83.9718 121.348 83.9161C121.162 83.8604 120.966 83.8437 120.774 83.8671C119.816 83.8671 119.353 84.2985 119.353 84.9192C119.353 85.54 119.711 85.9714 121.258 86.1397C124.298 86.4764 125.94 87.2655 125.94 89.917C125.94 92.158 124.161 93.9888 120.994 93.9888C117.596 93.9888 115.839 92.5473 115.734 89.8959" fill="#0020F6"/>
<path d="M128.442 81.5664H133.229C136.385 81.5664 138.206 82.8606 138.206 85.4488V85.512C138.252 86.2187 138.059 86.9205 137.658 87.5044C137.258 88.0884 136.672 88.5206 135.996 88.7316L138.879 93.7924H135.186L132.745 89.4365H131.924V93.8135H128.442V81.5664ZM133.05 87.1428C134.239 87.1428 134.818 86.6483 134.818 85.6488V85.5856C134.818 84.5335 134.197 84.1968 133.071 84.1968H131.924V87.1428H133.05Z" fill="#0020F6"/>
<path d="M145.131 81.5664H153.391V84.2704H148.656V86.8798H152.433V89.4681H148.656V93.7924H145.131V81.5664Z" fill="#0020F6"/>
<path d="M155.79 88.8368V81.5664H159.294V88.679C159.294 90.4045 159.715 91.2462 161.209 91.2462C162.703 91.2462 163.082 90.4887 163.082 88.6264V81.5664H166.606V88.7842C166.606 92.3404 164.502 94.0449 161.167 94.0449C157.831 94.0449 155.748 92.2984 155.748 88.8789" fill="#0020F6"/>
<path d="M169.772 81.5664H173.738L177.621 88.5422V81.5664H180.704V93.7924H177.295L172.865 86.0275V93.7924H169.772V81.5664Z" fill="#0020F6"/>
<path d="M183.9 81.5664H188.33C192.675 81.5664 194.885 83.7338 194.885 87.5321V87.6689C194.885 91.4882 192.623 93.7924 188.319 93.7924H183.89L183.9 81.5664ZM188.225 91.0358C190.329 91.0358 191.234 89.9836 191.234 87.6689V87.5321C191.234 85.2069 190.308 84.1968 188.193 84.1968H187.425V91.0358H188.225Z" fill="#0020F6"/>
<path d="M6.75148 72.2508C5.13117 72.2508 4.47883 71.7247 4.27892 70.5148C4.16169 70.949 3.89453 71.3278 3.52478 71.5839C3.15502 71.84 2.70655 71.957 2.25879 71.9141C1.94187 71.9415 1.62287 71.8967 1.32576 71.7831C1.02865 71.6694 0.761179 71.4899 0.543448 71.258C0.325717 71.0261 0.163396 70.7478 0.0686906 70.4441C-0.0260148 70.1405 -0.05064 69.8193 -0.00333348 69.5047C-0.000713393 68.835 0.222195 68.1847 0.631008 67.6542C1.03982 67.1237 1.61183 66.7424 2.25879 66.5692L4.08954 65.8958V64.6438H6.30958V68.8524C6.30958 69.5678 6.54105 69.8309 7.20391 69.8309V71.7563L6.75148 72.2508ZM2.43766 63.9704C2.2985 63.9847 2.15787 63.9697 2.02489 63.9262C1.8919 63.8828 1.76952 63.8119 1.66565 63.7182C1.56178 63.6245 1.47874 63.51 1.4219 63.3822C1.36507 63.2543 1.3357 63.116 1.3357 62.9761C1.3357 62.8362 1.36507 62.6979 1.4219 62.57C1.47874 62.4422 1.56178 62.3277 1.66565 62.234C1.76952 62.1403 1.8919 62.0694 2.02489 62.026C2.15787 61.9825 2.2985 61.9675 2.43766 61.9818C2.68372 62.0072 2.91164 62.1229 3.07735 62.3065C3.24306 62.4902 3.33479 62.7287 3.33479 62.9761C3.33479 63.2235 3.24306 63.462 3.07735 63.6457C2.91164 63.8294 2.68372 63.945 2.43766 63.9704ZM2.59548 69.5363C3.50033 69.5363 4.08954 69.2838 4.08954 68.4841V67.6319L2.47975 68.2316C1.78532 68.5052 1.55385 68.684 1.55385 69.0207C1.55385 69.3574 1.79585 69.5363 2.606 69.5363M4.71031 63.9704C4.57114 63.9847 4.43052 63.9697 4.29753 63.9262C4.16455 63.8828 4.04216 63.8119 3.93829 63.7182C3.83443 63.6245 3.75139 63.51 3.69455 63.3822C3.63771 63.2543 3.60835 63.116 3.60835 62.9761C3.60835 62.8362 3.63771 62.6979 3.69455 62.57C3.75139 62.4422 3.83443 62.3277 3.93829 62.234C4.04216 62.1403 4.16455 62.0694 4.29753 62.026C4.43052 61.9825 4.57114 61.9675 4.71031 61.9818C4.95637 62.0072 5.18429 62.1229 5.35 62.3065C5.51571 62.4902 5.60744 62.7287 5.60744 62.9761C5.60744 63.2235 5.51571 63.462 5.35 63.6457C5.18429 63.8294 4.95637 63.945 4.71031 63.9704Z" fill="#0020F6"/>
<path d="M10.8199 72.2477C10.3137 72.315 9.80103 72.184 9.3892 71.882C8.97737 71.58 8.69831 71.1304 8.61042 70.6273C8.59575 70.8564 8.53579 71.0804 8.43401 71.2862C8.33222 71.4919 8.19063 71.6755 8.01744 71.8262C7.84424 71.9769 7.64287 72.0917 7.42499 72.1641C7.20711 72.2364 6.97704 72.2648 6.74811 72.2477V70.2696L7.20053 69.8698C7.97913 69.8698 8.25268 69.5542 8.25268 68.8176V67.3867H10.357V68.8071C10.357 69.6278 10.599 69.8593 11.3355 69.8593V71.7847L10.8199 72.2477ZM8.13695 74.9201C8.02066 74.9333 7.9029 74.9217 7.79138 74.8862C7.67987 74.8507 7.57711 74.792 7.48983 74.7141C7.40255 74.6361 7.33272 74.5406 7.2849 74.4337C7.23709 74.3269 7.21238 74.2112 7.21238 74.0942C7.21238 73.9772 7.23709 73.8614 7.2849 73.7546C7.33272 73.6478 7.40255 73.5523 7.48983 73.4743C7.57711 73.3963 7.67987 73.3377 7.79138 73.3022C7.9029 73.2667 8.02066 73.2551 8.13695 73.2682C8.33994 73.2912 8.52736 73.3881 8.66346 73.5404C8.79955 73.6928 8.87478 73.8899 8.87478 74.0942C8.87478 74.2985 8.79955 74.4956 8.66346 74.6479C8.52736 74.8003 8.33994 74.8972 8.13695 74.9201ZM10.0729 74.9201C9.95662 74.9333 9.83886 74.9217 9.72734 74.8862C9.61583 74.8507 9.51306 74.792 9.42579 74.7141C9.33851 74.6361 9.26868 74.5406 9.22086 74.4337C9.17305 74.3269 9.14834 74.2112 9.14834 74.0942C9.14834 73.9772 9.17305 73.8614 9.22086 73.7546C9.26868 73.6478 9.33851 73.5523 9.42579 73.4743C9.51306 73.3963 9.61583 73.3377 9.72734 73.3022C9.83886 73.2667 9.95662 73.2551 10.0729 73.2682C10.2759 73.2912 10.4633 73.3881 10.5994 73.5404C10.7355 73.6928 10.8107 73.8899 10.8107 74.0942C10.8107 74.2985 10.7355 74.4956 10.5994 74.6479C10.4633 74.8003 10.2759 74.8972 10.0729 74.9201Z" fill="#0020F6"/>
<path d="M10.8104 72.2587V70.2807L11.2628 69.8809H13.083C12.9568 69.7546 12.841 69.6178 12.7148 69.481L12.094 68.7551V66.5666C13.1663 66.3097 14.2637 66.1721 15.3662 66.1563C17.6494 66.1562 18.5858 66.6613 18.6068 68.1133C18.591 68.7548 18.3697 69.3744 17.9755 69.8809H19.4275V71.8063L18.9856 72.2587H18.6699C17.5871 72.2855 16.511 72.081 15.5135 71.659C14.5085 72.056 13.4376 72.2595 12.357 72.2587H10.8104ZM13.7353 68.3973C14.2268 69.0094 14.8957 69.4541 15.6503 69.6704C16.6182 69.4916 17.1548 69.197 17.1443 68.8498C17.1338 68.5025 16.5972 68.3026 15.3662 68.3026C14.8211 68.2972 14.2762 68.3288 13.7353 68.3973Z" fill="#0020F6"/>
<path d="M25.153 70.8344C25.0826 71.3232 24.8219 71.7643 24.4278 72.0619C24.0337 72.3594 23.5381 72.4893 23.0487 72.4232C22.6265 72.4766 22.1986 72.3863 21.834 72.1668C21.4695 71.9473 21.1894 71.6114 21.0391 71.2132C20.8222 71.5681 20.5099 71.8549 20.1378 72.041C19.7657 72.227 19.3489 72.3047 18.9348 72.2654V70.2768L19.3872 69.877C19.9764 69.877 20.2079 69.6876 20.513 69.0458L20.9549 68.162C21.1466 67.6594 21.4805 67.2236 21.9159 66.9078C22.3512 66.592 22.8692 66.4099 23.4065 66.3838C24.0442 66.3463 24.676 66.5239 25.2006 66.8884C25.7253 67.2528 26.1124 67.7828 26.2999 68.3935L26.3946 68.6249C26.8365 69.5824 27.1206 69.8454 27.6572 69.8454V71.7709L27.2153 72.2233C26.7682 72.2341 26.3294 72.1022 25.9624 71.8469C25.5954 71.5915 25.3193 71.2258 25.1741 70.8029M23.1434 70.0348C23.6778 70.1084 24.2212 69.993 24.6796 69.7086C24.5558 69.393 24.333 69.126 24.0447 68.9477C23.7563 68.7694 23.418 68.6894 23.0803 68.7196C22.428 68.7196 21.965 69.0668 21.965 69.4456C21.965 69.8244 22.3438 70.0348 23.1434 70.0348Z" fill="#0020F6"/>
<path d="M31.2686 72.2631C30.7607 72.3334 30.2453 72.2037 29.8312 71.9015C29.417 71.5992 29.1364 71.1479 29.0485 70.6427C29.0353 70.8723 28.9762 71.097 28.8749 71.3034C28.7736 71.5099 28.632 71.694 28.4585 71.845C28.285 71.9959 28.0831 72.1107 27.8646 72.1825C27.6461 72.2543 27.4154 72.2817 27.1862 72.2631V70.285L27.6386 69.8852C28.4172 69.8852 28.6908 69.5696 28.6908 68.833V67.4021H30.7951V68.8225C30.7951 69.6432 31.0371 69.8747 31.7841 69.8747V71.8001L31.2686 72.2631ZM28.7329 66.7287C28.5676 66.7308 28.4055 66.6836 28.2672 66.5931C28.1289 66.5025 28.0207 66.3728 27.9565 66.2205C27.8923 66.0682 27.875 65.9002 27.9067 65.738C27.9384 65.5758 28.0178 65.4267 28.1347 65.3099C28.2516 65.193 28.4006 65.1136 28.5628 65.0819C28.725 65.0501 28.893 65.0675 29.0453 65.1317C29.1976 65.1959 29.3273 65.3041 29.4179 65.4424C29.5084 65.5806 29.5556 65.7428 29.5536 65.9081C29.5565 66.0166 29.5372 66.1246 29.497 66.2255C29.4568 66.3264 29.3964 66.418 29.3196 66.4948C29.2428 66.5716 29.1512 66.632 29.0503 66.6722C28.9495 66.7124 28.8414 66.7316 28.7329 66.7287ZM30.6583 66.7287C30.542 66.7419 30.4243 66.7303 30.3128 66.6948C30.2012 66.6593 30.0985 66.6006 30.0112 66.5227C29.9239 66.4447 29.8541 66.3492 29.8063 66.2424C29.7585 66.1356 29.7338 66.0198 29.7338 65.9028C29.7338 65.7858 29.7585 65.6701 29.8063 65.5632C29.8541 65.4564 29.9239 65.3609 30.0112 65.2829C30.0985 65.205 30.2012 65.1463 30.3128 65.1108C30.4243 65.0753 30.542 65.0637 30.6583 65.0769C30.8613 65.0998 31.0487 65.1967 31.1848 65.349C31.3209 65.5014 31.3962 65.6985 31.3962 65.9028C31.3962 66.1071 31.3209 66.3042 31.1848 66.4566C31.0487 66.6089 30.8613 66.7058 30.6583 66.7287Z" fill="#0020F6"/>
<path d="M31.2552 72.2565V70.2784L31.7076 69.8786H32.7598C33.8107 69.9165 34.8587 69.7448 35.8426 69.3736L36.6948 69.0053C36.8349 68.9401 36.979 68.8839 37.1262 68.837C36.8421 68.837 36.5791 68.7212 36.274 68.6476L35.2218 68.3951C34.9228 68.2966 34.6107 68.2434 34.2959 68.2372C34.1468 68.2256 33.9991 68.2731 33.8849 68.3697C33.7706 68.4662 33.6991 68.6038 33.6857 68.7528H31.9812C31.9812 66.9326 32.886 65.8594 34.3696 65.8594C34.9223 65.8841 35.4683 65.9905 35.9899 66.175L38.0942 66.8063C38.7388 67.0358 39.4197 67.1463 40.1038 67.1325H40.3773V69.2368H39.9775C39.7588 69.2408 39.5407 69.2619 39.3252 69.2999C39.3252 69.7734 39.6724 69.9102 40.714 69.9102V71.8146L40.2616 72.288C39.9546 72.3067 39.6471 72.2623 39.3579 72.1575C39.0687 72.0528 38.8041 71.8899 38.5803 71.6789C38.3565 71.468 38.1783 71.2134 38.0567 70.9309C37.9351 70.6484 37.8727 70.344 37.8732 70.0364L37.4944 70.31L36.5265 70.9939C35.4895 71.8856 34.146 72.3385 32.7808 72.2565H31.2552ZM36.1582 74.9289C35.9457 74.9414 35.7344 74.8892 35.5521 74.7791C35.3699 74.669 35.2254 74.5062 35.1377 74.3122C35.0499 74.1182 35.0231 73.9022 35.0607 73.6926C35.0984 73.4831 35.1987 73.2899 35.3484 73.1386C35.4981 72.9872 35.6903 72.8849 35.8994 72.845C36.1086 72.8052 36.3249 72.8297 36.5198 72.9154C36.7147 73.0011 36.879 73.1439 36.991 73.3249C37.103 73.506 37.1575 73.7167 37.1472 73.9294C37.1501 74.0605 37.1265 74.1909 37.0779 74.3128C37.0294 74.4346 36.9568 74.5455 36.8645 74.6387C36.7723 74.732 36.6622 74.8057 36.5408 74.8556C36.4195 74.9054 36.2894 74.9304 36.1582 74.9289Z" fill="#0020F6"/>
<path d="M44.8824 73.3367L44.3458 73.0526C43.1012 72.4002 41.6941 72.1225 40.295 72.253V70.275L40.7474 69.8752C41.255 69.8599 41.7621 69.9202 42.252 70.054C42.045 69.8333 41.888 69.5705 41.7918 69.2837C41.6955 68.9968 41.6623 68.6925 41.6943 68.3916V62.8047H43.9144V68.3916C43.8161 68.8906 43.8946 69.4083 44.1366 69.8557C44.3785 70.3031 44.7687 70.6522 45.2401 70.8431L46.0082 71.264L44.8824 73.3367Z" fill="#0020F6"/>
<path d="M48.8556 62.8203H46.6356V72.2686H48.8556V62.8203Z" fill="#0020F6"/>
<path d="M58.7283 72.2559C57.1185 72.2559 56.4661 71.7298 56.2662 70.5198C56.149 70.9541 55.8818 71.3328 55.5121 71.5889C55.1423 71.8451 54.6939 71.9621 54.2461 71.9192C53.9292 71.9466 53.6102 71.9018 53.3131 71.7881C53.016 71.6745 52.7485 71.4949 52.5308 71.263C52.313 71.0311 52.1507 70.7529 52.056 70.4492C51.9613 70.1455 51.9367 69.8243 51.984 69.5097C51.9848 68.8396 52.2071 68.1884 52.6161 67.6575C53.0252 67.1267 53.5982 66.7459 54.2461 66.5742L56.0768 65.9009V64.6488H58.2864V68.8574C58.2864 69.5729 58.5284 69.8359 59.1807 69.8359V71.7614L58.7283 72.2559ZM54.425 63.9754C54.2858 63.9898 54.1452 63.9747 54.0122 63.9313C53.8792 63.8878 53.7568 63.817 53.653 63.7233C53.5491 63.6295 53.466 63.5151 53.4092 63.3872C53.3524 63.2594 53.323 63.121 53.323 62.9811C53.323 62.8412 53.3524 62.7029 53.4092 62.5751C53.466 62.4472 53.5491 62.3328 53.653 62.239C53.7568 62.1453 53.8792 62.0744 54.0122 62.031C54.1452 61.9876 54.2858 61.9725 54.425 61.9869C54.671 62.0122 54.8989 62.1279 55.0647 62.3116C55.2304 62.4952 55.3221 62.7338 55.3221 62.9811C55.3221 63.2285 55.2304 63.4671 55.0647 63.6507C54.8989 63.8344 54.671 63.9501 54.425 63.9754ZM54.5723 69.5413C55.4771 69.5413 56.0768 69.2888 56.0768 68.4892V67.6369L54.467 68.2366C53.7726 68.5102 53.5412 68.6891 53.5412 69.0258C53.5412 69.3624 53.7832 69.5413 54.5933 69.5413M56.6976 63.9754C56.4986 63.9796 56.3029 63.9243 56.1356 63.8166C55.9682 63.7088 55.8369 63.5536 55.7583 63.3707C55.6797 63.1879 55.6575 62.9857 55.6945 62.7902C55.7315 62.5946 55.8261 62.4146 55.9661 62.2731C56.106 62.1316 56.2851 62.0352 56.4802 61.9961C56.6754 61.9569 56.8777 61.977 57.0614 62.0536C57.2451 62.1302 57.4017 62.2599 57.5112 62.4261C57.6208 62.5923 57.6782 62.7874 57.6761 62.9864C57.6775 63.1158 57.6532 63.2442 57.6047 63.3641C57.5561 63.484 57.4843 63.5931 57.3933 63.6851C57.3023 63.7771 57.1939 63.8501 57.0745 63.9C56.9551 63.9498 56.827 63.9754 56.6976 63.9754Z" fill="#0020F6"/>
<path d="M62.8111 72.2594C62.3032 72.3297 61.7879 72.2 61.3737 71.8978C60.9596 71.5955 60.679 71.1442 60.5911 70.6391C60.5778 70.8687 60.5188 71.0933 60.4174 71.2998C60.3161 71.5062 60.1745 71.6903 60.001 71.8413C59.8275 71.9922 59.6256 72.107 59.4071 72.1788C59.1886 72.2506 58.958 72.278 58.7288 72.2594V70.2813L59.1812 69.8815C59.9703 69.8815 60.2333 69.5659 60.2333 68.8294V67.3984H62.3376V68.8188C62.3376 69.6395 62.5691 69.871 63.3161 69.871V71.7964L62.8111 72.2594ZM60.1281 74.9318C60.0118 74.945 59.8941 74.9334 59.7826 74.8979C59.671 74.8624 59.5683 74.8037 59.481 74.7258C59.3937 74.6478 59.3239 74.5523 59.2761 74.4455C59.2283 74.3386 59.2036 74.2229 59.2036 74.1059C59.2036 73.9889 59.2283 73.8732 59.2761 73.7663C59.3239 73.6595 59.3937 73.564 59.481 73.486C59.5683 73.4081 59.671 73.3494 59.7826 73.3139C59.8941 73.2784 60.0118 73.2668 60.1281 73.28C60.3311 73.3029 60.5185 73.3998 60.6546 73.5522C60.7907 73.7045 60.866 73.9016 60.866 74.1059C60.866 74.3102 60.7907 74.5073 60.6546 74.6597C60.5185 74.812 60.3311 74.9089 60.1281 74.9318ZM62.0536 74.9318C61.9373 74.945 61.8195 74.9334 61.708 74.8979C61.5965 74.8624 61.4937 74.8037 61.4064 74.7258C61.3192 74.6478 61.2493 74.5523 61.2015 74.4455C61.1537 74.3386 61.129 74.2229 61.129 74.1059C61.129 73.9889 61.1537 73.8732 61.2015 73.7663C61.2493 73.6595 61.3192 73.564 61.4064 73.486C61.4937 73.4081 61.5965 73.3494 61.708 73.3139C61.8195 73.2784 61.9373 73.2668 62.0536 73.28C62.2565 73.3029 62.444 73.3998 62.5801 73.5522C62.7162 73.7045 62.7914 73.9016 62.7914 74.1059C62.7914 74.3102 62.7162 74.5073 62.5801 74.6597C62.444 74.812 62.2565 74.9089 62.0536 74.9318Z" fill="#0020F6"/>
<path d="M62.7977 72.253V70.275L63.2501 69.8752C64.0076 69.8752 64.197 69.6647 64.197 68.823V62.8047H66.4276V68.8125C66.4276 71.1693 65.5333 72.253 63.5868 72.253H62.7977Z" fill="#0020F6"/>
<path d="M69.5321 75.3772C68.8553 75.3712 68.1813 75.2901 67.5225 75.1352V72.9573C68.1605 73.1077 68.8135 73.1854 69.469 73.1887C70.8683 73.1887 71.5733 72.9362 71.7521 72.1366C71.2157 72.3704 70.6319 72.4749 70.0477 72.4417C69.6785 72.4819 69.3051 72.4398 68.9541 72.3186C68.6032 72.1973 68.2834 71.9998 68.0179 71.7403C67.7523 71.4807 67.5475 71.1656 67.4182 70.8176C67.2889 70.4695 67.2383 70.0971 67.27 69.7271C67.2483 68.8976 67.5445 68.0912 68.0981 67.4731C68.6517 66.8549 69.4207 66.4719 70.2476 66.4023C71.9521 66.4023 73.2252 68.0858 73.2252 71.0739C73.2252 73.5254 72.2256 75.3877 69.5321 75.3877M69.953 70.0533C70.514 70.0697 71.075 70.0238 71.6259 69.9165C71.4866 69.5482 71.2321 69.2346 70.9005 69.0223C70.5688 68.8101 70.1775 68.7104 69.7846 68.7381C69.1323 68.7381 68.7325 69.0643 68.7325 69.4641C68.7325 69.8639 69.1323 70.0533 69.9425 70.0533" fill="#0020F6"/>
<path d="M79.6197 72.1612C79.5931 72.6075 79.4778 73.044 79.2807 73.4452C79.0836 73.8464 78.8086 74.2044 78.4717 74.4982C78.1348 74.792 77.7427 75.0158 77.3184 75.1565C76.8941 75.2972 76.446 75.352 76.0003 75.3177C75.3235 75.3117 74.6495 75.2306 73.9907 75.0757V72.9503C74.6287 73.1008 75.2817 73.1785 75.9371 73.1818C77.2629 73.1818 77.9152 72.9609 78.1782 72.2559H76.6105C74.7693 72.2559 73.7381 71.2669 73.7381 69.6782C73.7009 68.846 73.9941 68.0329 74.5538 67.416C75.1136 66.7991 75.8944 66.4285 76.7263 66.3849C78.1782 66.3849 79.3251 67.6265 79.6197 69.8781H79.9564V71.8035L79.6197 72.1612ZM75.0954 65.9009V64.7541H75.4952C75.3285 64.5336 75.243 64.2623 75.2532 63.986C75.2517 63.8024 75.2874 63.6203 75.3582 63.4509C75.4291 63.2815 75.5336 63.1282 75.6654 63.0003C75.7972 62.8724 75.9536 62.7726 76.1251 62.707C76.2966 62.6413 76.4796 62.6111 76.6631 62.6182C76.8229 62.6209 76.9806 62.6553 77.1271 62.7193C77.2735 62.7833 77.4059 62.8757 77.5164 62.9911C77.6269 63.1066 77.7135 63.2428 77.7711 63.3919C77.8288 63.5409 77.8563 63.7 77.8521 63.8597L77.1366 63.9439C77.0724 63.8644 76.9904 63.801 76.8971 63.759C76.8039 63.7169 76.7021 63.6974 76.6 63.7019C76.2633 63.7019 76.095 63.8177 76.095 64.0386C76.095 64.2596 76.5158 64.5542 77.0524 64.4595L78.1046 64.3122V65.4695L75.0954 65.9009ZM78.0835 69.8781C77.942 69.4935 77.6828 69.1635 77.3427 68.9349C77.0027 68.7063 76.5992 68.5908 76.1897 68.605C75.6215 68.605 75.2112 68.9206 75.2112 69.3204C75.2112 69.7202 75.5373 69.8781 76.2633 69.8781H78.0835Z" fill="#0020F6"/>
<path d="M88.0302 70.7549C87.9039 71.8071 87.3252 72.4279 86.4099 72.4279C86.015 72.4412 85.6294 72.306 85.3294 72.0488C85.0294 71.7917 84.8367 71.4313 84.7895 71.039C84.7788 71.2326 84.73 71.4221 84.6458 71.5967C84.5617 71.7713 84.4439 71.9277 84.2993 72.0567C84.1546 72.1857 83.9859 72.2849 83.8028 72.3486C83.6197 72.4123 83.4259 72.4392 83.2324 72.4279C82.7897 72.4548 82.3536 72.3102 82.0147 72.0242C81.6758 71.7382 81.46 71.3326 81.4121 70.8917C81.3348 71.3225 81.0927 71.7063 80.7372 71.9617C80.3817 72.217 79.9407 72.3238 79.5078 72.2595V70.2815L79.9602 69.8816C80.7072 69.8816 81.0123 69.6081 81.0123 68.8295V68.2298H83.1166V68.8295C83.1166 69.566 83.306 69.8816 83.7374 69.8816C84.1688 69.8816 84.3266 69.545 84.3266 68.8295V68.2298H86.4309V68.8295C86.4309 69.566 86.6308 69.8816 87.0201 69.8816C87.4094 69.8816 87.6198 69.5344 87.6198 68.8295V67.7773H89.7241V68.8295C89.7241 69.5555 89.9977 69.8816 90.6921 69.8816V71.8071L90.2502 72.2595C89.7741 72.3223 89.2918 72.2018 88.9012 71.9225C88.5105 71.6431 88.2405 71.2258 88.1459 70.7549" fill="#0020F6"/>
<path d="M96.2823 70.8333C96.1534 71.2575 95.9009 71.6336 95.5572 71.9137C95.2135 72.1938 94.7942 72.365 94.3527 72.4057C93.9112 72.4463 93.4676 72.3545 93.0786 72.1419C92.6895 71.9293 92.3726 71.6056 92.1684 71.2121C91.9514 71.567 91.6391 71.8538 91.2671 72.0398C90.895 72.2258 90.4782 72.3036 90.0641 72.2642V70.2757L90.5165 69.8758C91.1057 69.8758 91.3372 69.6865 91.6423 69.0446L92.0842 68.1608C92.2758 67.6583 92.6097 67.2224 93.0451 66.9066C93.4805 66.5908 93.9985 66.4088 94.5357 66.3827C95.1699 66.35 95.7969 66.5299 96.3172 66.8939C96.8376 67.258 97.2215 67.7853 97.4081 68.3923L97.5028 68.6238C97.9447 69.5812 98.2288 69.8443 98.7654 69.8443V71.7697L98.3235 72.2221C97.8765 72.233 97.4377 72.1011 97.0706 71.8457C96.7036 71.5903 96.4275 71.2246 96.2823 70.8017M94.2411 70.0021C94.7616 70.0777 95.2922 69.9738 95.7457 69.7075C95.6219 69.3919 95.3992 69.1249 95.1108 68.9466C94.8225 68.7683 94.4841 68.6882 94.1464 68.7185C93.4941 68.7185 93.0312 69.0657 93.0312 69.4445C93.0312 69.8232 93.4099 70.0337 94.2096 70.0337" fill="#0020F6"/>
<path d="M102.423 72.253C101.065 72.253 100.318 71.6638 100.119 70.5696C100.115 70.8003 100.064 71.0279 99.9703 71.2387C99.8764 71.4495 99.7408 71.6392 99.5719 71.7963C99.4029 71.9535 99.2039 72.075 98.9869 72.1535C98.7699 72.2319 98.5393 72.2658 98.3088 72.253V70.275L98.7613 69.8752C99.4767 69.8752 99.7187 69.5595 99.7187 68.823V62.8047H101.939V68.8125C101.939 69.6752 102.139 69.8646 102.875 69.8646V71.7901L102.423 72.253Z" fill="#0020F6"/>
<path d="M102.425 72.253V70.275L102.877 69.8752C103.635 69.8752 103.824 69.6647 103.824 68.823V62.8047H106.054V68.8125C106.054 71.1693 105.16 72.253 103.224 72.253H102.425Z" fill="#0020F6"/>
<path d="M113.872 75.4545C110.715 75.4545 109.253 74.1498 109.253 71.4353C109.259 70.8488 109.319 70.2642 109.432 69.6887H111.441C111.36 70.1192 111.315 70.5555 111.305 70.9934C111.305 72.3612 112.241 72.9714 114.261 72.9714C115.818 72.9714 116.986 72.7189 116.986 72.3506C116.986 71.9824 116.649 71.9508 115.692 71.814L114.44 71.6562C113.041 71.4563 112.409 70.7829 112.409 69.5519C112.409 67.658 114.608 65.8694 116.734 65.8694C118.375 65.8694 119.269 66.5217 120.237 68.3104L120.658 69.0784C120.746 69.3316 120.918 69.5465 121.147 69.6866C121.375 69.8266 121.645 69.8832 121.91 69.8465V71.772L121.458 72.2244C120.258 72.2244 119.648 71.9508 118.922 70.5094L118.575 69.836C118.391 69.3242 118.039 68.8896 117.577 68.6031C117.115 68.3165 116.569 68.1948 116.029 68.2578C114.977 68.2578 114.177 68.5208 114.177 68.9417C114.177 69.1942 114.366 69.2994 115.008 69.3836L116.292 69.573C118.165 69.8044 118.817 70.4778 118.817 71.8982C118.817 74.1288 116.66 75.4229 113.872 75.4229M112.756 78.0954C112.557 78.0995 112.361 78.0439 112.193 77.9357C112.026 77.8275 111.894 77.6716 111.816 77.4882C111.738 77.3047 111.716 77.102 111.754 76.9062C111.792 76.7103 111.888 76.5303 112.029 76.3893C112.17 76.2482 112.35 76.1526 112.546 76.1147C112.742 76.0768 112.944 76.0984 113.128 76.1766C113.311 76.2549 113.467 76.3862 113.575 76.5538C113.684 76.7214 113.739 76.9175 113.735 77.1169C113.735 77.3764 113.632 77.6253 113.448 77.8088C113.265 77.9923 113.016 78.0954 112.756 78.0954ZM115.019 78.0954C114.82 78.0974 114.624 78.04 114.458 77.9305C114.292 77.821 114.162 77.6644 114.086 77.4807C114.009 77.297 113.989 77.0946 114.028 76.8995C114.067 76.7043 114.164 76.5253 114.305 76.3853C114.447 76.2454 114.627 76.1508 114.822 76.1138C115.018 76.0768 115.22 76.099 115.403 76.1776C115.586 76.2561 115.741 76.3875 115.849 76.5549C115.956 76.7222 116.012 76.9179 116.008 77.1169C116.008 77.2463 115.982 77.3744 115.932 77.4938C115.882 77.6132 115.809 77.7215 115.717 77.8125C115.625 77.9035 115.516 77.9754 115.396 78.0239C115.276 78.0725 115.148 78.0968 115.019 78.0954ZM116.681 65.2381C116.546 65.2499 116.41 65.2332 116.282 65.1892C116.154 65.1452 116.037 65.0748 115.938 64.9826C115.838 64.8904 115.76 64.7784 115.706 64.6538C115.653 64.5293 115.627 64.395 115.629 64.2596C115.577 64.1016 115.563 63.9335 115.589 63.7691C115.614 63.6048 115.679 63.4488 115.776 63.3141C115.874 63.1793 116.002 63.0696 116.15 62.994C116.298 62.9183 116.462 62.8789 116.628 62.8789C116.795 62.8789 116.959 62.9183 117.107 62.994C117.255 63.0696 117.383 63.1793 117.481 63.3141C117.578 63.4488 117.642 63.6048 117.668 63.7691C117.694 63.9335 117.68 64.1016 117.628 64.2596C117.631 64.3898 117.607 64.5192 117.558 64.64C117.51 64.7607 117.437 64.8702 117.344 64.9618C117.252 65.0534 117.141 65.1251 117.02 65.1726C116.899 65.2201 116.769 65.2424 116.639 65.2381" fill="#0020F6"/>
<path d="M121.453 72.253V70.3171L121.905 69.8752H122.484L122.821 69.2544V62.8047H125.041V66.6977C125.798 66.1442 126.713 65.8491 127.65 65.8559C128.069 65.8412 128.486 65.9128 128.875 66.0663C129.265 66.2197 129.619 66.4517 129.915 66.7477C130.211 67.0438 130.443 67.3977 130.596 67.7873C130.75 68.1769 130.821 68.5939 130.807 69.0124C130.807 71.1167 128.976 72.2741 125.251 72.2741L121.453 72.253ZM124.02 69.8752H125.662C128.387 69.8752 129.197 69.6752 129.197 69.065C129.197 68.6441 128.565 68.2338 127.598 68.2338C126.921 68.251 126.255 68.4053 125.64 68.6875C125.026 68.9696 124.474 69.3737 124.02 69.8752Z" fill="#0020F6"/>
<path d="M137.146 72.163C137.121 72.6088 137.007 73.0451 136.811 73.4462C136.615 73.8474 136.341 74.2055 136.004 74.4994C135.668 74.7934 135.277 75.0173 134.853 75.1581C134.43 75.2989 133.982 75.3538 133.537 75.3195C132.859 75.3315 132.181 75.268 131.517 75.1301V72.9521C132.158 73.1028 132.815 73.1805 133.474 73.1836C134.789 73.1836 135.452 72.9627 135.715 72.2577H134.137C132.295 72.2577 131.264 71.2687 131.264 69.68C131.227 68.8478 131.52 68.0347 132.08 67.4178C132.64 66.8009 133.421 66.4303 134.252 66.3867C135.715 66.3867 136.862 67.6283 137.146 69.8799H137.482V71.8053L137.146 72.163ZM135.61 69.8799C135.47 69.4962 135.213 69.1664 134.875 68.9378C134.536 68.7091 134.134 68.5933 133.726 68.6068C133.158 68.6068 132.737 68.9224 132.737 69.3222C132.737 69.722 133.063 69.8799 133.789 69.8799H135.61Z" fill="#0020F6"/>
<path d="M137.027 72.253V70.275L137.479 69.8752C138.237 69.8752 138.426 69.6647 138.426 68.823V62.8047H140.657V68.8125C140.657 71.1693 139.763 72.253 137.827 72.253H137.027Z" fill="#0020F6"/>
<path d="M144.098 62.8203H141.878V72.2686H144.098V62.8203Z" fill="#0020F6"/>
<path d="M151.834 75.5538C148.793 75.5538 147.31 74.1123 147.31 71.3452C147.316 70.6656 147.394 69.9885 147.541 69.3251H149.561C149.444 69.8788 149.38 70.4425 149.372 71.0085C149.372 72.5236 150.171 73.218 152.213 73.218C153.591 73.218 154.527 72.9339 154.801 72.008C154.295 72.1735 153.765 72.2483 153.233 72.229C151.529 72.229 150.498 71.4399 150.498 69.7775C150.467 68.946 150.757 68.1345 151.307 67.5101C151.857 66.8857 152.626 66.496 153.454 66.4211C155.138 66.4211 156.348 68.1151 156.348 70.9664C156.348 74.1229 154.927 75.5959 151.834 75.5959M152.223 65.7477C152.084 65.7621 151.943 65.747 151.81 65.7036C151.677 65.6602 151.555 65.5893 151.451 65.4956C151.347 65.4018 151.264 65.2874 151.207 65.1595C151.151 65.0317 151.121 64.8934 151.121 64.7534C151.121 64.6135 151.151 64.4752 151.207 64.3474C151.264 64.2195 151.347 64.1051 151.451 64.0113C151.555 63.9176 151.677 63.8468 151.81 63.8033C151.943 63.7599 152.084 63.7448 152.223 63.7592C152.469 63.7845 152.697 63.9002 152.863 64.0839C153.029 64.2675 153.12 64.5061 153.12 64.7534C153.12 65.0008 153.029 65.2394 152.863 65.423C152.697 65.6067 152.469 65.7224 152.223 65.7477ZM153.128 70.051C153.642 70.0587 154.156 70.0235 154.664 69.9458C154.557 69.5918 154.336 69.2831 154.036 69.068C153.735 68.8529 153.371 68.7435 153.002 68.7569C152.37 68.7569 151.95 69.0831 151.95 69.4934C151.95 69.9037 152.349 70.051 153.096 70.051M154.454 65.7477C154.315 65.7621 154.174 65.747 154.041 65.7036C153.908 65.6602 153.786 65.5893 153.682 65.4956C153.578 65.4018 153.495 65.2874 153.438 65.1595C153.381 65.0317 153.352 64.8934 153.352 64.7534C153.352 64.6135 153.381 64.4752 153.438 64.3474C153.495 64.2195 153.578 64.1051 153.682 64.0113C153.786 63.9176 153.908 63.8468 154.041 63.8033C154.174 63.7599 154.315 63.7448 154.454 63.7592C154.7 63.7845 154.928 63.9002 155.093 64.0839C155.259 64.2675 155.351 64.5061 155.351 64.7534C155.351 65.0008 155.259 65.2394 155.093 65.423C154.928 65.6067 154.7 65.7224 154.454 65.7477Z" fill="#0020F6"/>
<path d="M159.295 75.3772C158.618 75.3712 157.944 75.2901 157.285 75.1352V72.9573C157.923 73.1077 158.576 73.1854 159.231 73.1887C160.631 73.1887 161.336 72.9362 161.515 72.1366C160.982 72.3707 160.402 72.4752 159.821 72.4417C159.451 72.4816 159.077 72.4395 158.726 72.3183C158.375 72.197 158.054 71.9997 157.788 71.7404C157.522 71.4811 157.316 71.1662 157.185 70.8182C157.055 70.4702 157.002 70.0976 157.032 69.7271C157.011 68.896 157.309 68.0881 157.864 67.4697C158.42 66.8513 159.192 66.4693 160.021 66.4023C161.715 66.4023 162.988 68.0858 162.988 71.0739C162.988 73.5254 161.999 75.3877 159.295 75.3877M159.715 70.0533C160.276 70.0701 160.838 70.0242 161.388 69.9165C161.249 69.5482 160.995 69.2346 160.663 69.0223C160.331 68.8101 159.94 68.7104 159.547 68.7381C158.895 68.7381 158.495 69.0643 158.495 69.4641C158.495 69.8639 158.895 70.0533 159.705 70.0533" fill="#0020F6"/>
<path d="M170.58 72.2603C170.218 72.2949 169.853 72.23 169.525 72.0723C169.197 71.9147 168.918 71.6705 168.718 71.366C168.008 72.0339 167.073 72.4096 166.098 72.4181C164.152 72.4181 163.478 71.4501 163.478 69.3458H165.341C165.341 69.8193 165.562 70.0192 166.393 70.0192C166.924 70.0251 167.452 69.9506 167.961 69.7983C167.887 69.6089 167.813 69.3984 167.729 69.167L166.33 65.3477H168.834L169.886 68.3884C170.296 69.5878 170.444 69.8614 171.075 69.8614V71.7868L170.58 72.2603Z" fill="#0020F6"/>
<path d="M174.656 72.254C174.148 72.3243 173.633 72.1947 173.219 71.8924C172.805 71.5901 172.524 71.1388 172.436 70.6337C172.422 70.8628 172.362 71.0867 172.26 71.2925C172.158 71.4983 172.016 71.6818 171.843 71.8325C171.67 71.9832 171.469 72.098 171.251 72.1704C171.033 72.2427 170.803 72.2711 170.574 72.254V70.2759L171.026 69.8761C171.805 69.8761 172.078 69.5605 172.078 68.824V67.393H174.183V68.8134C174.183 69.6341 174.425 69.8656 175.172 69.8656V71.791L174.656 72.254ZM173.025 66.7197C172.867 66.7716 172.699 66.7853 172.535 66.7597C172.371 66.7341 172.215 66.6699 172.08 66.5724C171.945 66.4748 171.835 66.3467 171.76 66.1986C171.684 66.0504 171.645 65.8865 171.645 65.7201C171.645 65.5538 171.684 65.3898 171.76 65.2417C171.835 65.0935 171.945 64.9654 172.08 64.8679C172.215 64.7703 172.371 64.7061 172.535 64.6805C172.699 64.6549 172.867 64.6686 173.025 64.7206C173.236 64.7898 173.419 64.9236 173.549 65.1031C173.679 65.2826 173.749 65.4985 173.749 65.7201C173.749 65.9417 173.679 66.1576 173.549 66.3371C173.419 66.5166 173.236 66.6505 173.025 66.7197Z" fill="#0020F6"/>
<path d="M186.44 69.6868C186.808 69.8439 187.209 69.9089 187.608 69.8762V71.7806L187.156 72.2541C186.803 72.2838 186.45 72.2138 186.135 72.0519C185.821 71.89 185.558 71.6428 185.378 71.3387C184.052 72.1463 182.506 72.5145 180.959 72.3908C178.244 72.3908 176.845 71.6964 176.55 70.4444C176.553 70.6901 176.506 70.934 176.411 71.1606C176.316 71.3873 176.175 71.5919 175.997 71.7617C175.82 71.9315 175.609 72.0629 175.378 72.1476C175.147 72.2323 174.902 72.2685 174.656 72.2541V70.276L175.119 69.8762C175.908 69.8762 176.171 69.5606 176.171 68.8241V68.2559H178.034V68.8241C178.026 68.9682 178.056 69.112 178.12 69.2411C178.185 69.3703 178.282 69.4804 178.402 69.5606C179.77 67.088 181.411 65.8359 183.41 65.8359C183.879 65.8408 184.341 65.95 184.762 66.1558C185.184 66.3615 185.554 66.6586 185.846 67.0254C186.139 67.3922 186.345 67.8194 186.452 68.2762C186.558 68.7329 186.561 69.2076 186.461 69.6658M179.696 69.9393C180.269 70.0001 180.845 70.0282 181.422 70.0235C184.157 70.0235 184.957 69.6553 184.957 69.045C184.957 68.6241 184.336 68.2138 183.358 68.2138C182.661 68.2334 181.976 68.3967 181.346 68.6937C180.716 68.9907 180.154 69.4148 179.696 69.9393Z" fill="#0020F6"/>
<path d="M187.15 72.253V70.275L187.603 69.8752C188.36 69.8752 188.55 69.6647 188.55 68.823V62.8047H190.78V68.8125C190.78 71.1693 189.886 72.253 187.939 72.253H187.15Z" fill="#0020F6"/>
<path d="M194.221 62.8203H192.001V72.2686H194.221V62.8203Z" fill="#0020F6"/>
</g>
</svg>
