<svg preserveAspectRatio="none" width="100%" height="100%" overflow="visible" style="display: block;" viewBox="0 0 1278 160" fill="none" xmlns="http://www.w3.org/2000/svg">
<g id="Frame" opacity="0.48" clip-path="url(#clip0_6535_164)">
<path id="Vector" d="M-285.475 -17.2904H-260.069V-33.2645H-285.475C-291.863 -33.1463 -297.95 -30.5278 -302.426 -25.972C-306.902 -21.4161 -309.41 -15.287 -309.41 -8.90293C-309.41 -2.51882 -306.902 3.61027 -302.426 8.16608C-297.95 12.7219 -291.863 15.3405 -285.475 15.4586H-260.069V-0.515497H-285.475C-287.655 -0.584214 -289.724 -1.49799 -291.242 -3.06344C-292.76 -4.62889 -293.609 -6.72314 -293.609 -8.90293C-293.609 -11.0827 -292.76 -13.177 -291.242 -14.7424C-289.724 -16.3079 -287.655 -17.2217 -285.475 -17.2904Z" fill="var(--fill-0, white)"/>
<path id="Vector_2" d="M-24.1693 248.734L-36.1748 236.747L-24.1693 224.76L-12.1805 236.747L-24.1693 248.734Z" fill="var(--fill-0, white)"/>
<path id="Vector_3" d="M-44.9624 158.232V183.574H-60.9502V158.232C-60.9502 151.77 -58.3809 145.572 -53.8075 141.003C-49.2341 136.434 -43.0313 133.866 -36.5635 133.866C-30.0958 133.866 -23.8929 136.434 -19.3195 141.003C-14.7462 145.572 -12.1769 151.77 -12.1769 158.232V183.574H-28.1647V158.232C-28.1647 156.007 -29.0496 153.872 -30.6247 152.298C-32.1998 150.725 -34.336 149.841 -36.5635 149.841C-38.791 149.841 -40.9273 150.725 -42.5024 152.298C-44.0775 153.872 -44.9624 156.007 -44.9624 158.232Z" fill="var(--fill-0, white)"/>
<path id="Vector_4" d="M-195.541 102.513H-279.654C-282.159 102.513 -287.043 98.7594 -287.043 94.1298C-287.038 91.9064 -286.152 89.7754 -284.577 88.2039C-283.003 86.6324 -280.869 85.7488 -278.644 85.7466H-252.988C-247.045 85.7399 -241.347 83.3781 -237.145 79.1793C-232.942 74.9805 -230.579 69.2875 -230.572 63.3495V-10.8904C-230.57 -12.5947 -229.891 -14.2284 -228.684 -15.4327C-227.477 -16.637 -225.841 -17.3134 -224.135 -17.3134H-198.479C-192.014 -17.3156 -185.813 -19.8806 -181.238 -24.4455C-176.663 -29.0104 -174.087 -35.2023 -174.076 -41.6624C-174.076 -55.0923 -185.013 -66.0198 -194.572 -66.0198H-281.591C-290.107 -66.0198 -293.864 -69.7902 -293.864 -74.3613C-293.864 -78.9325 -290.123 -82.803 -281.591 -82.803H-198.479C-193.656 -82.8047 -188.942 -84.2353 -184.932 -86.914C-180.923 -89.5927 -177.798 -93.3992 -175.954 -97.8521C-174.11 -102.305 -173.629 -107.204 -174.571 -111.93C-175.514 -116.657 -177.838 -120.997 -181.25 -124.404C-184.661 -127.81 -189.007 -130.129 -193.738 -131.068C-198.469 -132.006 -203.372 -131.522 -207.828 -129.676C-212.283 -127.831 -216.091 -124.706 -218.769 -120.699C-221.447 -116.691 -222.876 -111.979 -222.874 -107.16V-98.7771H-281.591C-298.915 -98.7771 -309.852 -87.8413 -309.852 -74.4114C-309.852 -60.9815 -298.915 -50.054 -281.591 -50.054H-197.452C-194.948 -50.054 -190.056 -46.2837 -190.056 -41.7125C-190.058 -39.4954 -190.936 -37.3689 -192.5 -35.7958C-194.063 -34.2226 -196.185 -33.3301 -198.404 -33.3125H-224.168C-230.113 -33.3081 -235.813 -30.9473 -240.017 -26.7482C-244.222 -22.5491 -246.587 -16.8549 -246.593 -10.9154V63.3244C-246.598 65.0258 -247.277 66.6561 -248.481 67.8584C-249.686 69.0606 -251.319 69.7369 -253.022 69.7391H-278.644C-285.11 69.7457 -291.309 72.315 -295.881 76.883C-300.453 81.451 -303.024 87.6446 -303.031 94.1048C-303.031 107.543 -292.085 118.479 -282.534 118.479H-195.541C-187.025 118.479 -183.26 122.233 -183.26 126.862C-183.26 131.492 -187.025 135.245 -195.541 135.245H-278.644C-283.467 135.25 -288.18 136.683 -292.188 139.364C-296.196 142.044 -299.318 145.851 -301.162 150.303C-303.005 154.756 -303.486 159.655 -302.544 164.381C-301.602 169.106 -299.279 173.447 -295.869 176.854C-292.459 180.262 -288.114 182.583 -283.384 183.524C-278.654 184.465 -273.752 183.985 -269.295 182.143C-264.838 180.301 -261.028 177.181 -258.346 173.177C-255.663 169.172 -254.229 164.463 -254.224 159.644V151.303H-195.516C-178.192 151.303 -167.247 140.367 -167.247 126.929C-167.247 113.491 -178.25 102.513 -195.541 102.513ZM-206.887 -107.16C-206.888 -108.82 -206.397 -110.443 -205.476 -111.824C-204.554 -113.205 -203.244 -114.282 -201.71 -114.918C-200.175 -115.555 -198.487 -115.723 -196.857 -115.401C-195.228 -115.079 -193.731 -114.281 -192.555 -113.108C-191.379 -111.936 -190.578 -110.441 -190.252 -108.814C-189.926 -107.187 -190.091 -105.499 -190.725 -103.965C-191.359 -102.431 -192.434 -101.119 -193.815 -100.196C-195.195 -99.2725 -196.818 -98.7787 -198.479 -98.7771H-206.887V-107.16ZM-270.195 159.644C-270.185 161.306 -270.669 162.933 -271.586 164.319C-272.502 165.706 -273.81 166.789 -275.343 167.432C-276.876 168.075 -278.566 168.249 -280.198 167.932C-281.831 167.614 -283.332 166.82 -284.512 165.649C-285.692 164.478 -286.497 162.984 -286.826 161.355C-287.156 159.727 -286.993 158.037 -286.36 156.501C-285.728 154.964 -284.652 153.65 -283.271 152.725C-281.89 151.799 -280.265 151.305 -278.602 151.303H-270.195V159.644Z" fill="var(--fill-0, white)"/>
<path id="Vector_5" d="M-259.871 47.873L-271.859 59.8599L-283.856 47.873L-271.859 35.8779L-259.871 47.873Z" fill="var(--fill-0, white)"/>
<path id="Vector_6" d="M-259.871 214.625L-271.859 226.611L-283.856 214.625L-271.859 202.629L-259.871 214.625Z" fill="var(--fill-0, white)"/>
<path id="Vector_7" d="M-259.869 257.166L-271.857 269.161L-283.854 257.166L-271.857 245.179L-259.869 257.166Z" fill="var(--fill-0, white)"/>
<path id="Vector_8" d="M-138.909 -66.9153L-150.906 -54.9201L-162.895 -66.9153L-150.906 -78.9021L-138.909 -66.9153Z" fill="var(--fill-0, white)"/>
<path id="Vector_9" d="M-75.9163 -66.9136L-87.9135 -54.9184L-99.9189 -66.9136L-87.9135 -78.9004L-75.9163 -66.9136Z" fill="var(--fill-0, white)"/>
<path id="Vector_10" d="M-186.595 245.545V200.676H-170.599V245.545C-170.717 251.93 -173.339 258.014 -177.9 262.488C-182.462 266.962 -188.598 269.468 -194.99 269.468C-201.382 269.468 -207.518 266.962 -212.08 262.488C-216.641 258.014 -219.263 251.93 -219.381 245.545V220.212H-203.393V245.545C-203.393 247.771 -202.508 249.905 -200.933 251.479C-199.358 253.053 -197.222 253.937 -194.994 253.937C-192.767 253.937 -190.63 253.053 -189.055 251.479C-187.48 249.905 -186.595 247.771 -186.595 245.545Z" fill="var(--fill-0, white)"/>
<path id="Vector_11" d="M-36.933 59.3938H-45.3235V-58.5642C-45.3235 -60.7898 -44.4386 -62.9243 -42.8635 -64.498C-41.2885 -66.0717 -39.1522 -66.9558 -36.9247 -66.9558C-34.6972 -66.9558 -32.5609 -66.0717 -30.9858 -64.498C-29.4107 -62.9243 -28.5258 -60.7898 -28.5258 -58.5642V39.4658H-12.538V-58.5642C-12.538 -65.0264 -15.1073 -71.2239 -19.6807 -75.7934C-24.2541 -80.3628 -30.4569 -82.9299 -36.9247 -82.9299C-43.3924 -82.9299 -49.5953 -80.3628 -54.1686 -75.7934C-58.742 -71.2239 -61.3113 -65.0264 -61.3113 -58.5642V-25.9487C-63.9924 -26.9747 -66.8392 -27.5005 -69.7102 -27.5003C-83.1516 -27.5003 -94.0885 -16.5728 -94.0885 0.735911V84.7521C-94.0885 87.2546 -97.8621 92.151 -102.496 92.151C-104.722 92.1466 -106.857 91.2597 -108.43 89.6849C-110.003 88.1101 -110.886 85.976 -110.886 83.7511V58.1342C-110.884 52.1867 -113.246 46.4818 -117.453 42.274C-121.659 38.0661 -127.367 35.6998 -133.319 35.6954H-195.501C-201.891 35.8135 -207.98 38.433 -212.458 42.9904C-216.936 47.5478 -219.444 53.6789 -219.444 60.0652C-219.444 66.4516 -216.936 72.5828 -212.458 77.1401C-207.98 81.6975 -201.891 84.317 -195.501 84.4351H-170.137V68.4777H-195.501C-196.625 68.5131 -197.746 68.3224 -198.795 67.9169C-199.845 67.5113 -200.802 66.8992 -201.61 66.1168C-202.418 65.3345 -203.061 64.3979 -203.499 63.3626C-203.938 62.3273 -204.164 61.2145 -204.164 60.0903C-204.164 58.966 -203.938 57.8532 -203.499 56.8179C-203.061 55.7827 -202.418 54.8461 -201.61 54.0637C-200.802 53.2814 -199.845 52.6692 -198.795 52.2637C-197.746 51.8581 -196.625 51.6674 -195.501 51.7028H-133.319C-131.613 51.705 -129.977 52.3833 -128.77 53.589C-127.563 54.7946 -126.885 56.4292 -126.882 58.1342V83.7511C-126.878 90.2112 -124.309 96.4058 -119.738 100.975C-115.168 105.545 -108.97 108.116 -102.504 108.125C-89.0458 108.125 -78.109 97.1894 -78.109 87.6299V0.735911C-78.109 -7.77248 -74.3437 -11.5262 -69.7185 -11.5262C-65.0933 -11.5262 -61.3698 -7.78916 -61.3113 0.669177V83.7511C-61.313 88.5709 -59.8839 93.2829 -57.2049 97.2911C-54.5259 101.299 -50.7173 104.424 -46.2609 106.269C-41.8045 108.114 -36.9004 108.597 -32.1691 107.657C-27.4378 106.717 -23.0917 104.397 -19.6807 100.989C-16.2697 97.5805 -13.9469 93.2382 -13.0062 88.5109C-12.0655 83.7836 -12.5491 78.8838 -14.3959 74.4312C-16.2427 69.9787 -19.3697 66.1733 -23.3814 63.4966C-27.393 60.8199 -32.1091 59.3921 -36.933 59.3938ZM-36.933 92.151C-39.1598 92.1466 -41.2939 91.2597 -42.867 89.6849C-44.44 88.1101 -45.3235 85.976 -45.3235 83.7511V75.3678H-36.933C-34.7055 75.3678 -32.5692 76.2519 -30.9941 77.8257C-29.4191 79.3994 -28.5342 81.5338 -28.5342 83.7594C-28.5342 85.985 -29.4191 88.1195 -30.9941 89.6932C-32.5692 91.2669 -34.7055 92.151 -36.933 92.151Z" fill="var(--fill-0, white)"/>
<path id="Vector_12" d="M-0.681851 -114.149H-104.315C-110.257 -114.14 -115.954 -111.778 -120.156 -107.579C-124.358 -103.381 -126.722 -97.6893 -126.731 -91.752V-42.3866V-7.35205C-126.8 -5.17335 -127.714 -3.10688 -129.281 -1.59003C-130.848 -0.0731766 -132.944 0.775012 -135.126 0.775012C-137.307 0.775012 -139.403 -0.0731766 -140.97 -1.59003C-142.537 -3.10688 -143.452 -5.17335 -143.52 -7.35205V-32.7021H-159.517V-7.36039C-159.398 -0.975175 -156.777 5.10861 -152.215 9.58245C-147.654 14.0563 -141.518 16.5628 -135.126 16.5628C-128.734 16.5628 -122.597 14.0563 -118.036 9.58245C-113.475 5.10861 -110.853 -0.975175 -110.735 -7.36039V-42.3949V-91.752C-110.733 -93.4533 -110.056 -95.0845 -108.853 -96.2883C-107.649 -97.4922 -106.018 -98.1705 -104.315 -98.175H-0.681851C1.02098 -98.1705 2.65267 -97.4922 3.85597 -96.2883C5.05927 -95.0845 5.73613 -93.4533 5.73833 -91.752V184.003H21.7428V-91.752C21.734 -97.6908 19.3683 -103.384 15.1645 -107.582C10.9608 -111.781 5.26207 -114.142 -0.681851 -114.149Z" fill="var(--fill-0, white)"/>
<path id="Vector_13" d="M-154.285 85.4061V161.439C-154.287 163.143 -154.965 164.776 -156.17 165.982C-157.374 167.187 -159.008 167.866 -160.713 167.871H-223.396C-229.339 167.873 -235.039 170.232 -239.244 174.43C-243.448 178.627 -245.814 184.321 -245.82 190.26V269.563H-229.832V190.26C-229.826 188.557 -229.145 186.927 -227.939 185.725C-226.733 184.523 -225.099 183.847 -223.396 183.845H-160.713C-154.769 183.838 -149.07 181.475 -144.867 177.275C-140.664 173.074 -138.301 167.379 -138.297 161.439V85.4061H-154.285Z" fill="var(--fill-0, white)"/>
<path id="Vector_14" d="M259.272 104.42L271.27 116.406L283.267 104.42L271.27 92.4412L259.272 104.42Z" fill="var(--fill-0, white)"/>
<path id="Vector_15" d="M349.859 125.2H324.495V141.174H349.859C356.326 141.174 362.529 138.607 367.103 134.038C371.676 129.468 374.245 123.271 374.245 116.809C374.245 110.346 371.676 104.149 367.103 99.5795C362.529 95.0101 356.326 92.443 349.859 92.443H324.495V108.417H349.859C352.086 108.417 354.222 109.301 355.797 110.875C357.373 112.449 358.257 114.583 358.257 116.809C358.257 119.034 357.373 121.169 355.797 122.742C354.222 124.316 352.086 125.2 349.859 125.2Z" fill="var(--fill-0, white)"/>
<path id="Vector_16" d="M88.5528 -140.838L100.558 -128.842L88.5528 -116.856L76.5557 -128.842L88.5528 -140.838Z" fill="var(--fill-0, white)"/>
<path id="Vector_17" d="M109.35 -50.3344V-75.6677H125.337V-50.3344C125.219 -43.9492 122.597 -37.8654 118.036 -33.3916C113.475 -28.9177 107.338 -26.4113 100.946 -26.4113C94.5547 -26.4113 88.4182 -28.9177 83.8569 -33.3916C79.2956 -37.8654 76.6739 -43.9492 76.5557 -50.3344V-75.6677H92.5518V-50.3344C92.5518 -48.1088 93.4367 -45.9744 95.0118 -44.4006C96.5869 -42.8269 98.7232 -41.9428 100.951 -41.9428C103.178 -41.9428 105.314 -42.8269 106.89 -44.4006C108.465 -45.9744 109.35 -48.1088 109.35 -50.3344Z" fill="var(--fill-0, white)"/>
<path id="Vector_18" d="M345.93 157.951H261.833C259.329 157.951 254.428 154.18 254.428 149.559C254.432 147.334 255.32 145.202 256.896 143.63C258.472 142.058 260.608 141.176 262.835 141.176H288.482C294.427 141.169 300.126 138.806 304.329 134.605C308.532 130.405 310.894 124.71 310.899 118.77V44.5304C310.901 42.829 311.578 41.1978 312.781 39.994C313.985 38.7902 315.616 38.1118 317.319 38.1074H342.975C349.439 38.1008 355.637 35.5327 360.208 30.9665C364.78 26.4002 367.353 20.2087 367.361 13.75C367.361 0.311773 356.416 -10.624 346.865 -10.624H259.871C251.372 -10.624 247.599 -14.3777 247.599 -19.0073C247.599 -23.6369 251.372 -27.3488 259.871 -27.3488H342.975C347.8 -27.3472 352.517 -28.7753 356.53 -31.4526C360.543 -34.1298 363.671 -37.9359 365.519 -42.3896C367.366 -46.8432 367.851 -51.7443 366.91 -56.4729C365.97 -61.2016 363.647 -65.5454 360.236 -68.955C356.825 -72.3646 352.478 -74.6868 347.745 -75.628C343.013 -76.5691 338.108 -76.0869 333.649 -74.2424C329.191 -72.3978 325.381 -69.2737 322.7 -65.2652C320.019 -61.2568 318.588 -56.544 318.588 -51.7229V-43.3313H259.871C242.548 -43.3313 231.603 -32.4038 231.603 -18.9656C231.603 -5.52732 242.548 5.39178 259.871 5.39178H343.985C346.49 5.39178 351.374 9.16217 351.374 13.7917C351.371 16.0159 350.485 18.1482 348.911 19.7201C347.336 21.292 345.201 22.175 342.975 22.175H317.319C311.377 22.1838 305.68 24.5463 301.478 28.7447C297.276 32.9431 294.912 38.6347 294.903 44.5721V118.812C294.9 120.516 294.223 122.149 293.018 123.354C291.813 124.56 290.179 125.239 288.474 125.243H262.835C256.369 125.248 250.17 127.815 245.596 132.381C241.023 136.948 238.449 143.141 238.44 149.601C238.44 163.039 249.385 173.966 258.953 173.966H345.93C354.446 173.966 358.211 177.728 358.211 182.35C358.211 186.971 354.446 190.75 345.93 190.75H262.835C258.009 190.75 253.291 192.181 249.279 194.861C245.267 197.542 242.141 201.352 240.298 205.808C238.454 210.265 237.976 215.168 238.923 219.896C239.87 224.625 242.2 228.966 245.618 232.371C249.036 235.776 253.388 238.09 258.124 239.022C262.859 239.954 267.765 239.46 272.22 237.605C276.674 235.749 280.478 232.614 283.149 228.597C285.819 224.581 287.237 219.862 287.222 215.04V206.699H345.93C363.254 206.699 374.199 195.771 374.199 182.325C374.199 168.878 363.254 157.951 345.93 157.951ZM334.576 -51.7396C334.576 -53.3993 335.068 -55.0217 335.991 -56.4017C336.914 -57.7817 338.226 -58.8573 339.761 -59.4924C341.295 -60.1275 342.984 -60.2937 344.613 -59.9699C346.242 -59.6461 347.739 -58.8469 348.914 -57.6733C350.088 -56.4997 350.888 -55.0045 351.212 -53.3767C351.536 -51.7489 351.37 -50.0616 350.734 -48.5282C350.099 -46.9949 349.022 -45.6843 347.641 -44.7622C346.26 -43.8401 344.636 -43.348 342.975 -43.348H334.576V-51.7396ZM271.267 215.04C271.277 216.704 270.792 218.333 269.873 219.721C268.954 221.109 267.643 222.192 266.106 222.833C264.569 223.475 262.876 223.645 261.242 223.323C259.609 223.001 258.107 222.2 256.93 221.024C255.752 219.847 254.951 218.347 254.629 216.715C254.306 215.083 254.477 213.391 255.119 211.856C255.761 210.32 256.845 209.01 258.234 208.092C259.623 207.174 261.253 206.689 262.919 206.699H271.267V215.04Z" fill="var(--fill-0, white)"/>
<path id="Vector_19" d="M324.248 60.0293L336.245 48.0508L348.242 60.0293L336.245 72.0244L324.248 60.0293Z" fill="var(--fill-0, white)"/>
<path id="Vector_20" d="M324.248 -106.725L336.245 -118.711L348.242 -106.725L336.245 -94.7294L324.248 -106.725Z" fill="var(--fill-0, white)"/>
<path id="Vector_21" d="M324.248 -149.272L336.245 -161.251L348.242 -149.272L336.245 -137.277L324.248 -149.272Z" fill="var(--fill-0, white)"/>
<path id="Vector_22" d="M203.298 174.807L215.295 162.82L227.284 174.807L215.295 186.802L203.298 174.807Z" fill="var(--fill-0, white)"/>
<path id="Vector_23" d="M140.302 174.805L152.307 162.818L164.304 174.805L152.307 186.8L140.302 174.805Z" fill="var(--fill-0, white)"/>
<path id="Vector_24" d="M251.006 -137.64V-92.7629H235.01V-137.64C235.128 -144.026 237.75 -150.109 242.311 -154.583C246.872 -159.057 253.009 -161.564 259.401 -161.564C265.792 -161.564 271.929 -159.057 276.49 -154.583C281.051 -150.109 283.673 -144.026 283.791 -137.64V-112.299H267.804V-137.64C267.804 -139.866 266.919 -142 265.344 -143.574C263.769 -145.148 261.632 -146.032 259.405 -146.032C257.177 -146.032 255.041 -145.148 253.466 -143.574C251.891 -142 251.006 -139.866 251.006 -137.64Z" fill="var(--fill-0, white)"/>
<path id="Vector_25" d="M259.888 23.4405H234.541V39.4229H259.888C261.013 39.3875 262.133 39.5782 263.182 39.9838C264.232 40.3893 265.189 41.0014 265.997 41.7838C266.805 42.5661 267.448 43.5027 267.887 44.538C268.325 45.5733 268.552 46.6861 268.552 47.8103C268.552 48.9346 268.325 50.0474 267.887 51.0827C267.448 52.118 266.805 53.0546 265.997 53.8369C265.189 54.6193 264.232 55.2314 263.182 55.6369C262.133 56.0425 261.013 56.2332 259.888 56.1978H197.715C196.009 56.1934 194.374 55.5144 193.168 54.3092C191.962 53.1041 191.282 51.4708 191.278 49.7664V24.1412C191.271 17.6832 188.701 11.4917 184.13 6.92525C179.56 2.35879 173.363 -0.209558 166.9 -0.216183C153.442 -0.216183 142.505 10.7113 142.505 20.2623V107.165C142.505 115.673 138.739 119.427 134.114 119.427C129.489 119.427 125.707 115.673 125.707 107.165V24.1412C125.709 19.3197 124.279 14.6061 121.599 10.5965C118.919 6.58698 115.109 3.4616 110.651 1.61575C106.193 -0.230097 101.288 -0.713478 96.5548 0.226733C91.8219 1.16695 87.4744 3.48852 84.0621 6.89779C80.6499 10.3071 78.3264 14.6509 77.3853 19.3797C76.4443 24.1086 76.9281 29.0101 78.7755 33.4642C80.623 37.9183 83.7511 41.725 87.7641 44.4026C91.7771 47.0802 96.4948 48.5085 101.32 48.5069H109.719V166.498C109.719 168.724 108.834 170.858 107.259 172.432C105.684 174.006 103.548 174.89 101.32 174.89C99.0928 174.89 96.9566 174.006 95.3815 172.432C93.8064 170.858 92.9215 168.724 92.9215 166.498V68.4349H76.9254V166.498C77.0436 172.883 79.6653 178.967 84.2266 183.441C88.7879 187.915 94.9244 190.421 101.316 190.421C107.708 190.421 113.844 187.915 118.406 183.441C122.967 178.967 125.589 172.883 125.707 166.498V133.874C128.392 134.893 131.242 135.41 134.114 135.401C147.547 135.401 158.493 124.473 158.493 107.165V23.1318C158.493 20.6294 162.266 15.7579 166.9 15.7579C169.124 15.7623 171.255 16.647 172.828 18.2182C174.4 19.7894 175.286 21.9191 175.29 24.1412V49.7664C175.297 55.7067 177.662 61.4018 181.866 65.6022C186.07 69.8026 191.77 72.1653 197.715 72.1719H259.888C263.129 72.2318 266.349 71.6457 269.361 70.4479C272.373 69.2501 275.116 67.4646 277.429 65.1957C279.742 62.9268 281.58 60.2201 282.834 57.2336C284.088 54.2471 284.734 51.0408 284.734 47.802C284.734 44.5632 284.088 41.3569 282.834 38.3704C281.58 35.3839 279.742 32.6772 277.429 30.4083C275.116 28.1394 272.373 26.3539 269.361 25.1561C266.349 23.9583 263.129 23.3722 259.888 23.4321V23.4405ZM101.32 32.5328C99.6592 32.5328 98.0354 32.0406 96.6542 31.1185C95.273 30.1965 94.1965 28.8859 93.5608 27.3525C92.9252 25.8191 92.7588 24.1319 93.0829 22.5041C93.407 20.8762 94.2069 19.381 95.3815 18.2074C96.5561 17.0338 98.0526 16.2346 99.6818 15.9108C101.311 15.587 103 15.7532 104.534 16.3883C106.069 17.0235 107.381 18.099 108.304 19.479C109.227 20.859 109.719 22.4815 109.719 24.1412V32.5328H101.32Z" fill="var(--fill-0, white)"/>
<path id="Vector_26" d="M199.522 90.9324C193.057 90.939 186.858 93.5068 182.285 98.0728C177.712 102.639 175.138 108.83 175.127 115.29V150.324V199.69C175.122 201.393 174.442 203.026 173.236 204.229C172.03 205.433 170.395 206.11 168.69 206.113H65.0652C63.3624 206.108 61.7307 205.43 60.5274 204.226C59.3241 203.022 58.6473 201.391 58.6451 199.69V-76.0823H42.6572V199.656C42.6616 205.594 45.0236 211.287 49.2247 215.486C53.4259 219.685 59.1228 222.047 65.0652 222.053H168.69C174.634 222.047 180.332 219.685 184.536 215.487C188.74 211.288 191.106 205.595 191.114 199.656V190.155V115.29C191.114 113.066 191.998 110.934 193.572 109.362C195.146 107.79 197.28 106.906 199.505 106.906C201.73 106.906 203.864 107.79 205.438 109.362C207.011 110.934 207.895 113.066 207.895 115.29V140.631H223.9V115.29C223.889 108.833 221.317 102.644 216.748 98.0787C212.178 93.5132 205.984 90.9434 199.522 90.9324Z" fill="var(--fill-0, white)"/>
<path id="Vector_27" d="M294.226 -161.656V-82.3524C294.224 -81.5089 294.057 -80.6739 293.733 -79.895C293.409 -79.1162 292.934 -78.4087 292.337 -77.8131C291.739 -77.2174 291.03 -76.7452 290.249 -76.4234C289.469 -76.1017 288.633 -75.9366 287.789 -75.9377H225.106C219.165 -75.9311 213.469 -73.5718 209.266 -69.3769C205.063 -65.1819 202.695 -59.4932 202.682 -53.5573V22.476H218.678V-53.5573C218.68 -55.2609 219.358 -56.8942 220.563 -58.0996C221.767 -59.305 223.401 -59.9842 225.106 -59.9887H287.789C293.732 -59.9931 299.431 -62.3528 303.635 -66.55C307.839 -70.7473 310.205 -76.4394 310.213 -82.3774V-161.656H294.226Z" fill="var(--fill-0, white)"/>
<path id="Vector_28" d="M260.032 519.464L272.029 531.443L284.027 519.464L272.029 507.469L260.032 519.464Z" fill="var(--fill-0, white)"/>
<path id="Vector_29" d="M350.618 540.216H325.255V556.207H350.618C357.088 556.207 363.293 553.639 367.868 549.068C372.443 544.497 375.013 538.297 375.013 531.833C375.013 525.369 372.443 519.169 367.868 514.598C363.293 510.027 357.088 507.459 350.618 507.459H325.255V523.45H350.618C352.844 523.45 354.978 524.333 356.551 525.905C358.125 527.477 359.009 529.61 359.009 531.833C359.009 534.056 358.125 536.189 356.551 537.761C354.978 539.333 352.844 540.216 350.618 540.216Z" fill="var(--fill-0, white)"/>
<path id="Vector_30" d="M89.3136 274.2L101.319 286.187L89.3136 298.166L77.3164 286.187L89.3136 274.2Z" fill="var(--fill-0, white)"/>
<path id="Vector_31" d="M110.11 364.696V339.329H126.098V364.671C125.98 371.056 123.358 377.14 118.797 381.614C114.236 386.088 108.099 388.594 101.707 388.594C95.3155 388.594 89.179 386.088 84.6177 381.614C80.0564 377.14 77.4347 371.056 77.3164 364.671V339.329H93.3126V364.671C93.3126 366.896 94.1975 369.031 95.7726 370.605C97.3476 372.178 99.4839 373.062 101.711 373.062C103.939 373.062 106.075 372.178 107.65 370.605C109.225 369.031 110.11 366.896 110.11 364.671" fill="var(--fill-0, white)"/>
<path id="Vector_32" d="M346.732 572.972H262.627C260.123 572.972 255.23 569.218 255.23 564.588C255.246 562.371 256.138 560.249 257.713 558.686C259.288 557.124 261.418 556.247 263.637 556.247H289.276C295.222 556.24 300.922 553.877 305.126 549.677C309.33 545.477 311.694 539.782 311.701 533.841V459.601C311.703 457.901 312.38 456.271 313.584 455.068C314.787 453.866 316.419 453.189 318.121 453.187H343.777C350.243 453.18 356.442 450.611 361.014 446.043C365.586 441.475 368.157 435.281 368.164 428.821C368.164 415.391 357.218 404.455 347.667 404.455H260.682C252.183 404.455 248.409 400.685 248.409 396.064C248.409 391.443 252.183 387.722 260.682 387.722H343.785C348.608 387.722 353.323 386.293 357.333 383.616C361.343 380.939 364.469 377.135 366.315 372.683C368.161 368.231 368.644 363.332 367.704 358.606C366.764 353.88 364.442 349.538 361.032 346.13C357.622 342.722 353.278 340.401 348.548 339.46C343.818 338.519 338.915 339 334.459 340.843C330.002 342.686 326.193 345.808 323.513 349.814C320.832 353.819 319.4 358.529 319.399 363.348V371.748H260.682C243.358 371.748 232.413 382.676 232.413 396.106C232.413 409.535 243.358 420.404 260.682 420.404H344.795C347.3 420.404 352.184 424.167 352.184 428.796C352.182 431.021 351.296 433.154 349.722 434.727C348.147 436.301 346.012 437.185 343.785 437.188H318.13C312.188 437.194 306.491 439.555 302.289 443.752C298.087 447.949 295.722 453.64 295.713 459.576V533.816C295.707 535.518 295.026 537.149 293.82 538.351C292.613 539.553 290.98 540.229 289.276 540.231H263.637C257.169 540.238 250.968 542.808 246.395 547.377C241.821 551.947 239.249 558.143 239.242 564.605C239.242 578.043 250.179 588.962 259.747 588.962H346.732C355.248 588.962 359.005 592.733 359.005 597.362C359.005 601.992 355.248 605.704 346.732 605.704H263.637C258.814 605.702 254.098 607.13 250.087 609.806C246.075 612.483 242.948 616.287 241.101 620.739C239.254 625.192 238.77 630.091 239.71 634.818C240.65 639.545 242.972 643.887 246.382 647.296C249.792 650.704 254.138 653.026 258.868 653.966C263.599 654.907 268.503 654.425 272.959 652.581C277.416 650.737 281.225 647.614 283.905 643.607C286.585 639.6 288.016 634.889 288.016 630.07V621.703H346.732C364.056 621.703 374.993 610.767 374.993 597.346C374.993 583.924 364.056 572.972 346.732 572.972ZM335.336 363.281C335.338 361.622 335.832 360.001 336.755 358.622C337.679 357.244 338.991 356.169 340.525 355.535C342.059 354.901 343.747 354.736 345.376 355.06C347.004 355.384 348.5 356.183 349.674 357.356C350.848 358.529 351.648 360.024 351.972 361.651C352.297 363.278 352.131 364.964 351.496 366.497C350.862 368.03 349.786 369.341 348.407 370.264C347.027 371.186 345.404 371.68 343.744 371.681H335.336V363.281ZM272.028 630.095C272.028 631.755 271.535 633.377 270.612 634.758C269.689 636.138 268.376 637.213 266.841 637.848C265.306 638.483 263.617 638.649 261.987 638.324C260.358 638 258.861 637.2 257.687 636.025C256.513 634.851 255.714 633.355 255.391 631.727C255.067 630.098 255.235 628.411 255.872 626.878C256.509 625.344 257.587 624.034 258.969 623.113C260.351 622.192 261.976 621.701 263.637 621.703H272.028V630.095Z" fill="var(--fill-0, white)"/>
<path id="Vector_33" d="M325.019 475.062L337.007 463.084L349.005 475.062L337.007 487.049L325.019 475.062Z" fill="var(--fill-0, white)"/>
<path id="Vector_34" d="M325.019 308.314L337.007 296.327L349.005 308.314L337.007 320.292L325.019 308.314Z" fill="var(--fill-0, white)"/>
<path id="Vector_35" d="M325.008 265.763L337.005 253.785L349.002 265.763L337.005 277.75L325.008 265.763Z" fill="var(--fill-0, white)"/>
<path id="Vector_36" d="M204.056 589.845L216.053 577.867L228.042 589.845L216.053 601.832L204.056 589.845Z" fill="var(--fill-0, white)"/>
<path id="Vector_37" d="M141.062 589.845L153.067 577.867L165.064 589.845L153.067 601.832L141.062 589.845Z" fill="var(--fill-0, white)"/>
<path id="Vector_38" d="M251.757 277.391V322.252H235.77V277.391C235.888 271.006 238.51 264.922 243.071 260.448C247.632 255.974 253.769 253.468 260.16 253.468C266.552 253.468 272.689 255.974 277.25 260.448C281.811 264.922 284.433 271.006 284.551 277.391V302.716H268.563V277.391C268.495 275.21 267.579 273.142 266.011 271.623C264.442 270.105 262.344 269.256 260.16 269.256C257.977 269.256 255.878 270.105 254.31 271.623C252.742 273.142 251.826 275.21 251.757 277.391Z" fill="var(--fill-0, white)"/>
<path id="Vector_39" d="M260.647 438.467H235.292V454.441H260.647C262.875 454.441 265.011 455.325 266.586 456.899C268.161 458.473 269.046 460.607 269.046 462.833C269.046 465.058 268.161 467.193 266.586 468.767C265.011 470.34 262.875 471.224 260.647 471.224H198.466C196.762 471.222 195.129 470.546 193.923 469.344C192.716 468.142 192.036 466.512 192.029 464.81V439.176C192.025 432.716 189.455 426.521 184.885 421.952C180.314 417.382 174.116 414.811 167.651 414.802C154.192 414.802 143.256 425.738 143.256 435.297V522.191C143.256 530.7 139.49 534.47 134.865 534.47C130.24 534.47 126.475 530.7 126.475 522.191V439.176C126.475 434.357 125.044 429.646 122.365 425.639C119.685 421.632 115.876 418.509 111.42 416.665C106.964 414.821 102.061 414.339 97.3303 415.279C92.5998 416.219 88.2545 418.539 84.844 421.947C81.4334 425.355 79.1108 429.696 78.1699 434.423C77.2289 439.149 77.7118 444.048 79.5576 448.501C81.4034 452.953 84.5291 456.758 88.5394 459.436C92.5498 462.113 97.2647 463.542 102.088 463.542H110.487V581.517C110.487 583.742 109.602 585.877 108.027 587.45C106.452 589.024 104.315 589.908 102.088 589.908C99.8604 589.908 97.7242 589.024 96.1491 587.45C94.574 585.877 93.6891 583.742 93.6891 581.517V483.47H77.6846V581.517C77.6846 587.979 80.2539 594.176 84.8273 598.746C89.4007 603.315 95.6035 605.882 102.071 605.882C108.539 605.882 114.742 603.315 119.315 598.746C123.889 594.176 126.458 587.979 126.458 581.517V548.909C129.143 549.931 131.992 550.451 134.865 550.444C148.307 550.444 159.243 539.508 159.243 522.191V438.175C159.243 435.673 163.017 430.793 167.651 430.793C169.869 430.804 171.992 431.692 173.557 433.263C175.121 434.834 175.999 436.96 175.999 439.176V464.81C176.01 470.746 178.377 476.436 182.581 480.632C186.785 484.827 192.482 487.186 198.424 487.19H260.605C263.845 487.25 267.065 486.664 270.075 485.467C273.086 484.269 275.828 482.485 278.14 480.216C280.453 477.948 282.29 475.243 283.544 472.257C284.797 469.272 285.443 466.066 285.443 462.829C285.443 459.591 284.797 456.386 283.544 453.4C282.29 450.415 280.453 447.709 278.14 445.441C275.828 443.173 273.086 441.388 270.075 440.19C267.065 438.993 263.845 438.407 260.605 438.467H260.647ZM102.071 447.559C100.41 447.558 98.7873 447.064 97.4077 446.14C96.0281 445.216 94.954 443.903 94.3215 442.369C93.689 440.834 93.5265 439.147 93.8546 437.52C94.1826 435.893 94.9866 434.401 96.1645 433.231C97.3424 432.061 98.8414 431.266 100.472 430.948C102.102 430.63 103.79 430.803 105.321 431.444C106.853 432.085 108.16 433.166 109.077 434.55C109.993 435.934 110.478 437.558 110.47 439.218V447.559H102.071Z" fill="var(--fill-0, white)"/>
<path id="Vector_40" d="M200.282 505.96C193.811 505.964 187.606 508.536 183.032 513.109C178.457 517.683 175.887 523.885 175.887 530.35V605.199V614.709C175.883 616.41 175.204 618.04 173.999 619.243C172.794 620.445 171.162 621.121 169.459 621.123H65.826C64.1239 621.121 62.4922 620.445 61.2887 619.242C60.0852 618.04 59.408 616.409 59.4058 614.709V338.928H43.418V614.692C43.4147 617.635 43.9917 620.55 45.1162 623.27C46.2406 625.99 47.8904 628.462 49.9713 630.545C52.0522 632.628 54.5234 634.281 57.2438 635.41C59.9642 636.538 62.8804 637.12 65.826 637.122H169.459C175.401 637.118 181.099 634.758 185.302 630.561C189.504 626.363 191.869 620.671 191.875 614.734V605.224V530.35C191.875 528.127 192.759 525.995 194.333 524.423C195.906 522.85 198.04 521.967 200.266 521.967C202.491 521.967 204.625 522.85 206.199 524.423C207.772 525.995 208.656 528.127 208.656 530.35V555.684H224.661V530.35C224.659 523.888 222.09 517.691 217.52 513.118C212.95 508.545 206.75 505.971 200.282 505.96Z" fill="var(--fill-0, white)"/>
<path id="Vector_41" d="M294.978 253.467V332.754C294.977 333.597 294.81 334.432 294.486 335.211C294.162 335.99 293.687 336.697 293.089 337.293C292.492 337.888 291.782 338.361 291.002 338.683C290.222 339.004 289.385 339.169 288.541 339.168H225.826C219.883 339.173 214.185 341.533 209.983 345.73C205.78 349.928 203.416 355.62 203.409 361.557V437.599H219.397V361.557C219.41 359.861 220.093 358.24 221.297 357.045C222.501 355.85 224.128 355.178 225.826 355.176H288.508C291.457 355.179 294.379 354.601 297.105 353.476C299.831 352.351 302.308 350.7 304.396 348.618C306.483 346.535 308.139 344.063 309.269 341.341C310.399 338.619 310.982 335.701 310.983 332.754V253.467H294.978Z" fill="var(--fill-0, white)"/>
<path id="Vector_42" d="M200.078 253.527C193.611 253.531 187.41 256.099 182.836 260.668C178.262 265.236 175.69 271.431 175.683 277.892V360.908C175.683 369.416 171.918 373.178 167.334 373.178C162.751 373.178 158.927 369.416 158.927 360.908V274.014C158.927 264.454 147.982 253.527 134.549 253.527C128.082 253.531 121.881 256.099 117.307 260.668C112.733 265.236 110.16 271.431 110.154 277.892V303.526C110.152 305.227 109.474 306.857 108.271 308.059C107.067 309.262 105.436 309.938 103.734 309.941H63.3257C61.6222 309.938 59.9892 309.261 58.7854 308.056C57.5817 306.852 56.9055 305.22 56.9055 303.518V277.892C56.8968 271.447 54.3361 265.268 49.7826 260.702C45.2292 256.137 39.0529 253.558 32.6023 253.527C30.3863 253.509 28.2667 252.619 26.7036 251.049C25.1405 249.48 24.2601 247.358 24.2536 245.143V219.51C24.2492 213.571 21.886 207.877 17.6831 203.678C13.4802 199.478 7.78109 197.117 1.83725 197.113H-38.5373C-44.479 197.122 -50.1747 199.484 -54.3753 203.683C-58.5759 207.882 -60.9386 213.573 -60.9453 219.51V245.143C-60.9519 247.368 -61.8403 249.499 -63.416 251.07C-64.9917 252.641 -67.1263 253.525 -69.3525 253.527C-73.9777 253.527 -77.7429 248.614 -77.7429 246.136V162.112C-77.7429 144.803 -88.6798 133.875 -102.138 133.875C-115.596 133.875 -126.483 144.803 -126.483 162.112V220.769H-134.923C-139.746 220.771 -144.46 222.201 -148.469 224.879C-152.478 227.557 -155.602 231.363 -157.447 235.815C-159.292 240.266 -159.774 245.165 -158.833 249.891C-157.892 254.616 -155.569 258.957 -152.159 262.364C-148.749 265.771 -144.405 268.092 -139.675 269.032C-134.945 269.973 -130.042 269.491 -125.587 267.648C-121.131 265.804 -117.322 262.683 -114.642 258.677C-111.962 254.672 -110.53 249.962 -110.528 245.143V162.112C-110.528 153.603 -106.771 149.849 -102.138 149.849C-97.5044 149.849 -93.7308 153.603 -93.7308 162.112V249.022C-93.7308 258.565 -82.7939 269.501 -69.3525 269.501C-62.8867 269.496 -56.6869 266.929 -52.1134 262.363C-47.5398 257.796 -44.9663 251.604 -44.9574 245.143V219.51C-44.9552 217.808 -44.2784 216.177 -43.0751 214.973C-41.8718 213.77 -40.2401 213.091 -38.5373 213.087H1.82054C3.52337 213.091 5.15506 213.77 6.35836 214.973C7.56166 216.177 8.23852 217.808 8.24072 219.51V245.143C8.25169 251.588 10.8145 257.767 15.3695 262.331C19.9245 266.895 26.1017 269.472 32.5522 269.501C34.7696 269.514 36.8918 270.403 38.4558 271.973C40.0199 273.544 40.8988 275.669 40.901 277.884V303.509C40.9076 309.446 43.2703 315.138 47.4709 319.336C51.6716 323.535 57.3673 325.898 63.309 325.906H103.692C109.632 325.898 115.327 323.536 119.527 319.339C123.727 315.142 126.091 309.453 126.1 303.518V277.892C126.104 275.667 126.992 273.534 128.568 271.961C130.144 270.388 132.279 269.503 134.507 269.501C139.132 269.501 142.856 274.406 142.856 276.891V360.908C142.856 378.233 153.793 389.16 167.251 389.16C180.709 389.16 191.629 378.233 191.629 360.908V302.258H200.036C206.504 302.258 212.707 299.691 217.28 295.122C221.854 290.552 224.423 284.355 224.423 277.892C224.423 271.43 221.854 265.233 217.28 260.663C212.707 256.094 206.504 253.527 200.036 253.527H200.078ZM-126.483 245.143C-126.488 246.8 -126.984 248.419 -127.908 249.794C-128.832 251.17 -130.143 252.242 -131.675 252.874C-133.208 253.507 -134.894 253.672 -136.52 253.349C-138.147 253.025 -139.641 252.228 -140.815 251.058C-141.988 249.888 -142.789 248.396 -143.116 246.772C-143.443 245.147 -143.281 243.463 -142.651 241.93C-142.021 240.397 -140.951 239.086 -139.576 238.16C-138.2 237.234 -136.582 236.735 -134.923 236.727H-126.483V245.143ZM200.111 286.284H191.671V277.892C191.671 276.233 192.163 274.611 193.086 273.231C194.008 271.851 195.319 270.776 196.854 270.14C198.388 269.505 200.076 269.338 201.705 269.661C203.334 269.985 204.831 270.783 206.006 271.956C207.18 273.128 207.981 274.623 208.306 276.25C208.631 277.877 208.466 279.564 207.832 281.098C207.197 282.631 206.122 283.943 204.742 284.866C203.362 285.789 201.739 286.282 200.078 286.284H200.111Z" fill="var(--fill-0, white)"/>
<path id="Vector_43" d="M-88.5264 413.67L-76.5376 401.675L-64.5404 413.67L-76.5376 425.649L-88.5264 413.67Z" fill="var(--fill-0, white)"/>
<path id="Vector_44" d="M2.08145 392.896H-23.3154V376.922H2.08145C5.32137 376.862 8.54074 377.448 11.5515 378.646C14.5622 379.843 17.3039 381.628 19.6163 383.896C21.9288 386.164 23.7657 388.87 25.0196 391.856C26.2735 394.841 26.9193 398.046 26.9193 401.284C26.9193 404.522 26.2735 407.727 25.0196 410.712C23.7657 413.698 21.9288 416.404 19.6163 418.672C17.3039 420.94 14.5622 422.725 11.5515 423.922C8.54074 425.119 5.32137 425.705 2.08145 425.645H-23.3154V409.671H2.08145C3.20613 409.707 4.32648 409.516 5.37595 409.11C6.42543 408.705 7.38261 408.093 8.19072 407.31C8.99883 406.528 9.64135 405.592 10.0801 404.556C10.5189 403.521 10.7451 402.408 10.7451 401.284C10.7451 400.16 10.5189 399.047 10.0801 398.012C9.64135 396.976 8.99883 396.04 8.19072 395.257C7.38261 394.475 6.42543 393.863 5.37595 393.457C4.32648 393.052 3.20613 392.861 2.08145 392.896Z" fill="var(--fill-0, white)"/>
<path id="Vector_45" d="M-259.235 658.917L-247.238 646.931L-259.235 634.944L-271.232 646.931L-259.235 658.917Z" fill="var(--fill-0, white)"/>
<path id="Vector_46" d="M-238.454 568.425V593.75H-222.45V568.425C-222.568 562.039 -225.19 555.956 -229.751 551.482C-234.312 547.008 -240.449 544.501 -246.841 544.501C-253.232 544.501 -259.369 547.008 -263.93 551.482C-268.491 555.956 -271.113 562.039 -271.231 568.425V593.75H-255.235V568.425C-255.235 566.201 -254.351 564.069 -252.778 562.497C-251.204 560.925 -249.07 560.041 -246.845 560.041C-244.619 560.041 -242.485 560.925 -240.912 562.497C-239.338 564.069 -238.454 566.201 -238.454 568.425Z" fill="var(--fill-0, white)"/>
<path id="Vector_47" d="M-85.9235 360.181H-1.82666C15.5137 360.181 26.4505 349.245 26.4505 335.807C26.4505 322.369 15.5137 311.45 -1.82666 311.45H-60.5266V303.016C-60.525 298.195 -61.9543 293.482 -64.6339 289.472C-67.3134 285.463 -71.1228 282.338 -75.5803 280.492C-80.0378 278.645 -84.943 278.162 -89.6758 279.101C-94.4085 280.041 -98.756 282.361 -102.169 285.77C-105.581 289.178 -107.905 293.521 -108.847 298.25C-109.789 302.978 -109.307 307.879 -107.461 312.333C-105.614 316.788 -102.488 320.595 -98.4757 323.274C-94.4637 325.952 -89.7469 327.382 -84.9217 327.382H-1.82666C6.68905 327.382 10.4627 331.144 10.4627 335.765C10.4627 340.386 6.68905 344.165 -1.82666 344.165H-88.8038C-98.3715 344.165 -109.317 355.093 -109.317 368.522C-109.308 374.984 -106.735 381.179 -102.162 385.748C-97.5887 390.317 -91.3889 392.888 -84.9217 392.896H-59.266C-57.5632 392.896 -55.9302 393.572 -54.7262 394.775C-53.5222 395.978 -52.8458 397.61 -52.8458 399.311V473.551C-52.837 479.479 -50.4774 485.162 -46.2837 489.355C-42.09 493.548 -36.4041 495.91 -30.4712 495.923H-4.8155C-2.59012 495.928 -0.457279 496.813 1.11552 498.386C2.68833 499.959 3.57277 502.091 3.57497 504.315C3.57497 508.944 -1.33408 512.706 -3.80531 512.706H-87.8771C-105.209 512.706 -116.154 523.634 -116.154 537.072C-116.154 550.51 -105.209 561.429 -87.8771 561.429H-29.1771V569.829C-29.1771 574.65 -27.7464 579.363 -25.0658 583.371C-22.3853 587.379 -18.5753 590.503 -14.1177 592.348C-9.66008 594.193 -4.75504 594.676 -0.0228723 593.735C4.7093 592.795 9.05607 590.473 12.4678 587.064C15.8795 583.656 18.2029 579.313 19.1442 574.584C20.0855 569.856 19.6023 564.956 17.7559 560.502C15.9095 556.048 12.7828 552.241 8.77102 549.563C4.75928 546.885 0.0427559 545.455 -4.78212 545.455H-87.8771C-96.3928 545.455 -100.166 541.702 -100.166 537.072C-100.166 532.442 -96.4262 528.68 -87.8771 528.68H-0.899938C8.67607 528.68 19.6129 517.753 19.6129 504.323C19.6063 497.861 17.0337 491.667 12.4599 487.098C7.88617 482.53 1.68504 479.962 -4.78212 479.957H-30.4712C-32.1732 479.955 -33.805 479.279 -35.0085 478.076C-36.212 476.874 -36.8892 475.243 -36.8914 473.543V399.303C-36.898 393.367 -39.261 387.676 -43.4618 383.479C-47.6627 379.282 -53.3584 376.921 -59.2994 376.914H-84.9217C-87.1412 376.899 -89.2646 376.007 -90.8287 374.433C-92.3927 372.86 -93.2704 370.732 -93.2704 368.514C-93.3121 363.893 -88.4031 360.181 -85.9235 360.181ZM-76.5312 311.45H-84.9217C-86.5831 311.451 -88.2078 310.96 -89.5901 310.039C-90.9724 309.118 -92.0502 307.808 -92.6871 306.275C-93.3241 304.742 -93.4916 303.054 -93.1685 301.426C-92.8454 299.798 -92.0461 298.301 -90.8718 297.127C-89.6975 295.953 -88.201 295.153 -86.5716 294.828C-84.9422 294.504 -83.253 294.669 -81.7178 295.304C-80.1827 295.939 -78.8705 297.015 -77.9472 298.395C-77.024 299.775 -76.5312 301.398 -76.5312 303.058V311.45ZM-13.206 561.471H-4.8155C-3.15437 561.469 -1.53007 561.96 -0.147971 562.881C1.23413 563.801 2.31194 565.111 2.94915 566.644C3.58636 568.176 3.75436 569.864 3.43191 571.492C3.10946 573.12 2.31104 574.616 1.13761 575.791C-0.0358146 576.965 -1.53156 577.766 -3.16045 578.091C-4.78934 578.417 -6.47822 578.252 -8.01354 577.619C-9.54886 576.985 -10.8616 575.911 -11.7859 574.532C-12.7101 573.153 -13.2043 571.531 -13.206 569.871V561.471Z" fill="var(--fill-0, white)"/>
<path id="Vector_48" d="M-23.5508 458.052L-11.5453 470.047L0.451855 458.052L-11.5453 446.065L-23.5508 458.052Z" fill="var(--fill-0, white)"/>
<path id="Vector_49" d="M-144.513 343.274L-132.516 355.269L-120.51 343.274L-132.516 331.287L-144.513 343.274Z" fill="var(--fill-0, white)"/>
<path id="Vector_50" d="M-207.488 343.275L-195.491 355.27L-183.494 343.275L-195.491 331.288L-207.488 343.275Z" fill="var(--fill-0, white)"/>
<path id="Vector_51" d="M-96.7845 655.733V610.864H-112.789V655.733C-112.789 662.197 -110.219 668.397 -105.644 672.968C-101.069 677.539 -94.864 680.107 -88.394 680.107C-81.9241 680.107 -75.7191 677.539 -71.1442 672.968C-66.5692 668.397 -63.999 662.197 -63.999 655.733V630.4H-80.0036V655.733C-80.0036 657.956 -80.8875 660.089 -82.4611 661.661C-84.0346 663.233 -86.1687 664.116 -88.394 664.116C-90.6193 664.116 -92.7535 663.233 -94.327 661.661C-95.9005 660.089 -96.7845 657.956 -96.7845 655.733Z" fill="var(--fill-0, white)"/>
<path id="Vector_52" d="M-87.8993 445.921H-150.097C-156.042 445.928 -161.741 448.291 -165.944 452.491C-170.147 456.692 -172.509 462.387 -172.514 468.327V493.943C-172.516 496.169 -173.401 498.303 -174.976 499.878C-176.55 501.452 -178.685 502.339 -180.913 502.343C-185.538 502.343 -189.303 497.43 -189.303 494.944V410.928C-189.303 393.611 -200.248 382.675 -213.698 382.675C-216.568 382.665 -219.416 383.186 -222.097 384.21V351.603C-222.037 348.365 -222.624 345.147 -223.822 342.138C-225.021 339.129 -226.808 336.389 -229.079 334.077C-231.35 331.766 -234.059 329.93 -237.048 328.677C-240.037 327.424 -243.246 326.778 -246.488 326.778C-249.729 326.778 -252.938 327.424 -255.927 328.677C-258.917 329.93 -261.626 331.766 -263.896 334.077C-266.167 336.389 -267.954 339.129 -269.153 342.138C-270.352 345.147 -270.939 348.365 -270.879 351.603V449.641H-254.882V351.603C-254.882 350.501 -254.665 349.41 -254.243 348.392C-253.821 347.374 -253.202 346.449 -252.422 345.669C-251.643 344.89 -250.717 344.272 -249.698 343.85C-248.679 343.429 -247.587 343.212 -246.484 343.212C-245.381 343.212 -244.289 343.429 -243.27 343.85C-242.251 344.272 -241.325 344.89 -240.545 345.669C-239.765 346.449 -239.146 347.374 -238.724 348.392C-238.302 349.41 -238.085 350.501 -238.085 351.603V410.728C-238.085 410.795 -238.085 410.862 -238.085 410.928V469.586H-246.434C-251.257 469.588 -255.971 471.018 -259.981 473.697C-263.99 476.376 -267.114 480.182 -268.959 484.635C-270.803 489.088 -271.284 493.987 -270.342 498.714C-269.399 503.44 -267.075 507.78 -263.663 511.187C-260.252 514.593 -255.905 516.912 -251.175 517.851C-246.444 518.79 -241.541 518.305 -237.085 516.46C-232.63 514.614 -228.822 511.49 -226.144 507.482C-223.466 503.474 -222.037 498.763 -222.039 493.943V410.928C-222.039 402.42 -218.282 398.666 -213.648 398.666C-209.014 398.666 -205.299 402.42 -205.299 410.928V497.822C-205.299 507.382 -194.354 518.318 -180.904 518.318C-174.442 518.302 -168.25 515.728 -163.683 511.159C-159.117 506.591 -156.549 500.4 -156.543 493.943V468.327C-156.544 467.483 -156.379 466.648 -156.057 465.868C-155.734 465.088 -155.262 464.38 -154.666 463.782C-154.07 463.185 -153.361 462.711 -152.582 462.387C-151.802 462.064 -150.967 461.896 -150.122 461.895H-87.9244C-85.6969 461.895 -83.5606 462.779 -81.9855 464.353C-80.4104 465.927 -79.5255 468.061 -79.5255 470.287C-79.5255 472.512 -80.4104 474.647 -81.9855 476.221C-83.5606 477.794 -85.6969 478.678 -87.9244 478.678H-113.263V494.653H-87.8993C-81.4316 494.653 -75.2288 492.085 -70.6554 487.516C-66.082 482.947 -63.5127 476.749 -63.5127 470.287C-63.5127 463.825 -66.082 457.627 -70.6554 453.058C-75.2288 448.488 -81.4316 445.921 -87.8993 445.921ZM-238.093 493.943C-238.101 495.591 -238.598 497.2 -239.52 498.566C-240.443 499.933 -241.75 500.995 -243.276 501.62C-244.802 502.245 -246.479 502.405 -248.096 502.078C-249.713 501.751 -251.197 500.954 -252.36 499.785C-253.523 498.617 -254.314 497.131 -254.633 495.514C-254.952 493.897 -254.784 492.222 -254.151 490.7C-253.518 489.178 -252.448 487.878 -251.076 486.963C-249.704 486.048 -248.091 485.56 -246.442 485.56H-238.093V493.943Z" fill="var(--fill-0, white)"/>
<path id="Vector_53" d="M-139.897 377.457V402.782C-139.897 405.007 -140.782 407.142 -142.357 408.715C-143.932 410.289 -146.069 411.173 -148.296 411.173C-150.524 411.173 -152.66 410.289 -154.235 408.715C-155.81 407.142 -156.695 405.007 -156.695 402.782V318.473C-156.693 312.533 -159.049 306.835 -163.247 302.628C-167.445 298.421 -173.141 296.05 -179.086 296.035H-282.728C-288.679 296.041 -294.384 298.408 -298.589 302.616C-302.794 306.824 -305.155 312.527 -305.152 318.473V594.187H-289.165V318.473C-289.162 316.769 -288.483 315.135 -287.276 313.931C-286.069 312.727 -284.433 312.05 -282.728 312.05H-179.086C-178.242 312.05 -177.406 312.216 -176.626 312.539C-175.846 312.862 -175.138 313.335 -174.541 313.932C-173.944 314.528 -173.47 315.236 -173.147 316.015C-172.824 316.795 -172.658 317.63 -172.658 318.473V327.974V402.823C-172.658 409.285 -170.089 415.483 -165.515 420.052C-160.942 424.622 -154.739 427.189 -148.271 427.189C-141.803 427.189 -135.601 424.622 -131.027 420.052C-126.454 415.483 -123.885 409.285 -123.885 402.823V377.457H-139.897Z" fill="var(--fill-0, white)"/>
<path id="Vector_54" d="M-60.0014 577.973H-122.692C-124.395 577.973 -126.028 577.297 -127.232 576.094C-128.436 574.891 -129.112 573.26 -129.112 571.558V495.517H-145.108V571.558C-145.102 577.496 -142.738 583.189 -138.535 587.388C-134.333 591.587 -128.635 593.949 -122.692 593.955H-60.0014C-58.2993 593.958 -56.6676 594.634 -55.464 595.837C-54.2605 597.039 -53.5834 598.67 -53.5812 600.37V679.665H-37.5933V600.37C-37.5978 594.433 -39.9597 588.74 -44.1609 584.541C-48.362 580.342 -54.059 577.98 -60.0014 577.973Z" fill="var(--fill-0, white)"/>
<path id="Vector_55" d="M-148.491 630.956H-156.84V572.298C-156.84 554.981 -167.776 544.054 -181.235 544.054C-194.693 544.054 -205.63 554.981 -205.63 572.298V656.306C-205.63 658.809 -209.387 663.697 -214.02 663.697C-216.24 663.681 -218.363 662.789 -219.927 661.216C-221.491 659.642 -222.369 657.514 -222.369 655.297V629.696C-222.376 623.757 -224.741 618.063 -228.945 613.864C-233.149 609.665 -238.849 607.304 -244.794 607.299H-285.227C-291.171 607.304 -296.871 609.665 -301.075 613.864C-305.28 618.063 -307.645 623.757 -307.651 629.696V655.313C-307.656 657.53 -308.535 659.655 -310.098 661.228C-311.661 662.8 -313.782 663.694 -316 663.713V679.662C-309.541 679.643 -303.352 677.067 -298.79 672.499C-294.227 667.93 -291.662 661.742 -291.655 655.288V629.696C-291.655 627.993 -290.978 626.359 -289.772 625.155C-288.567 623.95 -286.931 623.274 -285.227 623.274H-244.877C-244.033 623.274 -243.198 623.44 -242.418 623.763C-241.639 624.085 -240.931 624.559 -240.334 625.155C-239.738 625.752 -239.265 626.46 -238.943 627.239C-238.621 628.018 -238.456 628.853 -238.457 629.696V655.313C-238.441 661.771 -235.865 667.959 -231.293 672.523C-226.721 677.086 -220.525 679.654 -214.062 679.662C-200.612 679.662 -189.667 668.727 -189.667 659.167V572.298C-189.667 563.79 -185.902 560.036 -181.276 560.036C-176.651 560.036 -172.878 563.79 -172.878 572.298V655.313C-172.881 660.135 -171.453 664.85 -168.774 668.86C-166.095 672.871 -162.286 675.998 -157.828 677.845C-153.37 679.692 -148.464 680.176 -143.73 679.237C-138.997 678.298 -134.649 675.977 -131.236 672.568C-127.823 669.159 -125.498 664.815 -124.556 660.086C-123.615 655.357 -124.098 650.455 -125.945 646.001C-127.792 641.546 -130.921 637.739 -134.934 635.061C-138.947 632.383 -143.665 630.954 -148.491 630.956ZM-148.491 663.713C-150.71 663.698 -152.834 662.806 -154.398 661.233C-155.962 659.659 -156.84 657.531 -156.84 655.313V646.972H-148.491C-146.263 646.972 -144.127 647.856 -142.552 649.43C-140.977 651.003 -140.092 653.138 -140.092 655.363C-140.092 657.589 -140.977 659.724 -142.552 661.297C-144.127 662.871 -146.263 663.755 -148.491 663.755V663.713Z" fill="var(--fill-0, white)"/>
<path id="Vector_56" d="M199.315 -161.599C192.846 -161.597 186.642 -159.03 182.065 -154.462C177.488 -149.893 174.912 -143.697 174.904 -137.233V-54.2098C174.904 -45.7014 171.138 -41.9477 166.555 -41.9477C161.971 -41.9477 158.148 -45.7014 158.148 -54.2098V-141.146C158.123 -150.663 147.177 -161.599 133.744 -161.599C127.278 -161.592 121.078 -159.023 116.505 -154.456C111.931 -149.888 109.358 -143.694 109.349 -137.233V-111.608C109.347 -109.907 108.67 -108.277 107.466 -107.075C106.263 -105.872 104.631 -105.196 102.929 -105.193H62.5714C60.8686 -105.193 59.2356 -105.869 58.0316 -107.072C56.8276 -108.275 56.1512 -109.907 56.1512 -111.608V-137.233C56.1402 -143.688 53.5708 -149.875 49.0052 -154.442C44.4396 -159.008 38.2496 -161.581 31.7895 -161.599L-305.675 -161.574V-145.458H32.8833C33.0751 -145.471 33.2675 -145.471 33.4593 -145.458C33.6791 -145.417 33.8965 -145.364 34.1105 -145.3C34.4258 -145.207 34.7353 -145.096 35.0372 -144.966C35.3225 -144.838 35.6012 -144.696 35.8721 -144.541C36.1603 -144.382 36.4391 -144.206 36.707 -144.015C36.9676 -143.825 37.2158 -143.619 37.45 -143.398C37.6852 -143.179 37.9082 -142.948 38.1179 -142.705C38.3291 -142.462 38.5243 -142.206 38.7023 -141.938C38.8851 -141.67 39.0523 -141.391 39.2032 -141.104C39.3522 -140.813 39.486 -140.516 39.604 -140.211C39.7227 -139.901 39.8203 -139.584 39.8962 -139.26C39.9783 -138.934 40.0396 -138.602 40.0799 -138.268C40.1206 -137.927 40.1401 -137.585 40.1383 -137.242V-111.608C40.1427 -105.669 42.5056 -99.9735 46.7083 -95.7729C50.911 -91.5722 56.6101 -89.2093 62.5547 -89.2027H102.912C108.856 -89.2115 114.553 -91.5754 118.753 -95.7758C122.954 -99.9762 125.316 -105.67 125.32 -111.608V-137.233C125.325 -139.462 126.215 -141.598 127.794 -143.171C129.374 -144.745 131.514 -145.627 133.744 -145.625C138.37 -145.625 142.093 -140.712 142.093 -138.243V-54.2098C142.093 -36.9011 153.03 -25.9736 166.488 -25.9736C179.946 -25.9736 190.866 -36.9011 190.866 -54.2098V-112.868H199.274C205.741 -112.868 211.944 -115.435 216.518 -120.004C221.091 -124.574 223.66 -130.771 223.66 -137.233C223.66 -143.696 221.091 -149.893 216.518 -154.462C211.944 -159.032 205.741 -161.599 199.274 -161.599H199.315ZM199.315 -128.842H190.908V-137.233C190.908 -138.893 191.401 -140.515 192.323 -141.895C193.246 -143.274 194.557 -144.35 196.091 -144.985C197.625 -145.621 199.313 -145.787 200.942 -145.464C202.571 -145.141 204.068 -144.343 205.243 -143.17C206.418 -141.997 207.218 -140.503 207.543 -138.876C207.868 -137.248 207.703 -135.561 207.069 -134.028C206.434 -132.494 205.359 -131.183 203.979 -130.26C202.599 -129.337 200.976 -128.843 199.315 -128.842Z" fill="var(--fill-0, white)"/>
<path id="Vector_57" d="M26.5792 666.828C25.4873 666.859 24.4004 666.669 23.3837 666.27C22.3669 665.871 21.4412 665.271 20.6618 664.506C19.8824 663.741 19.2653 662.827 18.8476 661.819C18.4298 660.811 18.22 659.728 18.2305 658.637V633.003C18.2238 627.067 15.8609 621.377 11.66 617.179C7.45912 612.982 1.76341 610.621 -4.17753 610.615H-30.5596V626.589H-4.19422C-2.49148 626.589 -0.858484 627.264 0.345533 628.467C1.54955 629.67 2.22596 631.302 2.22596 633.003V658.637C2.23257 665.091 4.79941 671.28 9.36415 675.847C13.9289 680.414 20.1193 682.987 26.5792 683.003H363.718V666.828H26.5792Z" fill="var(--fill-0, white)"/>
<path id="Vector_58" d="M618.512 -17.2904H643.917V-33.2645H618.512C612.123 -33.1464 606.036 -30.5278 601.56 -25.972C597.084 -21.4162 594.576 -15.2871 594.576 -8.90296C594.576 -2.51885 597.084 3.61024 601.56 8.16605C606.036 12.7219 612.123 15.3404 618.512 15.4586H643.917V-0.515528H618.512C616.331 -0.584244 614.263 -1.49803 612.745 -3.06347C611.226 -4.62892 610.378 -6.72317 610.378 -8.90296C610.378 -11.0827 611.226 -13.177 612.745 -14.7424C614.263 -16.3079 616.331 -17.2217 618.512 -17.2904Z" fill="var(--fill-0, white)"/>
<path id="Vector_59" d="M879.817 248.734L867.812 236.747L879.817 224.76L891.806 236.747L879.817 248.734Z" fill="var(--fill-0, white)"/>
<path id="Vector_60" d="M859.024 158.232V183.574H843.036V158.232C843.036 151.77 845.605 145.572 850.179 141.003C854.752 136.434 860.955 133.866 867.423 133.866C873.891 133.866 880.093 136.434 884.667 141.003C889.24 145.572 891.809 151.77 891.809 158.232V183.574H875.822V158.232C875.822 156.007 874.937 153.872 873.362 152.298C871.787 150.725 869.65 149.841 867.423 149.841C865.195 149.841 863.059 150.725 861.484 152.298C859.909 153.872 859.024 156.007 859.024 158.232Z" fill="var(--fill-0, white)"/>
<path id="Vector_61" d="M708.446 102.513H624.332C621.828 102.513 616.944 98.7594 616.944 94.1298C616.948 91.9063 617.834 89.7753 619.409 88.2039C620.983 86.6324 623.117 85.7487 625.342 85.7465H650.998C656.941 85.7399 662.639 83.3781 666.841 79.1793C671.044 74.9804 673.408 69.2875 673.414 63.3494V-10.8904C673.417 -12.5947 674.096 -14.2284 675.303 -15.4327C676.51 -16.637 678.146 -17.3134 679.851 -17.3134H705.507C711.973 -17.3156 718.173 -19.8806 722.748 -24.4455C727.324 -29.0104 729.899 -35.2023 729.91 -41.6625C729.91 -55.0924 718.973 -66.0198 709.414 -66.0198H622.395C613.88 -66.0198 610.123 -69.7902 610.123 -74.3614C610.123 -78.9326 613.863 -82.803 622.395 -82.803H705.507C710.33 -82.8047 715.045 -84.2353 719.054 -86.914C723.063 -89.5927 726.188 -93.3992 728.032 -97.8521C729.876 -102.305 730.358 -107.204 729.415 -111.93C728.472 -116.657 726.148 -120.997 722.737 -124.404C719.325 -127.81 714.979 -130.129 710.248 -131.068C705.517 -132.006 700.614 -131.522 696.158 -129.677C691.703 -127.831 687.895 -124.706 685.217 -120.699C682.539 -116.691 681.11 -111.979 681.112 -107.16V-98.7771H622.395C605.072 -98.7771 594.135 -87.8413 594.135 -74.4114C594.135 -60.9815 605.072 -50.0541 622.395 -50.0541H706.534C709.038 -50.0541 713.931 -46.2837 713.931 -41.7125C713.929 -39.4955 713.05 -37.369 711.487 -35.7958C709.923 -34.2226 707.801 -33.3301 705.582 -33.3126H679.818C673.873 -33.3081 668.173 -30.9473 663.969 -26.7482C659.765 -22.5492 657.4 -16.855 657.393 -10.9155V63.3244C657.389 65.0258 656.71 66.6561 655.505 67.8583C654.3 69.0606 652.667 69.7369 650.965 69.7391H625.342C618.877 69.7457 612.678 72.3149 608.106 76.8829C603.534 81.451 600.962 87.6446 600.956 94.1048C600.956 107.543 611.901 118.479 621.452 118.479H708.446C716.961 118.479 720.727 122.233 720.727 126.862C720.727 131.492 716.961 135.245 708.446 135.245H625.342C620.52 135.25 615.807 136.683 611.799 139.364C607.791 142.044 604.668 145.851 602.825 150.303C600.981 154.756 600.5 159.655 601.442 164.381C602.384 169.106 604.707 173.447 608.118 176.854C611.528 180.262 615.872 182.583 620.602 183.524C625.332 184.465 630.235 183.985 634.691 182.143C639.148 180.301 642.958 177.181 645.641 173.176C648.323 169.172 649.757 164.463 649.762 159.644V151.303H708.471C725.794 151.303 736.74 140.367 736.74 126.929C736.74 113.491 725.736 102.513 708.446 102.513ZM697.1 -107.16C697.098 -108.82 697.589 -110.443 698.511 -111.824C699.432 -113.205 700.743 -114.282 702.277 -114.918C703.811 -115.555 705.499 -115.723 707.129 -115.401C708.758 -115.079 710.256 -114.281 711.432 -113.108C712.607 -111.936 713.409 -110.442 713.734 -108.814C714.06 -107.187 713.895 -105.499 713.261 -103.965C712.627 -102.431 711.552 -101.119 710.172 -100.196C708.791 -99.2725 707.168 -98.7788 705.507 -98.7771H697.1V-107.16ZM633.791 159.644C633.801 161.306 633.317 162.933 632.401 164.319C631.484 165.706 630.177 166.789 628.643 167.432C627.11 168.075 625.42 168.249 623.788 167.931C622.156 167.614 620.654 166.82 619.474 165.649C618.295 164.478 617.489 162.984 617.16 161.355C616.831 159.727 616.993 158.037 617.626 156.501C618.259 154.964 619.334 153.65 620.715 152.725C622.096 151.799 623.721 151.305 625.384 151.303H633.791V159.644Z" fill="var(--fill-0, white)"/>
<path id="Vector_62" d="M644.116 47.873L632.127 59.8598L620.13 47.873L632.127 35.8778L644.116 47.873Z" fill="var(--fill-0, white)"/>
<path id="Vector_63" d="M644.116 214.625L632.127 226.611L620.13 214.625L632.127 202.629L644.116 214.625Z" fill="var(--fill-0, white)"/>
<path id="Vector_64" d="M644.118 257.166L632.129 269.161L620.132 257.166L632.129 245.179L644.118 257.166Z" fill="var(--fill-0, white)"/>
<path id="Vector_65" d="M765.078 -66.9154L753.081 -54.9202L741.092 -66.9154L753.081 -78.9022L765.078 -66.9154Z" fill="var(--fill-0, white)"/>
<path id="Vector_66" d="M828.07 -66.9136L816.073 -54.9184L804.067 -66.9136L816.073 -78.9004L828.07 -66.9136Z" fill="var(--fill-0, white)"/>
<path id="Vector_67" d="M717.391 245.545V200.676H733.387V245.545C733.269 251.93 730.647 258.014 726.086 262.488C721.525 266.962 715.388 269.468 708.996 269.468C702.605 269.468 696.468 266.962 691.907 262.488C687.345 258.014 684.724 251.93 684.605 245.545V220.212H700.593V245.545C700.593 247.771 701.478 249.905 703.053 251.479C704.628 253.053 706.765 253.937 708.992 253.937C711.22 253.937 713.356 253.053 714.931 251.479C716.506 249.905 717.391 247.771 717.391 245.545Z" fill="var(--fill-0, white)"/>
<path id="Vector_68" d="M867.053 59.3938H858.663V-58.5642C858.663 -60.7898 859.548 -62.9242 861.123 -64.498C862.698 -66.0717 864.834 -66.9558 867.062 -66.9558C869.289 -66.9558 871.425 -66.0717 873.001 -64.498C874.576 -62.9242 875.46 -60.7898 875.46 -58.5642V39.4658H891.448V-58.5642C891.448 -65.0264 888.879 -71.2239 884.306 -75.7933C879.732 -80.3628 873.529 -82.9299 867.062 -82.9299C860.594 -82.9299 854.391 -80.3628 849.818 -75.7933C845.244 -71.2239 842.675 -65.0264 842.675 -58.5642V-25.9487C839.994 -26.9746 837.147 -27.5005 834.276 -27.5002C820.835 -27.5002 809.898 -16.5728 809.898 0.735941V84.7521C809.898 87.2546 806.124 92.1511 801.491 92.1511C799.264 92.1467 797.13 91.2597 795.557 89.6849C793.984 88.1101 793.1 85.976 793.1 83.7511V58.1342C793.102 52.1867 790.74 46.4818 786.534 42.274C782.327 38.0661 776.62 35.6998 770.667 35.6954H708.486C702.095 35.8136 696.006 38.433 691.528 42.9904C687.051 47.5478 684.542 53.679 684.542 60.0653C684.542 66.4516 687.051 72.5828 691.528 77.1402C696.006 81.6975 702.095 84.317 708.486 84.4351H733.849V68.4777H708.486C707.361 68.5132 706.241 68.3225 705.191 67.9169C704.142 67.5113 703.185 66.8992 702.376 66.1169C701.568 65.3345 700.926 64.3979 700.487 63.3626C700.048 62.3274 699.822 61.2146 699.822 60.0903C699.822 58.966 700.048 57.8532 700.487 56.818C700.926 55.7827 701.568 54.8461 702.376 54.0637C703.185 53.2814 704.142 52.6693 705.191 52.2637C706.241 51.8581 707.361 51.6674 708.486 51.7029H770.667C772.374 51.7051 774.01 52.3834 775.216 53.589C776.423 54.7946 777.102 56.4292 777.104 58.1342V83.7511C777.108 90.2113 779.678 96.4058 784.248 100.975C788.819 105.545 795.017 108.116 801.482 108.125C814.94 108.125 825.877 97.1894 825.877 87.63V0.735941C825.877 -7.77245 829.643 -11.5261 834.268 -11.5261C838.893 -11.5261 842.617 -7.78913 842.675 0.669207V83.7511C842.673 88.5709 844.102 93.2829 846.781 97.2911C849.46 101.299 853.269 104.424 857.725 106.269C862.182 108.114 867.086 108.597 871.817 107.657C876.549 106.718 880.895 104.397 884.306 100.989C887.717 97.5805 890.039 93.2382 890.98 88.5109C891.921 83.7837 891.437 78.8839 889.59 74.4313C887.744 69.9787 884.617 66.1734 880.605 63.4967C876.593 60.82 871.877 59.3921 867.053 59.3938ZM867.053 92.1511C864.826 92.1467 862.692 91.2597 861.119 89.6849C859.546 88.1101 858.663 85.976 858.663 83.7511V75.3679H867.053C869.281 75.3679 871.417 76.252 872.992 77.8257C874.567 79.3994 875.452 81.5339 875.452 83.7595C875.452 85.9851 874.567 88.1195 872.992 89.6932C871.417 91.267 869.281 92.1511 867.053 92.1511Z" fill="var(--fill-0, white)"/>
<path id="Vector_69" d="M903.304 -114.149H799.672C793.729 -114.14 788.033 -111.778 783.831 -107.579C779.629 -103.381 777.264 -97.6894 777.255 -91.752V-42.3866V-7.35208C777.186 -5.17338 776.272 -3.10691 774.705 -1.59006C773.138 -0.0732071 771.042 0.774982 768.861 0.774982C766.679 0.774982 764.583 -0.0732071 763.016 -1.59006C761.449 -3.10691 760.535 -5.17338 760.466 -7.35208V-32.7021H744.47V-7.36042C744.588 -0.975205 747.21 5.10858 751.771 9.58242C756.332 14.0563 762.469 16.5627 768.861 16.5627C775.252 16.5627 781.389 14.0563 785.95 9.58242C790.511 5.10858 793.133 -0.975205 793.251 -7.36042V-42.395V-91.752C793.254 -93.4533 793.93 -95.0845 795.134 -96.2884C796.337 -97.4922 797.969 -98.1706 799.672 -98.175H903.304C905.007 -98.1706 906.639 -97.4922 907.842 -96.2884C909.046 -95.0845 909.722 -93.4533 909.725 -91.752V184.003H925.729V-91.752C925.72 -97.6908 923.355 -103.384 919.151 -107.582C914.947 -111.781 909.248 -114.142 903.304 -114.149Z" fill="var(--fill-0, white)"/>
<path id="Vector_70" d="M749.702 85.4061V161.439C749.699 163.143 749.022 164.776 747.817 165.982C746.612 167.187 744.978 167.866 743.273 167.871H680.591C674.647 167.873 668.947 170.232 664.742 174.43C660.538 178.627 658.173 184.321 658.166 190.26V269.563H674.154V190.26C674.16 188.557 674.841 186.927 676.047 185.725C677.254 184.523 678.887 183.847 680.591 183.845H743.273C749.218 183.838 754.917 181.475 759.119 177.275C763.322 173.074 765.685 167.379 765.689 161.439V85.4061H749.702Z" fill="var(--fill-0, white)"/>
<path id="Vector_71" d="M1163.26 104.42L1175.26 116.406L1187.25 104.42L1175.26 92.4411L1163.26 104.42Z" fill="var(--fill-0, white)"/>
<path id="Vector_72" d="M1253.84 125.2H1228.48V141.174H1253.84C1260.31 141.174 1266.52 138.607 1271.09 134.038C1275.66 129.468 1278.23 123.271 1278.23 116.809C1278.23 110.346 1275.66 104.149 1271.09 99.5794C1266.52 95.0099 1260.31 92.4428 1253.84 92.4428H1228.48V108.417H1253.84C1256.07 108.417 1258.21 109.301 1259.78 110.875C1261.36 112.448 1262.24 114.583 1262.24 116.809C1262.24 119.034 1261.36 121.169 1259.78 122.742C1258.21 124.316 1256.07 125.2 1253.84 125.2Z" fill="var(--fill-0, white)"/>
<path id="Vector_73" d="M992.539 -140.838L1004.54 -128.843L992.539 -116.856L980.542 -128.843L992.539 -140.838Z" fill="var(--fill-0, white)"/>
<path id="Vector_74" d="M1013.34 -50.3345V-75.6678H1029.32V-50.3345C1029.21 -43.9493 1026.58 -37.8655 1022.02 -33.3917C1017.46 -28.9178 1011.32 -26.4113 1004.93 -26.4113C998.541 -26.4113 992.405 -28.9178 987.843 -33.3917C983.282 -37.8655 980.66 -43.9493 980.542 -50.3345V-75.6678H996.538V-50.3345C996.538 -48.1089 997.423 -45.9745 998.998 -44.4007C1000.57 -42.827 1002.71 -41.9429 1004.94 -41.9429C1007.16 -41.9429 1009.3 -42.827 1010.88 -44.4007C1012.45 -45.9745 1013.34 -48.1089 1013.34 -50.3345Z" fill="var(--fill-0, white)"/>
<path id="Vector_75" d="M1249.92 157.951H1165.82C1163.32 157.951 1158.41 154.18 1158.41 149.559C1158.42 147.334 1159.31 145.202 1160.88 143.63C1162.46 142.058 1164.59 141.176 1166.82 141.176H1192.47C1198.41 141.169 1204.11 138.806 1208.32 134.605C1212.52 130.405 1214.88 124.71 1214.89 118.77V44.5303C1214.89 42.829 1215.56 41.1978 1216.77 39.994C1217.97 38.7901 1219.6 38.1118 1221.31 38.1073H1246.96C1253.43 38.1007 1259.62 35.5327 1264.19 30.9664C1268.77 26.4002 1271.34 20.2087 1271.35 13.75C1271.35 0.311742 1260.4 -10.624 1250.85 -10.624H1163.86C1155.36 -10.624 1151.59 -14.3777 1151.59 -19.0073C1151.59 -23.6369 1155.36 -27.3489 1163.86 -27.3489H1246.96C1251.79 -27.3472 1256.5 -28.7753 1260.52 -31.4526C1264.53 -34.1298 1267.66 -37.936 1269.51 -42.3896C1271.35 -46.8432 1271.84 -51.7443 1270.9 -56.4729C1269.96 -61.2016 1267.63 -65.5454 1264.22 -68.955C1260.81 -72.3646 1256.46 -74.6868 1251.73 -75.628C1247 -76.5692 1242.09 -76.087 1237.64 -74.2424C1233.18 -72.3978 1229.37 -69.2737 1226.69 -65.2653C1224.01 -61.2568 1222.57 -56.544 1222.57 -51.7229V-43.3313H1163.86C1146.53 -43.3313 1135.59 -32.4039 1135.59 -18.9656C1135.59 -5.52735 1146.53 5.39175 1163.86 5.39175H1247.97C1250.48 5.39175 1255.36 9.16214 1255.36 13.7917C1255.36 16.0159 1254.47 18.1481 1252.9 19.7201C1251.32 21.292 1249.19 22.175 1246.96 22.175H1221.31C1215.36 22.1838 1209.67 24.5463 1205.46 28.7447C1201.26 32.943 1198.9 38.6347 1198.89 44.5721V118.812C1198.89 120.516 1198.21 122.149 1197 123.354C1195.8 124.56 1194.17 125.239 1192.46 125.243H1166.82C1160.36 125.248 1154.16 127.815 1149.58 132.381C1145.01 136.948 1142.44 143.14 1142.43 149.601C1142.43 163.039 1153.37 173.966 1162.94 173.966H1249.92C1258.43 173.966 1262.2 177.728 1262.2 182.35C1262.2 186.971 1258.43 190.75 1249.92 190.75H1166.82C1162 190.75 1157.28 192.181 1153.27 194.861C1149.25 197.542 1146.13 201.352 1144.28 205.808C1142.44 210.265 1141.96 215.168 1142.91 219.896C1143.86 224.625 1146.19 228.966 1149.6 232.371C1153.02 235.776 1157.37 238.09 1162.11 239.022C1166.85 239.954 1171.75 239.46 1176.21 237.605C1180.66 235.749 1184.46 232.614 1187.13 228.597C1189.81 224.581 1191.22 219.862 1191.21 215.04V206.699H1249.92C1267.24 206.699 1278.19 195.771 1278.19 182.325C1278.19 168.878 1267.24 157.951 1249.92 157.951ZM1238.56 -51.7396C1238.56 -53.3993 1239.05 -55.0217 1239.98 -56.4017C1240.9 -57.7817 1242.21 -58.8573 1243.75 -59.4924C1245.28 -60.1276 1246.97 -60.2938 1248.6 -59.97C1250.23 -59.6462 1251.73 -58.8469 1252.9 -57.6734C1254.07 -56.4998 1254.87 -55.0045 1255.2 -53.3767C1255.52 -51.7489 1255.36 -50.0616 1254.72 -48.5283C1254.08 -46.9949 1253.01 -45.6843 1251.63 -44.7622C1250.25 -43.8401 1248.62 -43.348 1246.96 -43.348H1238.56V-51.7396ZM1175.25 215.04C1175.26 216.704 1174.78 218.333 1173.86 219.721C1172.94 221.109 1171.63 222.192 1170.09 222.833C1168.56 223.475 1166.86 223.645 1165.23 223.323C1163.59 223.001 1162.09 222.2 1160.92 221.024C1159.74 219.847 1158.94 218.347 1158.62 216.715C1158.29 215.083 1158.46 213.391 1159.11 211.856C1159.75 210.32 1160.83 209.01 1162.22 208.092C1163.61 207.174 1165.24 206.689 1166.9 206.699H1175.25V215.04Z" fill="var(--fill-0, white)"/>
<path id="Vector_76" d="M1228.23 60.0292L1240.23 48.0507L1252.23 60.0292L1240.23 72.0243L1228.23 60.0292Z" fill="var(--fill-0, white)"/>
<path id="Vector_77" d="M1228.23 -106.725L1240.23 -118.712L1252.23 -106.725L1240.23 -94.7295L1228.23 -106.725Z" fill="var(--fill-0, white)"/>
<path id="Vector_78" d="M1228.23 -149.272L1240.23 -161.251L1252.23 -149.272L1240.23 -137.277L1228.23 -149.272Z" fill="var(--fill-0, white)"/>
<path id="Vector_79" d="M1107.28 174.807L1119.28 162.82L1131.27 174.807L1119.28 186.802L1107.28 174.807Z" fill="var(--fill-0, white)"/>
<path id="Vector_80" d="M1044.29 174.805L1056.29 162.818L1068.29 174.805L1056.29 186.8L1044.29 174.805Z" fill="var(--fill-0, white)"/>
<path id="Vector_81" d="M1154.99 -137.64V-92.7629H1139V-137.64C1139.11 -144.026 1141.74 -150.109 1146.3 -154.583C1150.86 -159.057 1157 -161.564 1163.39 -161.564C1169.78 -161.564 1175.92 -159.057 1180.48 -154.583C1185.04 -150.109 1187.66 -144.026 1187.78 -137.64V-112.299H1171.79V-137.64C1171.79 -139.866 1170.91 -142.001 1169.33 -143.574C1167.75 -145.148 1165.62 -146.032 1163.39 -146.032C1161.16 -146.032 1159.03 -145.148 1157.45 -143.574C1155.88 -142.001 1154.99 -139.866 1154.99 -137.64Z" fill="var(--fill-0, white)"/>
<path id="Vector_82" d="M1163.87 23.4405H1138.53V39.4229H1163.87C1165 39.3874 1166.12 39.5782 1167.17 39.9837C1168.22 40.3893 1169.18 41.0014 1169.98 41.7837C1170.79 42.5661 1171.43 43.5027 1171.87 44.538C1172.31 45.5732 1172.54 46.686 1172.54 47.8103C1172.54 48.9346 1172.31 50.0474 1171.87 51.0827C1171.43 52.1179 1170.79 53.0545 1169.98 53.8369C1169.18 54.6192 1168.22 55.2314 1167.17 55.6369C1166.12 56.0425 1165 56.2332 1163.87 56.1977H1101.7C1100 56.1933 1098.36 55.5143 1097.15 54.3092C1095.95 53.104 1095.27 51.4708 1095.26 49.7664V24.1411C1095.26 17.6832 1092.69 11.4917 1088.12 6.92522C1083.55 2.35876 1077.35 -0.209587 1070.89 -0.216212C1057.43 -0.216212 1046.49 10.7112 1046.49 20.2623V107.165C1046.49 115.673 1042.73 119.427 1038.1 119.427C1033.48 119.427 1029.69 115.673 1029.69 107.165V24.1411C1029.7 19.3197 1028.27 14.6061 1025.59 10.5965C1022.91 6.58695 1019.1 3.46157 1014.64 1.61572C1010.18 -0.230125 1005.27 -0.713507 1000.54 0.226705C995.808 1.16692 991.461 3.48849 988.048 6.89776C984.636 10.307 982.313 14.6508 981.372 19.3797C980.431 24.1086 980.914 29.0101 982.762 33.4642C984.609 37.9183 987.737 41.7249 991.75 44.4026C995.763 47.0802 1000.48 48.5085 1005.31 48.5068H1013.71V166.498C1013.71 168.724 1012.82 170.858 1011.25 172.432C1009.67 174.006 1007.53 174.89 1005.31 174.89C1003.08 174.89 1000.94 174.006 999.368 172.432C997.793 170.858 996.908 168.724 996.908 166.498V68.4348H980.912V166.498C981.03 172.883 983.652 178.967 988.213 183.441C992.774 187.915 998.911 190.421 1005.3 190.421C1011.69 190.421 1017.83 187.915 1022.39 183.441C1026.95 178.967 1029.58 172.883 1029.69 166.498V133.874C1032.38 134.893 1035.23 135.41 1038.1 135.401C1051.53 135.401 1062.48 124.473 1062.48 107.165V23.1318C1062.48 20.6293 1066.25 15.7579 1070.89 15.7579C1073.11 15.7623 1075.24 16.6469 1076.81 18.2181C1078.39 19.7894 1079.27 21.9191 1079.28 24.1411V49.7664C1079.28 55.7067 1081.65 61.4017 1085.85 65.6021C1090.06 69.8025 1095.76 72.1652 1101.7 72.1719H1163.87C1167.12 72.2318 1170.34 71.6457 1173.35 70.4479C1176.36 69.2501 1179.1 67.4646 1181.42 65.1957C1183.73 62.9268 1185.57 60.2201 1186.82 57.2336C1188.07 54.2471 1188.72 51.0408 1188.72 47.802C1188.72 44.5632 1188.07 41.3569 1186.82 38.3704C1185.57 35.3839 1183.73 32.6771 1181.42 30.4082C1179.1 28.1394 1176.36 26.3539 1173.35 25.1561C1170.34 23.9583 1167.12 23.3722 1163.87 23.4321V23.4405ZM1005.31 32.5328C1003.65 32.5328 1002.02 32.0406 1000.64 31.1185C999.259 30.1964 998.183 28.8858 997.547 27.3525C996.911 25.8191 996.745 24.1318 997.069 22.504C997.393 20.8762 998.193 19.381 999.368 18.2074C1000.54 17.0338 1002.04 16.2346 1003.67 15.9108C1005.3 15.587 1006.99 15.7532 1008.52 16.3883C1010.06 17.0235 1011.37 18.099 1012.29 19.479C1013.21 20.859 1013.71 22.4814 1013.71 24.1411V32.5328H1005.31Z" fill="var(--fill-0, white)"/>
<path id="Vector_83" d="M1103.51 90.9323C1097.04 90.939 1090.84 93.5068 1086.27 98.0727C1081.7 102.639 1079.12 108.83 1079.11 115.29V150.324V199.69C1079.11 201.393 1078.43 203.026 1077.22 204.229C1076.02 205.433 1074.38 206.11 1072.68 206.113H969.052C967.349 206.108 965.717 205.43 964.514 204.226C963.31 203.022 962.634 201.391 962.631 199.69V-76.0824H946.644V199.656C946.648 205.594 949.01 211.286 953.211 215.486C957.412 219.685 963.109 222.047 969.052 222.053H1072.68C1078.62 222.047 1084.32 219.685 1088.52 215.487C1092.73 211.288 1095.09 205.595 1095.1 199.656V190.155V115.29C1095.1 113.066 1095.98 110.934 1097.56 109.362C1099.13 107.79 1101.27 106.906 1103.49 106.906C1105.72 106.906 1107.85 107.79 1109.42 109.362C1111 110.934 1111.88 113.066 1111.88 115.29V140.631H1127.89V115.29C1127.88 108.833 1125.3 102.644 1120.73 98.0786C1116.16 93.5131 1109.97 90.9434 1103.51 90.9323Z" fill="var(--fill-0, white)"/>
<path id="Vector_84" d="M1198.21 -161.656V-82.3524C1198.21 -81.5089 1198.04 -80.6739 1197.72 -79.8951C1197.4 -79.1162 1196.92 -78.4088 1196.32 -77.8131C1195.73 -77.2174 1195.02 -76.7452 1194.24 -76.4235C1193.46 -76.1017 1192.62 -75.9366 1191.78 -75.9377H1129.09C1123.15 -75.9311 1117.46 -73.5719 1113.25 -69.3769C1109.05 -65.1819 1106.68 -59.4933 1106.67 -53.5573V22.476H1122.66V-53.5573C1122.67 -55.2609 1123.34 -56.8942 1124.55 -58.0996C1125.75 -59.305 1127.39 -59.9843 1129.09 -59.9887H1191.78C1197.72 -59.9931 1203.42 -62.3528 1207.62 -66.5501C1211.82 -70.7473 1214.19 -76.4394 1214.2 -82.3774V-161.656H1198.21Z" fill="var(--fill-0, white)"/>
<path id="Vector_85" d="M1164.02 519.464L1176.02 531.443L1188.01 519.464L1176.02 507.469L1164.02 519.464Z" fill="var(--fill-0, white)"/>
<path id="Vector_86" d="M1254.6 540.216H1229.24V556.207H1254.6C1261.07 556.207 1267.28 553.639 1271.85 549.068C1276.43 544.497 1279 538.297 1279 531.833C1279 525.369 1276.43 519.169 1271.85 514.598C1267.28 510.027 1261.07 507.459 1254.6 507.459H1229.24V523.45H1254.6C1256.83 523.45 1258.96 524.333 1260.54 525.905C1262.11 527.477 1263 529.61 1263 531.833C1263 534.056 1262.11 536.189 1260.54 537.761C1258.96 539.333 1256.83 540.216 1254.6 540.216Z" fill="var(--fill-0, white)"/>
<path id="Vector_87" d="M993.3 274.2L1005.31 286.187L993.3 298.166L981.303 286.187L993.3 274.2Z" fill="var(--fill-0, white)"/>
<path id="Vector_88" d="M1014.1 364.696V339.329H1030.08V364.671C1029.97 371.056 1027.34 377.14 1022.78 381.614C1018.22 386.088 1012.09 388.594 1005.69 388.594C999.302 388.594 993.165 386.088 988.604 381.614C984.043 377.14 981.421 371.056 981.303 364.671V339.329H997.299V364.671C997.299 366.896 998.184 369.031 999.759 370.605C1001.33 372.178 1003.47 373.062 1005.7 373.062C1007.93 373.062 1010.06 372.178 1011.64 370.605C1013.21 369.031 1014.1 366.896 1014.1 364.671" fill="var(--fill-0, white)"/>
<path id="Vector_89" d="M1250.72 572.972H1166.61C1164.11 572.972 1159.22 569.218 1159.22 564.588C1159.23 562.371 1160.12 560.249 1161.7 558.686C1163.27 557.124 1165.4 556.247 1167.62 556.247H1193.26C1199.21 556.24 1204.91 553.877 1209.11 549.677C1213.32 545.477 1215.68 539.782 1215.69 533.841V459.601C1215.69 457.901 1216.37 456.271 1217.57 455.068C1218.77 453.866 1220.41 453.189 1222.11 453.187H1247.76C1254.23 453.18 1260.43 450.611 1265 446.043C1269.57 441.475 1272.14 435.281 1272.15 428.821C1272.15 415.391 1261.2 404.455 1251.65 404.455H1164.67C1156.17 404.455 1152.4 400.685 1152.4 396.064C1152.4 391.443 1156.17 387.722 1164.67 387.722H1247.77C1252.59 387.722 1257.31 386.293 1261.32 383.616C1265.33 380.939 1268.46 377.135 1270.3 372.683C1272.15 368.231 1272.63 363.332 1271.69 358.606C1270.75 353.88 1268.43 349.538 1265.02 346.13C1261.61 342.722 1257.26 340.401 1252.53 339.46C1247.8 338.519 1242.9 339 1238.45 340.843C1233.99 342.686 1230.18 345.808 1227.5 349.814C1224.82 353.819 1223.39 358.529 1223.38 363.348V371.748H1164.67C1147.34 371.748 1136.4 382.676 1136.4 396.105C1136.4 409.535 1147.34 420.404 1164.67 420.404H1248.78C1251.29 420.404 1256.17 424.167 1256.17 428.796C1256.17 431.021 1255.28 433.154 1253.71 434.727C1252.13 436.301 1250 437.185 1247.77 437.188H1222.12C1216.17 437.194 1210.48 439.555 1206.28 443.752C1202.07 447.949 1199.71 453.64 1199.7 459.576V533.816C1199.69 535.518 1199.01 537.149 1197.81 538.351C1196.6 539.553 1194.97 540.229 1193.26 540.231H1167.62C1161.16 540.238 1154.95 542.808 1150.38 547.377C1145.81 551.947 1143.24 558.143 1143.23 564.605C1143.23 578.043 1154.17 588.962 1163.73 588.962H1250.72C1259.23 588.962 1262.99 592.733 1262.99 597.362C1262.99 601.992 1259.23 605.704 1250.72 605.704H1167.62C1162.8 605.702 1158.08 607.13 1154.07 609.806C1150.06 612.483 1146.93 616.287 1145.09 620.739C1143.24 625.192 1142.76 630.091 1143.7 634.818C1144.64 639.545 1146.96 643.887 1150.37 647.296C1153.78 650.704 1158.12 653.026 1162.85 653.966C1167.59 654.907 1172.49 654.425 1176.95 652.581C1181.4 650.737 1185.21 647.614 1187.89 643.607C1190.57 639.6 1192 634.889 1192 630.07V621.703H1250.72C1268.04 621.703 1278.98 610.767 1278.98 597.346C1278.98 583.924 1268.04 572.972 1250.72 572.972ZM1239.32 363.281C1239.32 361.622 1239.82 360.001 1240.74 358.622C1241.67 357.244 1242.98 356.169 1244.51 355.535C1246.05 354.901 1247.73 354.736 1249.36 355.06C1250.99 355.384 1252.49 356.183 1253.66 357.356C1254.83 358.529 1255.63 360.024 1255.96 361.651C1256.28 363.278 1256.12 364.964 1255.48 366.497C1254.85 368.03 1253.77 369.341 1252.39 370.264C1251.01 371.186 1249.39 371.68 1247.73 371.681H1239.32V363.281ZM1176.01 630.095C1176.01 631.755 1175.52 633.377 1174.6 634.758C1173.67 636.138 1172.36 637.213 1170.83 637.848C1169.29 638.483 1167.6 638.649 1165.97 638.324C1164.34 638 1162.85 637.2 1161.67 636.025C1160.5 634.851 1159.7 633.355 1159.38 631.727C1159.05 630.098 1159.22 628.411 1159.86 626.877C1160.5 625.344 1161.57 624.034 1162.96 623.113C1164.34 622.192 1165.96 621.701 1167.62 621.703H1176.01V630.095Z" fill="var(--fill-0, white)"/>
<path id="Vector_90" d="M1229 475.062L1240.99 463.084L1252.99 475.062L1240.99 487.049L1229 475.062Z" fill="var(--fill-0, white)"/>
<path id="Vector_91" d="M1229 308.314L1240.99 296.327L1252.99 308.314L1240.99 320.292L1229 308.314Z" fill="var(--fill-0, white)"/>
<path id="Vector_92" d="M1228.99 265.763L1240.99 253.785L1252.99 265.763L1240.99 277.75L1228.99 265.763Z" fill="var(--fill-0, white)"/>
<path id="Vector_93" d="M1108.04 589.845L1120.04 577.867L1132.03 589.845L1120.04 601.832L1108.04 589.845Z" fill="var(--fill-0, white)"/>
<path id="Vector_94" d="M1045.05 589.845L1057.05 577.867L1069.05 589.845L1057.05 601.832L1045.05 589.845Z" fill="var(--fill-0, white)"/>
<path id="Vector_95" d="M1155.74 277.391V322.252H1139.76V277.391C1139.87 271.006 1142.5 264.922 1147.06 260.448C1151.62 255.974 1157.75 253.468 1164.15 253.468C1170.54 253.468 1176.68 255.974 1181.24 260.448C1185.8 264.922 1188.42 271.006 1188.54 277.391V302.716H1172.55V277.391C1172.48 275.21 1171.57 273.142 1170 271.623C1168.43 270.105 1166.33 269.256 1164.15 269.256C1161.96 269.256 1159.86 270.105 1158.3 271.623C1156.73 273.142 1155.81 275.21 1155.74 277.391Z" fill="var(--fill-0, white)"/>
<path id="Vector_96" d="M1164.63 438.467H1139.28V454.441H1164.63C1166.86 454.441 1169 455.325 1170.57 456.899C1172.15 458.473 1173.03 460.607 1173.03 462.833C1173.03 465.058 1172.15 467.193 1170.57 468.767C1169 470.34 1166.86 471.224 1164.63 471.224H1102.45C1100.75 471.222 1099.12 470.546 1097.91 469.344C1096.7 468.142 1096.02 466.512 1096.02 464.81V439.176C1096.01 432.716 1093.44 426.521 1088.87 421.952C1084.3 417.382 1078.1 414.811 1071.64 414.802C1058.18 414.802 1047.24 425.738 1047.24 435.297V522.191C1047.24 530.7 1043.48 534.47 1038.85 534.47C1034.23 534.47 1030.46 530.7 1030.46 522.191V439.176C1030.46 434.357 1029.03 429.646 1026.35 425.639C1023.67 421.632 1019.86 418.509 1015.41 416.665C1010.95 414.821 1006.05 414.338 1001.32 415.279C996.586 416.219 992.241 418.539 988.83 421.947C985.42 425.355 983.097 429.696 982.156 434.423C981.215 439.149 981.698 444.048 983.544 448.5C985.39 452.953 988.515 456.758 992.526 459.436C996.536 462.113 1001.25 463.542 1006.07 463.542H1014.47V581.517C1014.47 583.742 1013.59 585.877 1012.01 587.45C1010.44 589.024 1008.3 589.908 1006.07 589.908C1003.85 589.908 1001.71 589.024 1000.14 587.45C998.56 585.877 997.675 583.742 997.675 581.517V483.47H981.671V581.517C981.671 587.979 984.24 594.176 988.814 598.746C993.387 603.315 999.59 605.882 1006.06 605.882C1012.53 605.882 1018.73 603.315 1023.3 598.746C1027.87 594.176 1030.44 587.979 1030.44 581.517V548.909C1033.13 549.931 1035.98 550.451 1038.85 550.444C1052.29 550.444 1063.23 539.508 1063.23 522.191V438.175C1063.23 435.673 1067 430.793 1071.64 430.793C1073.85 430.804 1075.98 431.692 1077.54 433.263C1079.11 434.834 1079.99 436.96 1079.99 439.176V464.81C1080 470.746 1082.36 476.436 1086.57 480.632C1090.77 484.827 1096.47 487.186 1102.41 487.19H1164.59C1167.83 487.25 1171.05 486.664 1174.06 485.467C1177.07 484.269 1179.81 482.485 1182.13 480.216C1184.44 477.948 1186.28 475.243 1187.53 472.257C1188.78 469.272 1189.43 466.066 1189.43 462.829C1189.43 459.591 1188.78 456.386 1187.53 453.4C1186.28 450.415 1184.44 447.709 1182.13 445.441C1179.81 443.173 1177.07 441.388 1174.06 440.19C1171.05 438.993 1167.83 438.407 1164.59 438.467H1164.63ZM1006.06 447.559C1004.4 447.558 1002.77 447.064 1001.39 446.14C1000.01 445.216 998.94 443.903 998.308 442.369C997.675 440.834 997.513 439.147 997.841 437.52C998.169 435.893 998.973 434.401 1000.15 433.231C1001.33 432.061 1002.83 431.266 1004.46 430.948C1006.09 430.63 1007.78 430.803 1009.31 431.444C1010.84 432.085 1012.15 433.166 1013.06 434.55C1013.98 435.934 1014.46 437.558 1014.46 439.218V447.559H1006.06Z" fill="var(--fill-0, white)"/>
<path id="Vector_97" d="M1104.27 505.96C1097.8 505.964 1091.59 508.536 1087.02 513.109C1082.44 517.683 1079.87 523.884 1079.87 530.35V605.199V614.709C1079.87 616.41 1079.19 618.04 1077.99 619.243C1076.78 620.445 1075.15 621.121 1073.45 621.123H969.812C968.11 621.121 966.479 620.445 965.275 619.242C964.071 618.04 963.394 616.409 963.392 614.709V338.928H947.404V614.692C947.401 617.635 947.978 620.55 949.102 623.27C950.227 625.99 951.877 628.462 953.958 630.545C956.038 632.628 958.51 634.281 961.23 635.41C963.95 636.538 966.867 637.12 969.812 637.122H1073.45C1079.39 637.118 1085.09 634.758 1089.29 630.56C1093.49 626.363 1095.85 620.671 1095.86 614.734V605.224V530.35C1095.86 528.127 1096.75 525.995 1098.32 524.423C1099.89 522.85 1102.03 521.967 1104.25 521.967C1106.48 521.967 1108.61 522.85 1110.19 524.423C1111.76 525.995 1112.64 528.127 1112.64 530.35V555.684H1128.65V530.35C1128.64 523.888 1126.08 517.691 1121.51 513.118C1116.94 508.545 1110.74 505.971 1104.27 505.96Z" fill="var(--fill-0, white)"/>
<path id="Vector_98" d="M1198.96 253.467V332.754C1198.96 333.597 1198.8 334.432 1198.47 335.211C1198.15 335.99 1197.67 336.697 1197.08 337.293C1196.48 337.888 1195.77 338.361 1194.99 338.682C1194.21 339.004 1193.37 339.169 1192.53 339.168H1129.81C1123.87 339.173 1118.17 341.533 1113.97 345.73C1109.77 349.928 1107.4 355.62 1107.4 361.557V437.599H1123.38V361.557C1123.4 359.861 1124.08 358.24 1125.28 357.045C1126.49 355.849 1128.11 355.178 1129.81 355.176H1192.49C1195.44 355.179 1198.37 354.601 1201.09 353.476C1203.82 352.351 1206.29 350.7 1208.38 348.618C1210.47 346.535 1212.13 344.063 1213.26 341.341C1214.39 338.618 1214.97 335.701 1214.97 332.754V253.467H1198.96Z" fill="var(--fill-0, white)"/>
<path id="Vector_99" d="M1104.06 253.527C1097.6 253.531 1091.4 256.099 1086.82 260.668C1082.25 265.236 1079.68 271.431 1079.67 277.892V360.908C1079.67 369.416 1075.9 373.178 1071.32 373.178C1066.74 373.178 1062.91 369.416 1062.91 360.908V274.014C1062.91 264.454 1051.97 253.527 1038.54 253.527C1032.07 253.531 1025.87 256.099 1021.29 260.668C1016.72 265.236 1014.15 271.431 1014.14 277.892V303.526C1014.14 305.227 1013.46 306.857 1012.26 308.059C1011.05 309.262 1009.42 309.938 1007.72 309.941H967.312C965.609 309.938 963.976 309.261 962.772 308.056C961.568 306.852 960.892 305.22 960.892 303.518V277.892C960.883 271.447 958.322 265.267 953.769 260.702C949.216 256.137 943.039 253.558 936.589 253.527C934.373 253.509 932.253 252.619 930.69 251.049C929.127 249.48 928.246 247.358 928.24 245.143V219.51C928.236 213.571 925.872 207.877 921.669 203.678C917.467 199.478 911.767 197.117 905.824 197.113H865.449C859.507 197.122 853.812 199.484 849.611 203.683C845.41 207.881 843.048 213.573 843.041 219.51V245.143C843.034 247.368 842.146 249.499 840.57 251.07C838.995 252.641 836.86 253.524 834.634 253.527C830.009 253.527 826.243 248.613 826.243 246.136V162.111C826.243 144.803 815.307 133.875 801.848 133.875C788.39 133.875 777.503 144.803 777.503 162.111V220.769H769.063C764.24 220.771 759.527 222.201 755.518 224.879C751.508 227.557 748.384 231.363 746.539 235.815C744.695 240.266 744.212 245.165 745.154 249.891C746.095 254.616 748.417 258.957 751.827 262.364C755.237 265.771 759.582 268.092 764.312 269.032C769.041 269.973 773.944 269.491 778.4 267.648C782.855 265.804 786.664 262.683 789.345 258.677C792.025 254.671 793.456 249.962 793.458 245.143V162.111C793.458 153.603 797.215 149.849 801.848 149.849C806.482 149.849 810.256 153.603 810.256 162.111V249.022C810.256 258.565 821.192 269.501 834.634 269.501C841.1 269.496 847.299 266.929 851.873 262.363C856.446 257.796 859.02 251.604 859.029 245.143V219.51C859.031 217.808 859.708 216.177 860.911 214.973C862.115 213.77 863.746 213.091 865.449 213.087H905.807C907.51 213.091 909.141 213.77 910.345 214.973C911.548 216.177 912.225 217.808 912.227 219.51V245.143C912.238 251.588 914.801 257.767 919.356 262.331C923.911 266.895 930.088 269.472 936.539 269.501C938.756 269.514 940.878 270.403 942.442 271.973C944.006 273.544 944.885 275.669 944.887 277.884V303.509C944.894 309.446 947.257 315.138 951.457 319.336C955.658 323.535 961.354 325.898 967.295 325.906H1007.68C1013.62 325.898 1019.31 323.536 1023.51 319.339C1027.71 315.142 1030.08 309.453 1030.09 303.518V277.892C1030.09 275.667 1030.98 273.534 1032.55 271.961C1034.13 270.388 1036.27 269.503 1038.49 269.501C1043.12 269.501 1046.84 274.406 1046.84 276.891V360.908C1046.84 378.233 1057.78 389.16 1071.24 389.16C1084.7 389.16 1095.62 378.233 1095.62 360.908V302.258H1104.02C1110.49 302.258 1116.69 299.691 1121.27 295.122C1125.84 290.552 1128.41 284.355 1128.41 277.892C1128.41 271.43 1125.84 265.233 1121.27 260.663C1116.69 256.094 1110.49 253.527 1104.02 253.527H1104.06ZM777.503 245.143C777.499 246.8 777.003 248.419 776.079 249.794C775.155 251.17 773.844 252.242 772.311 252.874C770.778 253.507 769.093 253.672 767.466 253.349C765.84 253.025 764.345 252.228 763.172 251.058C761.998 249.888 761.197 248.396 760.87 246.772C760.544 245.147 760.706 243.463 761.336 241.93C761.966 240.397 763.036 239.085 764.411 238.16C765.786 237.234 767.405 236.735 769.063 236.727H777.503V245.143ZM1104.1 286.284H1095.66V277.892C1095.66 276.233 1096.15 274.611 1097.07 273.231C1097.99 271.851 1099.31 270.776 1100.84 270.14C1102.37 269.505 1104.06 269.338 1105.69 269.661C1107.32 269.985 1108.82 270.783 1109.99 271.956C1111.17 273.128 1111.97 274.623 1112.29 276.25C1112.62 277.877 1112.45 279.564 1111.82 281.098C1111.18 282.631 1110.11 283.943 1108.73 284.866C1107.35 285.789 1105.73 286.282 1104.06 286.284H1104.1Z" fill="var(--fill-0, white)"/>
<path id="Vector_100" d="M815.46 413.67L827.449 401.675L839.446 413.67L827.449 425.649L815.46 413.67Z" fill="var(--fill-0, white)"/>
<path id="Vector_101" d="M906.068 392.896H880.671V376.922H906.068C909.308 376.862 912.527 377.448 915.538 378.646C918.549 379.843 921.29 381.628 923.603 383.896C925.915 386.164 927.752 388.87 929.006 391.855C930.26 394.841 930.906 398.046 930.906 401.284C930.906 404.522 930.26 407.727 929.006 410.712C927.752 413.698 925.915 416.404 923.603 418.672C921.29 420.94 918.549 422.725 915.538 423.922C912.527 425.119 909.308 425.705 906.068 425.645H880.671V409.671H906.068C907.192 409.707 908.313 409.516 909.362 409.11C910.412 408.705 911.369 408.093 912.177 407.31C912.985 406.528 913.628 405.591 914.066 404.556C914.505 403.521 914.731 402.408 914.731 401.284C914.731 400.16 914.505 399.047 914.066 398.012C913.628 396.976 912.985 396.04 912.177 395.257C911.369 394.475 910.412 393.863 909.362 393.457C908.313 393.052 907.192 392.861 906.068 392.896Z" fill="var(--fill-0, white)"/>
<path id="Vector_102" d="M644.751 658.918L656.748 646.931L644.751 634.944L632.754 646.931L644.751 658.918Z" fill="var(--fill-0, white)"/>
<path id="Vector_103" d="M665.532 568.425V593.75H681.537V568.425C681.418 562.04 678.797 555.956 674.235 551.482C669.674 547.008 663.538 544.502 657.146 544.502C650.754 544.502 644.617 547.008 640.056 551.482C635.495 555.956 632.873 562.04 632.755 568.425V593.75H648.751V568.425C648.751 566.201 649.635 564.069 651.209 562.497C652.782 560.925 654.916 560.042 657.142 560.042C659.367 560.042 661.501 560.925 663.075 562.497C664.648 564.069 665.532 566.201 665.532 568.425Z" fill="var(--fill-0, white)"/>
<path id="Vector_104" d="M818.063 360.181H902.16C919.5 360.181 930.437 349.245 930.437 335.807C930.437 322.369 919.5 311.449 902.16 311.449H843.46V303.016C843.461 298.195 842.032 293.482 839.352 289.472C836.673 285.463 832.863 282.338 828.406 280.492C823.949 278.645 819.043 278.162 814.311 279.101C809.578 280.041 805.23 282.361 801.818 285.77C798.405 289.178 796.081 293.521 795.139 298.25C794.197 302.978 794.68 307.879 796.526 312.333C798.372 316.788 801.499 320.595 805.511 323.273C809.523 325.952 814.239 327.382 819.065 327.382H902.16C910.675 327.382 914.449 331.144 914.449 335.765C914.449 340.386 910.675 344.165 902.16 344.165H815.183C805.615 344.165 794.67 355.093 794.67 368.522C794.678 374.984 797.252 381.179 801.825 385.748C806.398 390.317 812.597 392.888 819.065 392.896H844.72C846.423 392.896 848.056 393.572 849.26 394.775C850.464 395.978 851.141 397.61 851.141 399.311V473.551C851.149 479.479 853.509 485.162 857.703 489.355C861.896 493.548 867.582 495.91 873.515 495.923H899.171C901.396 495.927 903.529 496.813 905.102 498.386C906.675 499.959 907.559 502.091 907.561 504.315C907.561 508.944 902.652 512.706 900.181 512.706H816.109C798.777 512.706 787.832 523.634 787.832 537.072C787.832 550.51 798.777 561.429 816.109 561.429H874.809V569.829C874.809 574.65 876.24 579.363 878.92 583.371C881.601 587.379 885.411 590.503 889.869 592.348C894.326 594.193 899.231 594.675 903.963 593.735C908.696 592.795 913.042 590.473 916.454 587.064C919.866 583.656 922.189 579.313 923.13 574.584C924.072 569.856 923.589 564.956 921.742 560.502C919.896 556.048 916.769 552.241 912.757 549.563C908.746 546.885 904.029 545.455 899.204 545.455H816.109C807.593 545.455 803.82 541.702 803.82 537.072C803.82 532.442 807.56 528.68 816.109 528.68H903.086C912.662 528.68 923.599 517.753 923.599 504.323C923.593 497.861 921.02 491.667 916.446 487.098C911.872 482.53 905.671 479.962 899.204 479.957H873.515C871.813 479.955 870.181 479.279 868.978 478.076C867.774 476.874 867.097 475.243 867.095 473.543V399.303C867.088 393.367 864.725 387.676 860.524 383.479C856.324 379.282 850.628 376.921 844.687 376.914H819.065C816.845 376.899 814.722 376.007 813.158 374.433C811.594 372.86 810.716 370.732 810.716 368.514C810.674 363.893 815.583 360.181 818.063 360.181ZM827.455 311.449H819.065C817.403 311.451 815.779 310.96 814.396 310.039C813.014 309.118 811.936 307.808 811.299 306.275C810.662 304.742 810.495 303.054 810.818 301.426C811.141 299.798 811.94 298.301 813.115 297.127C814.289 295.953 815.785 295.153 817.415 294.828C819.044 294.504 820.733 294.669 822.268 295.304C823.804 295.939 825.116 297.015 826.039 298.395C826.962 299.775 827.455 301.398 827.455 303.058V311.449ZM890.78 561.471H899.171C900.832 561.469 902.456 561.96 903.838 562.881C905.22 563.801 906.298 565.111 906.935 566.644C907.573 568.176 907.741 569.864 907.418 571.492C907.096 573.12 906.297 574.616 905.124 575.791C903.951 576.965 902.455 577.766 900.826 578.091C899.197 578.417 897.508 578.252 895.973 577.619C894.437 576.985 893.125 575.911 892.2 574.532C891.276 573.153 890.782 571.531 890.78 569.871V561.471Z" fill="var(--fill-0, white)"/>
<path id="Vector_105" d="M880.436 458.052L892.441 470.047L904.438 458.052L892.441 446.065L880.436 458.052Z" fill="var(--fill-0, white)"/>
<path id="Vector_106" d="M759.474 343.274L771.471 355.269L783.476 343.274L771.471 331.287L759.474 343.274Z" fill="var(--fill-0, white)"/>
<path id="Vector_107" d="M696.498 343.275L708.495 355.27L720.492 343.275L708.495 331.288L696.498 343.275Z" fill="var(--fill-0, white)"/>
<path id="Vector_108" d="M807.202 655.733V610.864H791.197V655.733C791.197 662.197 793.767 668.397 798.342 672.968C802.917 677.539 809.122 680.107 815.592 680.107C822.062 680.107 828.267 677.539 832.842 672.968C837.417 668.397 839.987 662.197 839.987 655.733V630.4H823.983V655.733C823.983 657.956 823.099 660.089 821.525 661.661C819.952 663.233 817.818 664.116 815.592 664.116C813.367 664.116 811.233 663.233 809.659 661.661C808.086 660.089 807.202 657.956 807.202 655.733Z" fill="var(--fill-0, white)"/>
<path id="Vector_109" d="M816.087 445.921H753.889C747.944 445.928 742.245 448.291 738.043 452.491C733.84 456.692 731.477 462.387 731.473 468.327V493.943C731.47 496.169 730.585 498.303 729.011 499.878C727.436 501.452 725.301 502.339 723.074 502.343C718.448 502.343 714.683 497.43 714.683 494.944V410.928C714.683 393.611 703.738 382.675 690.288 382.675C687.418 382.665 684.57 383.186 681.889 384.21V351.603C681.949 348.365 681.363 345.147 680.164 342.138C678.965 339.129 677.178 336.389 674.907 334.077C672.636 331.766 669.927 329.93 666.938 328.677C663.949 327.424 660.74 326.778 657.499 326.778C654.257 326.778 651.048 327.424 648.059 328.677C645.07 329.93 642.361 331.766 640.09 334.077C637.819 336.389 636.032 339.129 634.833 342.138C633.634 345.147 633.048 348.365 633.108 351.603V449.641H649.104V351.603C649.104 350.501 649.321 349.41 649.743 348.392C650.165 347.374 650.784 346.449 651.564 345.669C652.344 344.89 653.27 344.272 654.289 343.85C655.308 343.429 656.4 343.212 657.503 343.212C658.606 343.212 659.698 343.429 660.717 343.85C661.736 344.272 662.662 344.89 663.442 345.669C664.221 346.449 664.84 347.374 665.262 348.392C665.684 349.41 665.902 350.501 665.902 351.603V410.728C665.902 410.795 665.902 410.862 665.902 410.928V469.586H657.553C652.73 469.588 648.015 471.018 644.006 473.697C639.996 476.376 636.872 480.182 635.028 484.635C633.183 489.088 632.702 493.987 633.645 498.714C634.587 503.44 636.911 507.78 640.323 511.187C643.735 514.593 648.081 516.912 652.812 517.851C657.543 518.789 662.446 518.305 666.901 516.46C671.357 514.614 675.164 511.49 677.843 507.482C680.521 503.474 681.949 498.763 681.948 493.943V410.928C681.948 402.42 685.705 398.666 690.338 398.666C694.972 398.666 698.687 402.42 698.687 410.928V497.822C698.687 507.382 709.632 518.318 723.082 518.318C729.544 518.302 735.737 515.728 740.303 511.159C744.869 506.591 747.437 500.4 747.444 493.943V468.327C747.443 467.483 747.608 466.648 747.93 465.868C748.252 465.088 748.724 464.38 749.321 463.782C749.917 463.185 750.625 462.711 751.404 462.387C752.184 462.064 753.02 461.896 753.864 461.895H816.062C818.289 461.895 820.426 462.779 822.001 464.353C823.576 465.927 824.461 468.061 824.461 470.287C824.461 472.512 823.576 474.647 822.001 476.221C820.426 477.794 818.289 478.678 816.062 478.678H790.724V494.653H816.087C822.555 494.653 828.758 492.085 833.331 487.516C837.904 482.947 840.474 476.749 840.474 470.287C840.474 463.825 837.904 457.627 833.331 453.058C828.758 448.488 822.555 445.921 816.087 445.921ZM665.893 493.943C665.885 495.591 665.388 497.2 664.466 498.566C663.544 499.933 662.237 500.995 660.711 501.62C659.184 502.245 657.507 502.405 655.89 502.078C654.274 501.751 652.79 500.954 651.626 499.785C650.463 498.617 649.672 497.131 649.353 495.514C649.034 493.897 649.202 492.222 649.835 490.7C650.468 489.178 651.538 487.878 652.911 486.963C654.283 486.048 655.895 485.56 657.544 485.56H665.893V493.943Z" fill="var(--fill-0, white)"/>
<path id="Vector_110" d="M764.089 377.457V402.781C764.089 405.007 763.204 407.141 761.629 408.715C760.054 410.289 757.918 411.173 755.69 411.173C753.463 411.173 751.326 410.289 749.751 408.715C748.176 407.141 747.291 405.007 747.291 402.781V318.473C747.293 312.533 744.937 306.834 740.739 302.628C736.542 298.421 730.845 296.05 724.9 296.035H621.259C615.308 296.041 609.603 298.408 605.398 302.616C601.193 306.824 598.832 312.527 598.834 318.473V594.187H614.822V318.473C614.824 316.769 615.503 315.135 616.71 313.931C617.917 312.727 619.553 312.05 621.259 312.05H724.9C725.744 312.05 726.58 312.216 727.36 312.539C728.14 312.862 728.849 313.335 729.446 313.932C730.043 314.528 730.516 315.236 730.839 316.015C731.162 316.795 731.328 317.63 731.328 318.473V327.974V402.823C731.328 409.285 733.898 415.483 738.471 420.052C743.045 424.622 749.247 427.189 755.715 427.189C762.183 427.189 768.386 424.622 772.959 420.052C777.532 415.483 780.102 409.285 780.102 402.823V377.457H764.089Z" fill="var(--fill-0, white)"/>
<path id="Vector_111" d="M843.985 577.973H781.294C779.592 577.973 777.959 577.297 776.755 576.094C775.551 574.891 774.874 573.26 774.874 571.558V495.517H758.878V571.558C758.885 577.496 761.248 583.189 765.451 587.388C769.653 591.587 775.351 593.949 781.294 593.955H843.985C845.687 593.958 847.319 594.634 848.522 595.837C849.726 597.039 850.403 598.67 850.405 600.37V679.665H866.393V600.37C866.389 594.433 864.027 588.74 859.825 584.541C855.624 580.342 849.927 577.98 843.985 577.973Z" fill="var(--fill-0, white)"/>
<path id="Vector_112" d="M755.495 630.956H747.147V572.298C747.147 554.981 736.21 544.054 722.752 544.054C709.293 544.054 698.357 554.981 698.357 572.298V656.306C698.357 658.809 694.6 663.697 689.966 663.697C687.747 663.681 685.623 662.789 684.059 661.216C682.495 659.642 681.617 657.514 681.617 655.297V629.696C681.611 623.757 679.246 618.063 675.042 613.864C670.837 609.665 665.137 607.304 659.193 607.299H618.76C612.815 607.304 607.115 609.665 602.911 613.864C598.707 618.063 596.342 623.757 596.335 629.696V655.313C596.331 657.53 595.452 659.655 593.889 661.228C592.325 662.8 590.205 663.694 587.986 663.713V679.662C594.446 679.643 600.634 677.067 605.197 672.499C609.759 667.93 612.325 661.742 612.331 655.288V629.696C612.331 627.993 613.009 626.359 614.214 625.155C615.42 623.95 617.055 623.274 618.76 623.274H659.109C659.953 623.274 660.789 623.44 661.568 623.763C662.348 624.085 663.056 624.559 663.652 625.155C664.248 625.752 664.721 626.46 665.043 627.239C665.365 628.018 665.531 628.853 665.529 629.696V655.313C665.545 661.771 668.121 667.959 672.693 672.523C677.265 677.086 683.462 679.654 689.924 679.662C703.374 679.662 714.319 668.727 714.319 659.167V572.298C714.319 563.79 718.085 560.036 722.71 560.036C727.335 560.036 731.109 563.79 731.109 572.298V655.313C731.105 660.135 732.534 664.85 735.213 668.86C737.891 672.871 741.701 675.998 746.159 677.845C750.616 679.692 755.522 680.176 760.256 679.237C764.989 678.298 769.338 675.977 772.751 672.568C776.164 669.159 778.488 664.815 779.43 660.086C780.372 655.357 779.888 650.455 778.041 646.001C776.194 641.546 773.066 637.739 769.053 635.061C765.039 632.383 760.321 630.954 755.495 630.956ZM755.495 663.713C753.276 663.698 751.152 662.806 749.588 661.233C748.024 659.659 747.147 657.531 747.147 655.313V646.972H755.495C757.723 646.972 759.859 647.856 761.434 649.43C763.009 651.003 763.894 653.138 763.894 655.363C763.894 657.589 763.009 659.724 761.434 661.297C759.859 662.871 757.723 663.755 755.495 663.755V663.713Z" fill="var(--fill-0, white)"/>
<path id="Vector_113" d="M1103.3 -161.599C1096.83 -161.597 1090.63 -159.03 1086.05 -154.462C1081.47 -149.893 1078.9 -143.697 1078.89 -137.233V-54.2098C1078.89 -45.7014 1075.12 -41.9477 1070.54 -41.9477C1065.96 -41.9477 1062.13 -45.7014 1062.13 -54.2098V-141.146C1062.11 -150.663 1051.16 -161.599 1037.73 -161.599C1031.26 -161.592 1025.06 -159.024 1020.49 -154.456C1015.92 -149.888 1013.34 -143.694 1013.34 -137.233V-111.608C1013.33 -109.908 1012.66 -108.277 1011.45 -107.075C1010.25 -105.872 1008.62 -105.196 1006.92 -105.193H966.558C964.855 -105.193 963.222 -105.869 962.018 -107.072C960.814 -108.275 960.138 -109.907 960.138 -111.608V-137.233C960.127 -143.688 957.557 -149.875 952.992 -154.442C948.426 -159.008 942.236 -161.581 935.776 -161.599L598.312 -161.574V-145.458H936.87C937.061 -145.471 937.254 -145.471 937.446 -145.458C937.665 -145.417 937.883 -145.364 938.097 -145.3C938.412 -145.207 938.722 -145.096 939.024 -144.966C939.309 -144.838 939.587 -144.696 939.858 -144.541C940.147 -144.382 940.425 -144.206 940.693 -144.015C940.954 -143.825 941.202 -143.619 941.436 -143.398C941.672 -143.179 941.895 -142.948 942.104 -142.705C942.315 -142.463 942.511 -142.206 942.689 -141.938C942.871 -141.67 943.039 -141.391 943.19 -141.104C943.339 -140.813 943.472 -140.516 943.59 -140.211C943.709 -139.901 943.807 -139.584 943.883 -139.26C943.965 -138.934 944.026 -138.602 944.066 -138.268C944.107 -137.927 944.126 -137.585 944.125 -137.242V-111.608C944.129 -105.669 946.492 -99.9735 950.695 -95.7729C954.897 -91.5723 960.596 -89.2093 966.541 -89.2027H1006.9C1012.84 -89.2115 1018.54 -91.5755 1022.74 -95.7758C1026.94 -99.9762 1029.3 -105.67 1029.31 -111.608V-137.233C1029.31 -139.462 1030.2 -141.598 1031.78 -143.171C1033.36 -144.745 1035.5 -145.627 1037.73 -145.625C1042.36 -145.625 1046.08 -140.712 1046.08 -138.243V-54.2098C1046.08 -36.9011 1057.02 -25.9736 1070.47 -25.9736C1083.93 -25.9736 1094.85 -36.9011 1094.85 -54.2098V-112.868H1103.26C1109.73 -112.868 1115.93 -115.435 1120.5 -120.004C1125.08 -124.574 1127.65 -130.771 1127.65 -137.233C1127.65 -143.696 1125.08 -149.893 1120.5 -154.463C1115.93 -159.032 1109.73 -161.599 1103.26 -161.599H1103.3ZM1103.3 -128.842H1094.89V-137.233C1094.89 -138.893 1095.39 -140.515 1096.31 -141.895C1097.23 -143.274 1098.54 -144.35 1100.08 -144.985C1101.61 -145.621 1103.3 -145.787 1104.93 -145.464C1106.56 -145.141 1108.05 -144.343 1109.23 -143.17C1110.4 -141.997 1111.2 -140.503 1111.53 -138.876C1111.85 -137.248 1111.69 -135.561 1111.06 -134.028C1110.42 -132.494 1109.35 -131.183 1107.97 -130.26C1106.59 -129.337 1104.96 -128.843 1103.3 -128.842Z" fill="var(--fill-0, white)"/>
<path id="Vector_114" d="M930.566 666.828C929.474 666.858 928.387 666.668 927.37 666.269C926.353 665.87 925.427 665.271 924.648 664.506C923.869 663.741 923.252 662.827 922.834 661.819C922.416 660.81 922.206 659.728 922.217 658.637V633.003C922.21 627.067 919.847 621.377 915.646 617.179C911.445 612.982 905.75 610.621 899.809 610.614H873.427V626.588H899.792C901.495 626.588 903.128 627.264 904.332 628.467C905.536 629.67 906.212 631.302 906.212 633.003V658.637C906.219 665.091 908.786 671.28 913.35 675.847C917.915 680.414 924.106 682.987 930.566 683.002H1267.7V666.828H930.566Z" fill="var(--fill-0, white)"/>
</g>
<defs>
<clipPath id="clip0_6535_164">
<rect width="1278" height="160" fill="white"/>
</clipPath>
</defs>
</svg>
