<svg preserveAspectRatio="none" width="100%" height="100%" overflow="visible" style="display: block;" viewBox="0 0 20 20" fill="none" xmlns="http://www.w3.org/2000/svg">
<g id="MuiSvgIconRoot">
<path id="Vector" d="M9.16699 5.83341H10.8337V7.50008H9.16699V5.83341ZM9.16699 9.16675H10.8337V14.1667H9.16699V9.16675ZM10.0003 1.66675C5.40033 1.66675 1.66699 5.40008 1.66699 10.0001C1.66699 14.6001 5.40033 18.3334 10.0003 18.3334C14.6003 18.3334 18.3337 14.6001 18.3337 10.0001C18.3337 5.40008 14.6003 1.66675 10.0003 1.66675ZM10.0003 16.6667C6.32533 16.6667 3.33366 13.6751 3.33366 10.0001C3.33366 6.32508 6.32533 3.33341 10.0003 3.33341C13.6753 3.33341 16.667 6.32508 16.667 10.0001C16.667 13.6751 13.6753 16.6667 10.0003 16.6667Z" fill="var(--fill-0, white)"/>
</g>
</svg>
