<svg width="42" height="42" viewBox="0 0 42 42" fill="none" xmlns="http://www.w3.org/2000/svg">
<g clip-path="url(#clip0_3097_10220)">
<path d="M20.9996 3.78415C26.6068 3.78415 27.2715 3.80534 29.4853 3.90579C31.5328 4.00232 32.6464 4.34134 33.3848 4.63013C34.297 4.96603 35.1222 5.50239 35.7995 6.19967C36.4963 6.87716 37.0325 7.70196 37.3691 8.61361C37.6563 9.35365 37.9969 10.4657 38.0919 12.5131C38.1931 14.7277 38.2143 15.3917 38.2143 20.9988C38.2143 26.606 38.1931 27.2707 38.0919 29.4845C37.9985 31.532 37.6563 32.644 37.3691 33.384C37.0196 34.2898 36.4844 35.1123 35.798 35.7988C35.1115 36.4852 34.289 37.0204 33.3832 37.3699C32.6432 37.6571 31.5312 37.9977 29.4837 38.0926C27.2715 38.1947 26.6076 38.2182 20.9996 38.2182C15.3917 38.2182 14.7277 38.197 12.5139 38.0958C10.4665 38.0024 9.35443 37.6602 8.6144 37.373C7.70274 37.0365 6.87794 36.5002 6.20045 35.8035C5.50318 35.1261 4.96681 34.301 4.63092 33.3887C4.34291 32.6487 4.0031 31.5367 3.90736 29.4892C3.80691 27.2754 3.78572 26.6107 3.78572 21.0035C3.78572 15.3964 3.80691 14.7324 3.90736 12.5178C4.00232 10.4665 4.34134 9.35443 4.63013 8.6144C4.96593 7.70214 5.50231 6.87692 6.19967 6.19967C6.8767 5.50241 7.70163 4.96604 8.61361 4.63013C9.35365 4.34212 10.4657 4.00232 12.5131 3.90657C14.7277 3.80612 15.3917 3.78494 20.9988 3.78494M20.9988 0.000784768C15.2959 0.000784768 14.581 0.0251126 12.3405 0.127132C10.1 0.229152 8.57987 0.583083 7.24419 1.1026C5.84301 1.62997 4.57362 2.45642 3.52439 3.52439C2.45642 4.57362 1.62997 5.84301 1.1026 7.24419C0.583083 8.5783 0.228367 10.1062 0.126348 12.3413C0.0243278 14.5763 0 15.2967 0 20.9996C0 26.7025 0.0243278 27.4182 0.126348 29.658C0.228367 31.8977 0.583083 33.4193 1.1026 34.7589C1.63001 36.1599 2.45646 37.429 3.52439 38.478C4.57338 39.5464 5.84282 40.3732 7.24419 40.9005C8.5783 41.4193 10.1062 41.7748 12.3413 41.8768C14.5763 41.9788 15.2967 42.0031 20.9996 42.0031C26.7025 42.0031 27.4182 41.9788 29.658 41.8768C31.8977 41.7748 33.4193 41.4193 34.7589 40.9005C36.1537 40.3606 37.4204 39.5355 38.4779 38.4779C39.5355 37.4204 40.3606 36.1537 40.9005 34.7589C41.4193 33.4248 41.7748 31.8961 41.8768 29.658C41.9788 27.4198 42.0031 26.7033 42.0031 20.9996C42.0031 15.2959 41.9788 14.5818 41.8768 12.3413C41.7748 10.1007 41.4193 8.57987 40.9005 7.24419C40.3732 5.84282 39.5464 4.57338 38.478 3.52439C37.429 2.45646 36.1599 1.63001 34.7589 1.1026C33.4248 0.583083 31.8961 0.228367 29.658 0.126348C27.4198 0.0243278 26.7033 0 20.9996 0L20.9988 0.000784768Z" fill="white"/>
<path d="M21.0001 10.2167C18.8673 10.2167 16.7825 10.8491 15.0091 12.034C13.2358 13.2189 11.8536 14.9031 11.0375 16.8735C10.2213 18.8439 10.0077 21.0121 10.4238 23.1039C10.8399 25.1957 11.8669 27.1172 13.375 28.6253C14.8831 30.1334 16.8046 31.1604 18.8964 31.5765C20.9882 31.9926 23.1564 31.779 25.1268 30.9628C27.0972 30.1466 28.7814 28.7645 29.9663 26.9912C31.1512 25.2178 31.7836 23.1329 31.7836 21.0002C31.7836 18.1402 30.6475 15.3974 28.6252 13.3751C26.6029 11.3528 23.8601 10.2167 21.0001 10.2167ZM21.0001 28.0003C19.6156 28.0003 18.2622 27.5898 17.1111 26.8206C15.9599 26.0514 15.0627 24.9581 14.5328 23.679C14.003 22.3999 13.8644 20.9924 14.1345 19.6345C14.4046 18.2766 15.0713 17.0293 16.0503 16.0503C17.0293 15.0713 18.2766 14.4046 19.6345 14.1345C20.9924 13.8644 22.3998 14.0031 23.679 14.5329C24.9581 15.0627 26.0513 15.9599 26.8205 17.1111C27.5897 18.2623 28.0002 19.6157 28.0002 21.0002C28.0002 22.8567 27.2627 24.6372 25.95 25.95C24.6372 27.2628 22.8567 28.0003 21.0001 28.0003Z" fill="white"/>
<path d="M33.9893 11.5728C34.9734 10.5888 34.9734 8.99326 33.9893 8.00918C33.0052 7.02511 31.4097 7.02511 30.4257 8.00918C29.4416 8.99326 29.4416 10.5888 30.4257 11.5728C31.4097 12.5569 33.0052 12.5569 33.9893 11.5728Z" fill="white"/>
</g>
<defs>
<clipPath id="clip0_3097_10220">
<rect width="42" height="42" fill="white"/>
</clipPath>
</defs>
</svg>
