<svg width="42" height="42" viewBox="0 0 42 42" fill="none" xmlns="http://www.w3.org/2000/svg">
<path fill-rule="evenodd" clip-rule="evenodd" d="M2.63247 40H10.5124V14.6043H2.63247V40ZM2 6.57205C2 9.09707 4.04257 11.1441 6.57244 11.1441C9.09195 11.1441 11.1345 9.08668 11.1345 6.57205C11.1345 4.04703 9.09195 2 6.57244 2C4.04257 2 2 4.04703 2 6.57205ZM32.1304 40H40V26.0656C40 19.2283 38.5277 13.9705 30.5544 13.9705C26.7285 13.9705 24.1572 16.0798 23.11 18.0749H23.0063V14.6043H15.4581V40H23.3173V27.4476C23.3173 24.1329 23.9394 20.9221 28.0349 20.9221C32.0786 20.9221 32.1304 24.7148 32.1304 27.6555V40Z" fill="white"/>
</svg>
