<svg width="53" height="71" viewBox="0 0 53 71" fill="none" xmlns="http://www.w3.org/2000/svg">
<path d="M45.0252 25.4017H11.2297C7.91553 25.4017 6.44963 23.9486 6.44963 22.154C6.44963 20.3595 7.90756 18.8984 11.2297 18.8984H43.5194C45.3949 18.8984 47.2281 18.344 48.7874 17.3054C50.3466 16.2667 51.5618 14.7905 52.2791 13.0634C52.9964 11.3363 53.1837 9.43602 52.8172 7.60283C52.4508 5.76965 51.5471 4.08598 50.2204 2.7648C48.8937 1.44363 47.2037 0.544303 45.3641 0.180601C43.5245 -0.183101 41.6181 0.00515755 39.8859 0.721563C38.1537 1.43797 36.6735 2.65033 35.6328 4.20529C34.592 5.76025 34.0373 7.58793 34.0389 9.45714V12.6969H11.2297C4.48978 12.6969 0.235474 16.9371 0.235474 22.1461C0.235474 27.355 4.48978 31.5953 11.2297 31.5953H43.8939C44.6613 31.752 45.3565 32.1539 45.8741 32.74C46.3917 33.326 46.7034 34.0644 46.7619 34.8429C46.7619 35.705 46.4189 36.5319 45.8081 37.1422C45.1972 37.7525 44.3684 38.0964 43.5035 38.0985H33.5529C31.2466 38.111 29.0382 39.0292 27.4066 40.6539C25.775 42.2786 24.8518 44.4788 24.8371 46.7775V56.9811H31.0513V46.7696C31.0534 46.1097 31.3179 45.4775 31.7868 45.0117C32.2557 44.5458 32.8908 44.2842 33.5529 44.2842H43.5194C46.0318 44.28 48.44 43.2828 50.2157 41.5115C51.9915 39.7401 52.9899 37.3391 52.992 34.835C52.992 29.626 48.7457 25.3858 45.0252 25.3858M40.2451 9.44126C40.2435 8.79703 40.4337 8.16681 40.7917 7.63039C41.1496 7.09396 41.6592 6.67545 42.2559 6.42782C42.8526 6.18019 43.5097 6.11459 44.1438 6.23931C44.778 6.36403 45.3607 6.67347 45.8183 7.12845C46.2759 7.58344 46.5878 8.16352 46.7145 8.79526C46.8412 9.427 46.777 10.082 46.53 10.6773C46.283 11.2727 45.8643 11.7816 45.327 12.1397C44.7897 12.4978 44.1578 12.6889 43.5115 12.6889H40.2451V9.44126Z" fill="#0020F6"/>
<path d="M5.44584 67.1386L2.95222 61.5405H0.227539V70.8389H2.5698V65.9475L4.33048 69.8304H6.54527L8.30594 65.9475V70.8389H10.6323V61.5405H7.91557L5.44584 67.1386Z" fill="#0020F6"/>
<path d="M16.6552 61.5405L13.2852 70.8389H15.8266L16.5038 68.8458H19.4436L20.1208 70.8389H22.6622L19.3161 61.5405H16.6552ZM18.7664 66.8368H17.173L17.9697 64.4547L18.7664 66.8368Z" fill="#0020F6"/>
<path d="M41.4158 64.4142C41.4221 64.0144 41.3437 63.6177 41.1857 63.2502C41.0277 62.8826 40.7937 62.5524 40.499 62.2811C40.2042 62.0099 39.8554 61.8036 39.4752 61.6758C39.0951 61.5481 38.6921 61.5017 38.2928 61.5397H34.3093V70.8381H36.6516V67.5269H37.6395L39.3205 70.8381H41.8539L39.8861 67.0187C40.3655 66.7759 40.7655 66.402 41.0393 65.9407C41.313 65.4794 41.4491 64.9499 41.4317 64.4142M39.0416 64.5254C39.0489 64.6524 39.0287 64.7794 38.9825 64.898C38.9363 65.0166 38.8651 65.1239 38.7738 65.2127C38.6824 65.3015 38.573 65.3698 38.4529 65.4128C38.3328 65.4559 38.2048 65.4728 38.0776 65.4623H36.6914V63.6043H38.0776C38.2043 63.59 38.3326 63.6036 38.4533 63.6443C38.5741 63.6849 38.6844 63.7516 38.7764 63.8395C38.8684 63.9274 38.9398 64.0344 38.9857 64.153C39.0315 64.2715 39.0506 64.3986 39.0416 64.5254Z" fill="#0020F6"/>
<path d="M46.9855 61.5405L43.6155 70.8389H46.1569L46.8341 68.8458H49.7739L50.4431 70.8389H52.9925L49.6304 61.5405H46.9855ZM49.0967 66.8368H47.5033L48.3 64.4547L49.0967 66.8368Z" fill="#0020F6"/>
<path d="M30.3263 61.5548H24.8371V63.7941H28.6533V67.8199C28.6533 68.6695 28.2231 68.7648 27.8964 68.7648C27.7132 68.7648 27.1714 68.7648 27.0997 67.8834V66.9941H24.63V67.8993C24.63 69.8288 25.8728 70.9882 27.8884 70.9882C28.3094 71.0273 28.7339 70.9735 29.1316 70.8306C29.5293 70.6876 29.8905 70.459 30.1895 70.161C30.4885 69.863 30.7179 69.503 30.8613 69.1066C31.0047 68.7102 31.0587 68.2871 31.0194 67.8675V61.5151L30.3263 61.5548Z" fill="#0020F6"/>
<path d="M40.2577 47.6849L35.5933 52.334L40.2577 56.983L44.9222 52.334L40.2577 47.6849Z" fill="#0020F6"/>
<path d="M9.75537 44.2828H19.6104V38.105H9.75537C8.48777 38.0684 7.22567 38.2856 6.04379 38.7438C4.86192 39.202 3.78427 39.8918 2.87466 40.7725C1.96505 41.6532 1.24197 42.7069 0.748194 43.871C0.254422 45.0352 0 46.2863 0 47.5503C0 48.8142 0.254422 50.0653 0.748194 51.2295C1.24197 52.3937 1.96505 53.4473 2.87466 54.328C3.78427 55.2087 4.86192 55.8986 6.04379 56.3567C7.22567 56.8149 8.48777 57.0321 9.75537 56.9955H19.6104V50.8099H9.75537C8.918 50.7686 8.12861 50.408 7.5506 49.8027C6.97259 49.1975 6.65022 48.3938 6.65022 47.5582C6.65022 46.7226 6.97259 45.919 7.5506 45.3137C8.12861 44.7084 8.918 44.3478 9.75537 44.3066" fill="#0020F6"/>
</svg>
