<svg width="60" height="60" viewBox="0 0 60 60" fill="none" xmlns="http://www.w3.org/2000/svg">
<rect width="60" height="60" rx="30" fill="white"/>
<rect x="6" y="6" width="48" height="48" rx="24" stroke="#00041C" stroke-width="2"/>
<path d="M30.5522 34.8239C29.7431 37.034 28.934 39.244 28.125 41.454C27.7343 42.5298 27.373 43.616 26.9573 44.6835C26.5082 45.8386 25.495 46.3316 24.4798 45.9493C23.4646 45.5671 23.0072 44.5665 23.4166 43.3758C23.9576 41.8008 24.461 40.2091 25.1253 38.68C26.2115 36.1336 26.5102 33.4578 26.6105 30.7422C26.6293 30.22 26.6105 29.6978 26.6418 29.1756C26.7922 26.5519 26.7233 26.9467 24.3754 26.46C22.5414 26.0756 20.6906 25.7707 18.8503 25.4156C17.5531 25.1607 16.8345 24.2395 17.0643 23.1742C17.3087 22.0357 18.3343 21.4864 19.6462 21.712C23.6422 22.4096 27.5944 23.663 31.7011 23.2431C34.941 22.911 38.1495 22.2655 41.3664 21.7245C42.7117 21.4989 43.7018 22.0107 43.9441 23.1596C44.1676 24.2207 43.4428 25.1607 42.1623 25.4093C39.9126 25.8459 37.6649 26.2866 35.4047 26.6626C34.5086 26.8151 34.0699 27.1493 34.1514 28.152C34.4271 31.9538 35.1081 35.6553 36.5369 39.2043C37.0278 40.4284 37.456 41.6776 37.903 42.9184C38.465 44.4788 38.1245 45.5629 36.9505 45.9786C35.8559 46.365 34.8888 45.7258 34.3519 44.2552C33.3674 41.5494 32.3828 38.8436 31.3982 36.1378C31.2332 35.6866 31.016 35.2563 30.8217 34.8156L30.5522 34.8239Z" fill="#00041C"/>
<path d="M30.3955 21.6221C29.7343 21.5984 29.0948 21.3795 28.5577 20.9931C28.0205 20.6066 27.6098 20.0698 27.3771 19.4504C27.1445 18.8309 27.1004 18.1564 27.2503 17.5119C27.4002 16.8674 27.7375 16.2817 28.2197 15.8286C28.7019 15.3754 29.3074 15.075 29.9599 14.9653C30.6125 14.8556 31.2829 14.9415 31.8867 15.2121C32.4906 15.4827 33.0009 15.9259 33.3533 16.4859C33.7057 17.046 33.8846 17.6978 33.8673 18.3593C33.8571 18.8026 33.7588 19.2394 33.5781 19.6444C33.3974 20.0493 33.138 20.4142 32.8148 20.7179C32.4917 21.0216 32.1114 21.2579 31.6961 21.4131C31.2807 21.5684 30.8386 21.6394 30.3955 21.6221Z" fill="#00041C"/>
</svg>
