<svg preserveAspectRatio="none" width="100%" height="100%" overflow="visible" style="display: block;" viewBox="0 0 64 64" fill="none" xmlns="http://www.w3.org/2000/svg">
<g id="Icon">
<path id="Vector" d="M48 5.33333H16C13.0545 5.33333 10.6667 7.72115 10.6667 10.6667V53.3333C10.6667 56.2788 13.0545 58.6667 16 58.6667H48C50.9455 58.6667 53.3333 56.2788 53.3333 53.3333V10.6667C53.3333 7.72115 50.9455 5.33333 48 5.33333Z" stroke="var(--stroke-0, #3BC4BD)" stroke-width="4" stroke-linecap="round" stroke-linejoin="round"/>
<path id="Vector_2" d="M24 58.6667V48H40V58.6667" stroke="var(--stroke-0, #3BC4BD)" stroke-width="4" stroke-linecap="round" stroke-linejoin="round"/>
<path id="Vector_3" d="M21.3333 16H21.36" stroke="var(--stroke-0, #3BC4BD)" stroke-width="4" stroke-linecap="round" stroke-linejoin="round"/>
<path id="Vector_4" d="M42.6667 16H42.6933" stroke="var(--stroke-0, #3BC4BD)" stroke-width="4" stroke-linecap="round" stroke-linejoin="round"/>
<path id="Vector_5" d="M32 16H32.0267" stroke="var(--stroke-0, #3BC4BD)" stroke-width="4" stroke-linecap="round" stroke-linejoin="round"/>
<path id="Vector_6" d="M32 26.6667H32.0267" stroke="var(--stroke-0, #3BC4BD)" stroke-width="4" stroke-linecap="round" stroke-linejoin="round"/>
<path id="Vector_7" d="M32 37.3333H32.0267" stroke="var(--stroke-0, #3BC4BD)" stroke-width="4" stroke-linecap="round" stroke-linejoin="round"/>
<path id="Vector_8" d="M42.6667 26.6667H42.6933" stroke="var(--stroke-0, #3BC4BD)" stroke-width="4" stroke-linecap="round" stroke-linejoin="round"/>
<path id="Vector_9" d="M42.6667 37.3333H42.6933" stroke="var(--stroke-0, #3BC4BD)" stroke-width="4" stroke-linecap="round" stroke-linejoin="round"/>
<path id="Vector_10" d="M21.3333 26.6667H21.36" stroke="var(--stroke-0, #3BC4BD)" stroke-width="4" stroke-linecap="round" stroke-linejoin="round"/>
<path id="Vector_11" d="M21.3333 37.3333H21.36" stroke="var(--stroke-0, #3BC4BD)" stroke-width="4" stroke-linecap="round" stroke-linejoin="round"/>
</g>
</svg>
