<svg width="20" height="20" viewBox="0 0 20 20" fill="none" xmlns="http://www.w3.org/2000/svg">
<path d="M14.334 6.66602C15.7147 6.66602 16.834 5.54673 16.834 4.16602C16.834 2.7853 15.7147 1.66602 14.334 1.66602C12.9533 1.66602 11.834 2.7853 11.834 4.16602C11.834 5.54673 12.9533 6.66602 14.334 6.66602Z" stroke="white" stroke-width="1.5" stroke-linecap="round" stroke-linejoin="round"/>
<path d="M4.33398 12.5C5.7147 12.5 6.83398 11.3807 6.83398 10C6.83398 8.61929 5.7147 7.5 4.33398 7.5C2.95327 7.5 1.83398 8.61929 1.83398 10C1.83398 11.3807 2.95327 12.5 4.33398 12.5Z" stroke="white" stroke-width="1.5" stroke-linecap="round" stroke-linejoin="round"/>
<path d="M14.334 18.334C15.7147 18.334 16.834 17.2147 16.834 15.834C16.834 14.4533 15.7147 13.334 14.334 13.334C12.9533 13.334 11.834 14.4533 11.834 15.834C11.834 17.2147 12.9533 18.334 14.334 18.334Z" stroke="white" stroke-width="1.5" stroke-linecap="round" stroke-linejoin="round"/>
<path d="M6.49219 11.2578L12.1839 14.5745" stroke="white" stroke-width="1.5" stroke-linecap="round" stroke-linejoin="round"/>
<path d="M12.1755 5.42383L6.49219 8.74049" stroke="white" stroke-width="1.5" stroke-linecap="round" stroke-linejoin="round"/>
</svg>
